<?xml version="1.0" encoding="UTF-8" standalone="no"?>
<!-- Created with Inkscape (http://www.inkscape.org/) -->

<svg
   xmlns:dc="http://purl.org/dc/elements/1.1/"
   xmlns:cc="http://creativecommons.org/ns#"
   xmlns:rdf="http://www.w3.org/1999/02/22-rdf-syntax-ns#"
   xmlns:svg="http://www.w3.org/2000/svg"
   xmlns="http://www.w3.org/2000/svg"
   xmlns:sodipodi="http://sodipodi.sourceforge.net/DTD/sodipodi-0.dtd"
   xmlns:inkscape="http://www.inkscape.org/namespaces/inkscape"
   width="744.09448819"
   height="1052.3622047"
   id="svg2"
   version="1.1"
   inkscape:version="0.48.2 r9819"
   sodipodi:docname="dotted_line.svg">
  <defs
     id="defs4">
    <inkscape:path-effect
       effect="bend_path"
       id="path-effect3060"
       is_visible="true"
       bendpath="m 0.5,461.41418 15.15151,0"
       prop_scale="1"
       scale_y_rel="false"
       vertical="false" />
    <inkscape:path-effect
       effect="skeletal"
       id="path-effect3052"
       is_visible="true"
       pattern="m -120.71212,-27.619758 15.15151,0 0,52.525258 -15.15151,0 z"
       copytype="repeated"
       prop_scale="2"
       scale_y_rel="false"
       spacing="30"
       normal_offset="0"
       tang_offset="0"
       prop_units="false"
       vertical_pattern="true"
       fuse_tolerance="0" />
    <inkscape:path-effect
       effect="skeletal"
       id="path-effect3032"
       is_visible="true"
       pattern="M 0,0 1,0"
       copytype="single_stretched"
       prop_scale="1"
       scale_y_rel="false"
       spacing="0"
       normal_offset="0"
       tang_offset="0"
       prop_units="false"
       vertical_pattern="false"
       fuse_tolerance="0" />
    <inkscape:path-effect
       effect="skeletal"
       id="path-effect3024"
       is_visible="true"
       pattern="M 0,0 1,0"
       copytype="repeated_stretched"
       prop_scale="1"
       scale_y_rel="false"
       spacing="0"
       normal_offset="0"
       tang_offset="0"
       prop_units="false"
       vertical_pattern="false"
       fuse_tolerance="0" />
    <inkscape:path-effect
       effect="skeletal"
       id="path-effect3001"
       is_visible="true"
       pattern="m -85.733427,-59.942981 c 4.75657,0 8.58586,5.63132 8.58586,12.62626 l 0,25.25253 c 0,6.99495 -3.82929,12.6262596 -8.58586,12.6262596 -4.75656,0 -8.58586,-5.6313096 -8.58586,-12.6262596 l 0,-25.25253 c 0,-6.99494 3.8293,-12.62626 8.58586,-12.62626 z"
       copytype="repeated"
       prop_scale="1"
       scale_y_rel="false"
       spacing="20"
       normal_offset="0"
       tang_offset="0"
       prop_units="false"
       vertical_pattern="true"
       fuse_tolerance="0" />
  </defs>
  <sodipodi:namedview
     id="base"
     pagecolor="#ffffff"
     bordercolor="#666666"
     borderopacity="1.0"
     inkscape:pageopacity="0.0"
     inkscape:pageshadow="2"
     inkscape:zoom="0.99"
     inkscape:cx="56.124833"
     inkscape:cy="998.64803"
     inkscape:document-units="px"
     inkscape:current-layer="layer1"
     showgrid="false"
     inkscape:window-width="1280"
     inkscape:window-height="972"
     inkscape:window-x="-8"
     inkscape:window-y="-8"
     inkscape:window-maximized="1" />
  <metadata
     id="metadata7">
    <rdf:RDF>
      <cc:Work
         rdf:about="">
        <dc:format>image/svg+xml</dc:format>
        <dc:type
           rdf:resource="http://purl.org/dc/dcmitype/StillImage" />
        <dc:title></dc:title>
      </cc:Work>
    </rdf:RDF>
  </metadata>
  <g
     inkscape:label="Layer 1"
     inkscape:groupmode="layer"
     id="layer1">
    <path
       style="fill:#808080;stroke:#000000"
       d="M 30.80302,0.5 0.5,0.5 c 0,17.508419 0,35.016839 0,52.525258 l 30.30302,0 c 0,-17.508419 0,-35.016839 0,-52.525258 z m 0,82.525258 -30.30302,0 c 0,17.508422 0,35.016842 0,52.525262 l 30.30302,0 c 0,-17.50842 0,-35.01684 0,-52.525262 z m 0,82.525262 -30.30302,0 c 0,17.50842 0,35.01683 0,52.52525 l 30.30302,0 c 0,-17.50842 0,-35.01683 0,-52.52525 z m 0,82.52525 -30.30302,0 c 0,17.50842 0,35.01684 0,52.52526 l 30.30302,0 c 0,-17.50842 0,-35.01684 0,-52.52526 z m 0,82.52526 -30.30302,0 c 0,17.50842 0,35.01684 0,52.52526 l 30.30302,0 c 0,-17.50842 0,-35.01684 0,-52.52526 z m 0,82.52526 -30.30302,0 c 0,17.50842 0,35.01684 0,52.52526 l 30.30302,0 c 0,-17.50842 0,-35.01684 0,-52.52526 z m 0,82.52526 -30.30302,0 c 0,17.50842 0,35.01684 0,52.52526 l 30.30302,0 c 0,-17.50842 0,-35.01684 0,-52.52526 z m 0,82.52526 -30.30302,0 c 0,17.50842 0,35.01683 0,52.52525 l 30.30302,0 c 0,-17.50842 0,-35.01683 0,-52.52525 z m 0,82.52525 -30.30302,0 c 0,17.50842 0,35.01684 0,52.52526 l 30.30302,0 c 0,-17.50842 0,-35.01684 0,-52.52526 z m 0,82.52526 -30.30302,0 c 0,17.50842 0,35.01684 0,52.52526 l 30.30302,0 c 0,-17.50842 0,-35.01684 0,-52.52526 z m 0,82.52526 -30.30302,0 c 0,7.76031 0,15.52063 0,23.28094 0,9.74811 0,19.49621 0,29.24432 l 30.30302,0 c 0,-9.74811 0,-19.49621 0,-29.24432 0,-7.76031 0,-15.52063 0,-23.28094 z m 0,82.52526 -30.30302,0 c 0,16.14113 0,32.28226 0,48.42339 0,1.36729 0,2.73458 0,4.10187 l 30.30302,0 c 0,-1.36729 0,-2.73458 0,-4.10187 0,-16.14113 0,-32.28226 0,-48.42339 z"
       id="path3009"
       inkscape:connector-curvature="0"
       inkscape:path-effect="#path-effect3052"
       inkscape:original-d="m 15.65151,0.5 c 0,972.20664 0,972.20664 0,972.20664" />
  </g>
</svg>
