<?xml version="1.0" encoding="UTF-8" standalone="no"?>
<!-- Created with Inkscape (http://www.inkscape.org/) -->

<svg
   xmlns:osb="http://www.openswatchbook.org/uri/2009/osb"
   xmlns:dc="http://purl.org/dc/elements/1.1/"
   xmlns:cc="http://creativecommons.org/ns#"
   xmlns:rdf="http://www.w3.org/1999/02/22-rdf-syntax-ns#"
   xmlns:svg="http://www.w3.org/2000/svg"
   xmlns="http://www.w3.org/2000/svg"
   xmlns:xlink="http://www.w3.org/1999/xlink"
   xmlns:sodipodi="http://sodipodi.sourceforge.net/DTD/sodipodi-0.dtd"
   xmlns:inkscape="http://www.inkscape.org/namespaces/inkscape"
   width="744.09448819"
   height="1052.3622047"
   id="svg2"
   version="1.1"
   inkscape:version="0.48.2 r9819"
   sodipodi:docname="ghost_base.svg">
  <defs
     id="defs4">
    <linearGradient
       id="linearGradient5426">
      <stop
         style="stop-color:#dadada;stop-opacity:0.23423423;"
         offset="0"
         id="stop5428" />
      <stop
         style="stop-color:#303030;stop-opacity:0.93693691;"
         offset="1"
         id="stop5430" />
    </linearGradient>
    <linearGradient
       id="linearGradient5412">
      <stop
         style="stop-color:#aaaaaa;stop-opacity:0;"
         offset="0"
         id="stop5414" />
      <stop
         style="stop-color:#000000;stop-opacity:0.58558559;"
         offset="1"
         id="stop5416" />
    </linearGradient>
    <linearGradient
       id="linearGradient5364">
      <stop
         id="stop5376"
         offset="0"
         style="stop-color:#000000;stop-opacity:0.49803922;" />
      <stop
         style="stop-color:#000000;stop-opacity:0;"
         offset="1"
         id="stop5368" />
    </linearGradient>
    <linearGradient
       id="linearGradient3828">
      <stop
         style="stop-color:#000000;stop-opacity:0.60714287;"
         offset="0"
         id="stop3830" />
      <stop
         style="stop-color:#000000;stop-opacity:0.21164021"
         offset="1"
         id="stop3832" />
    </linearGradient>
    <linearGradient
       id="linearGradient3769"
       osb:paint="solid">
      <stop
         style="stop-color:#7f888e;stop-opacity:1;"
         offset="0"
         id="stop3771" />
    </linearGradient>
    <radialGradient
       inkscape:collect="always"
       xlink:href="#linearGradient5412"
       id="radialGradient5418"
       cx="272.30823"
       cy="256.20541"
       fx="272.30823"
       fy="256.20541"
       r="269.63863"
       gradientTransform="matrix(0.73720715,1.5633497,-1.5644665,0.73777747,361.89255,-460.94479)"
       gradientUnits="userSpaceOnUse" />
    <radialGradient
       inkscape:collect="always"
       xlink:href="#linearGradient5426"
       id="radialGradient5432"
       cx="435.10822"
       cy="249.54832"
       fx="435.10822"
       fy="249.54832"
       r="54.285713"
       gradientUnits="userSpaceOnUse"
       gradientTransform="matrix(1.2656934,1.2920948,-1.0940707,1.0717164,157.41808,-580.09778)" />
    <radialGradient
       inkscape:collect="always"
       xlink:href="#linearGradient5426"
       id="radialGradient5440"
       gradientUnits="userSpaceOnUse"
       gradientTransform="matrix(1.373389,1.4239185,-1.0725592,1.0344989,105.19074,-628.16779)"
       cx="435.10822"
       cy="249.54832"
       fx="435.10822"
       fy="249.54832"
       r="54.285713" />
    <radialGradient
       inkscape:collect="always"
       xlink:href="#linearGradient5426"
       id="radialGradient5446"
       gradientUnits="userSpaceOnUse"
       gradientTransform="matrix(1.373389,1.4239185,-1.0725592,1.0344989,105.19074,-628.16779)"
       cx="435.10822"
       cy="249.54832"
       fx="435.10822"
       fy="249.54832"
       r="54.285713" />
    <radialGradient
       inkscape:collect="always"
       xlink:href="#linearGradient5426"
       id="radialGradient5452"
       gradientUnits="userSpaceOnUse"
       gradientTransform="matrix(1.373389,1.4239185,-1.0725592,1.0344989,105.19074,-628.16779)"
       cx="435.10822"
       cy="249.54832"
       fx="435.10822"
       fy="249.54832"
       r="54.285713" />
  </defs>
  <sodipodi:namedview
     id="base"
     pagecolor="#ffffff"
     bordercolor="#666666"
     borderopacity="1.0"
     inkscape:pageopacity="0.0"
     inkscape:pageshadow="2"
     inkscape:zoom="0.7"
     inkscape:cx="562.94952"
     inkscape:cy="559.21979"
     inkscape:document-units="px"
     inkscape:current-layer="layer1"
     showgrid="false"
     inkscape:window-width="946"
     inkscape:window-height="764"
     inkscape:window-x="281"
     inkscape:window-y="190"
     inkscape:window-maximized="0" />
  <metadata
     id="metadata7">
    <rdf:RDF>
      <cc:Work
         rdf:about="">
        <dc:format>image/svg+xml</dc:format>
        <dc:type
           rdf:resource="http://purl.org/dc/dcmitype/StillImage" />
      </cc:Work>
    </rdf:RDF>
  </metadata>
  <g
     inkscape:label="Layer 1"
     inkscape:groupmode="layer"
     id="layer1">
    <path
       style="fill:#ff0000;fill-opacity:1;fill-rule:nonzero;stroke:none"
       d="m 538.9582,290.93359 c -3.41949,72.81615 13.11938,183.84562 -31.10366,241.01582 -15.02377,18.90059 -34.97647,30.64347 -58.71635,37.90039 -23.73988,7.25693 -51.26694,-91.78063 -81.43943,-90.82392 -30.17249,0.95673 -62.99041,101.90773 -97.312,101.90773 -34.42788,0 -67.34277,-100.99413 -97.59225,-102.02561 -30.24948,-1.03148 -57.83357,97.89969 -81.599865,90.51622 -23.7663,-7.38345 -43.71481,-19.27302 -58.69313,-38.32896 C -11.417359,461.22679 1.9418949,376.73061 1.8153249,290.93359 1.8153249,130.77101 122.05885,0.93357552 270.38676,0.93357552 418.71467,0.93357552 538.9582,130.77101 538.9582,290.93359 z"
       id="path3795"
       inkscape:connector-curvature="0"
       sodipodi:nodetypes="ccsssssccsc" />
    <path
       sodipodi:nodetypes="ccsssssccsc"
       inkscape:connector-curvature="0"
       id="path5410"
       d="m 538.9582,290.93359 c -3.41949,72.81615 13.11938,183.84562 -31.10366,241.01582 -15.02377,18.90059 -34.97647,30.64347 -58.71635,37.90039 -23.73988,7.25693 -51.26694,-91.78063 -81.43943,-90.82392 -30.17249,0.95673 -62.99041,101.90773 -97.312,101.90773 -34.42788,0 -67.34277,-100.99413 -97.59225,-102.02561 -30.24948,-1.03148 -57.83357,97.89969 -81.599865,90.51622 -23.7663,-7.38345 -43.71481,-19.27302 -58.69313,-38.32896 C -11.417359,461.22679 1.9418949,376.73061 1.8153249,290.93359 1.8153249,130.77101 122.05885,0.93357552 270.38676,0.93357552 418.71467,0.93357552 538.9582,130.77101 538.9582,290.93359 z"
       style="fill:url(#radialGradient5418);fill-opacity:1;fill-rule:nonzero;stroke:none" />
    <path
       transform="matrix(1.0526316,0,0,1.0526316,-302.47038,-94.259665)"
       d="m 515.71427,270.93362 a 54.285713,54.285713 0 1 1 -108.57142,0 54.285713,54.285713 0 1 1 108.57142,0 z"
       sodipodi:ry="54.285713"
       sodipodi:rx="54.285713"
       sodipodi:cy="270.93362"
       sodipodi:cx="461.42856"
       id="path5436"
       style="fill:#ffffff;fill-opacity:1;fill-rule:nonzero;stroke:none"
       sodipodi:type="arc" />
    <path
       sodipodi:type="arc"
       style="fill:url(#radialGradient5440);fill-opacity:1;fill-rule:nonzero;stroke:none"
       id="path5438"
       sodipodi:cx="461.42856"
       sodipodi:cy="270.93362"
       sodipodi:rx="54.285713"
       sodipodi:ry="54.285713"
       d="m 515.71427,270.93362 a 54.285713,54.285713 0 1 1 -108.57142,0 54.285713,54.285713 0 1 1 108.57142,0 z"
       transform="matrix(1.0526316,0,0,1.0526316,-302.47038,-94.259665)" />
    <path
       sodipodi:type="arc"
       style="fill:#ffffff;fill-opacity:1;fill-rule:nonzero;stroke:none"
       id="path5448"
       sodipodi:cx="461.42856"
       sodipodi:cy="270.93362"
       sodipodi:rx="54.285713"
       sodipodi:ry="54.285713"
       d="m 515.71427,270.93362 a 54.285713,54.285713 0 1 1 -108.57142,0 54.285713,54.285713 0 1 1 108.57142,0 z"
       transform="matrix(1.0526316,0,0,1.0526316,-123.89895,-94.259665)" />
    <path
       transform="matrix(1.0526316,0,0,1.0526316,-123.89895,-94.259665)"
       d="m 515.71427,270.93362 a 54.285713,54.285713 0 1 1 -108.57142,0 54.285713,54.285713 0 1 1 108.57142,0 z"
       sodipodi:ry="54.285713"
       sodipodi:rx="54.285713"
       sodipodi:cy="270.93362"
       sodipodi:cx="461.42856"
       id="path5450"
       style="fill:url(#radialGradient5452);fill-opacity:1;fill-rule:nonzero;stroke:none"
       sodipodi:type="arc" />
  </g>
</svg>
