<?xml version="1.0" encoding="UTF-8" standalone="no"?>
<!-- Created with Inkscape (http://www.inkscape.org/) -->

<svg
   xmlns:osb="http://www.openswatchbook.org/uri/2009/osb"
   xmlns:dc="http://purl.org/dc/elements/1.1/"
   xmlns:cc="http://creativecommons.org/ns#"
   xmlns:rdf="http://www.w3.org/1999/02/22-rdf-syntax-ns#"
   xmlns:svg="http://www.w3.org/2000/svg"
   xmlns="http://www.w3.org/2000/svg"
   xmlns:xlink="http://www.w3.org/1999/xlink"
   xmlns:sodipodi="http://sodipodi.sourceforge.net/DTD/sodipodi-0.dtd"
   xmlns:inkscape="http://www.inkscape.org/namespaces/inkscape"
   width="744.09448819"
   height="1052.3622047"
   id="svg2"
   version="1.1"
   inkscape:version="0.48.2 r9819"
   sodipodi:docname="blue2.svg">
  <defs
     id="defs4">
    <linearGradient
       id="linearGradient3909">
      <stop
         style="stop-color:#05ff00;stop-opacity:1;"
         offset="0"
         id="stop3911" />
      <stop
         style="stop-color:#00ff00;stop-opacity:0;"
         offset="1"
         id="stop3913" />
    </linearGradient>
    <linearGradient
       id="linearGradient5426">
      <stop
         style="stop-color:#dadada;stop-opacity:0.23423423;"
         offset="0"
         id="stop5428" />
      <stop
         style="stop-color:#303030;stop-opacity:0.93693691;"
         offset="1"
         id="stop5430" />
    </linearGradient>
    <linearGradient
       id="linearGradient5412">
      <stop
         style="stop-color:#aaaaaa;stop-opacity:0;"
         offset="0"
         id="stop5414" />
      <stop
         style="stop-color:#000000;stop-opacity:0.58558559;"
         offset="1"
         id="stop5416" />
    </linearGradient>
    <linearGradient
       id="linearGradient5364">
      <stop
         id="stop5376"
         offset="0"
         style="stop-color:#000000;stop-opacity:0.49803922;" />
      <stop
         style="stop-color:#000000;stop-opacity:0;"
         offset="1"
         id="stop5368" />
    </linearGradient>
    <linearGradient
       id="linearGradient3828">
      <stop
         style="stop-color:#000000;stop-opacity:0.60714287;"
         offset="0"
         id="stop3830" />
      <stop
         style="stop-color:#000000;stop-opacity:0.21164021"
         offset="1"
         id="stop3832" />
    </linearGradient>
    <linearGradient
       id="linearGradient3769"
       osb:paint="solid">
      <stop
         style="stop-color:#7f888e;stop-opacity:1;"
         offset="0"
         id="stop3771" />
    </linearGradient>
    <radialGradient
       inkscape:collect="always"
       xlink:href="#linearGradient5426"
       id="radialGradient5432"
       cx="435.10822"
       cy="249.54832"
       fx="435.10822"
       fy="249.54832"
       r="54.285713"
       gradientUnits="userSpaceOnUse"
       gradientTransform="matrix(1.2656934,1.2920948,-1.0940707,1.0717164,157.41808,-580.09778)" />
    <radialGradient
       inkscape:collect="always"
       xlink:href="#linearGradient5426"
       id="radialGradient5440"
       gradientUnits="userSpaceOnUse"
       gradientTransform="matrix(1.373389,1.4239185,-1.0725592,1.0344989,105.19074,-628.16779)"
       cx="435.10822"
       cy="249.54832"
       fx="435.10822"
       fy="249.54832"
       r="54.285713" />
    <radialGradient
       inkscape:collect="always"
       xlink:href="#linearGradient5426"
       id="radialGradient5446"
       gradientUnits="userSpaceOnUse"
       gradientTransform="matrix(1.373389,1.4239185,-1.0725592,1.0344989,105.19074,-628.16779)"
       cx="435.10822"
       cy="249.54832"
       fx="435.10822"
       fy="249.54832"
       r="54.285713" />
    <radialGradient
       inkscape:collect="always"
       xlink:href="#linearGradient5426"
       id="radialGradient5452"
       gradientUnits="userSpaceOnUse"
       gradientTransform="matrix(1.373389,1.4239185,-1.0725592,1.0344989,105.19074,-628.16779)"
       cx="435.10822"
       cy="249.54832"
       fx="435.10822"
       fy="249.54832"
       r="54.285713" />
    <radialGradient
       inkscape:collect="always"
       xlink:href="#linearGradient5426"
       id="radialGradient5471"
       gradientUnits="userSpaceOnUse"
       gradientTransform="matrix(1.373389,1.4239185,-1.0725592,1.0344989,105.19074,-628.16779)"
       cx="435.10822"
       cy="249.54832"
       fx="435.10822"
       fy="249.54832"
       r="54.285713" />
    <filter
       inkscape:collect="always"
       id="filter3889"
       x="-0.10287328"
       width="1.2057466"
       y="-0.095650378"
       height="1.1913008">
      <feGaussianBlur
         inkscape:collect="always"
         stdDeviation="23.115509"
         id="feGaussianBlur3891" />
    </filter>
    <filter
       inkscape:collect="always"
       id="filter3937"
       x="-0.12453082"
       width="1.2490616"
       y="-0.1157873"
       height="1.2315746">
      <feGaussianBlur
         inkscape:collect="always"
         stdDeviation="27.981931"
         id="feGaussianBlur3939" />
    </filter>
  </defs>
  <sodipodi:namedview
     id="base"
     pagecolor="#ffffff"
     bordercolor="#666666"
     borderopacity="1.0"
     inkscape:pageopacity="0.0"
     inkscape:pageshadow="2"
     inkscape:zoom="0.7"
     inkscape:cx="117.23524"
     inkscape:cy="673.5055"
     inkscape:document-units="px"
     inkscape:current-layer="layer1"
     showgrid="false"
     inkscape:window-width="1920"
     inkscape:window-height="1148"
     inkscape:window-x="-8"
     inkscape:window-y="-8"
     inkscape:window-maximized="1" />
  <metadata
     id="metadata7">
    <rdf:RDF>
      <cc:Work
         rdf:about="">
        <dc:format>image/svg+xml</dc:format>
        <dc:type
           rdf:resource="http://purl.org/dc/dcmitype/StillImage" />
        <dc:title></dc:title>
      </cc:Work>
    </rdf:RDF>
  </metadata>
  <g
     inkscape:label="Layer 1"
     inkscape:groupmode="layer"
     id="layer1">
    <path
       style="fill:#ffff00;fill-opacity:1;fill-rule:nonzero;stroke:none;filter:url(#filter3889)"
       d="m 554.67249,433.79073 c -3.41949,72.81615 13.11938,183.84562 -31.10366,241.01582 -15.02377,18.90059 -34.97647,30.64347 -58.71635,37.90039 -23.73988,7.25693 -51.26694,-91.78063 -81.43943,-90.82392 -30.17249,0.95673 -62.99041,101.90773 -97.312,101.90773 -34.42788,0 -67.34277,-100.99413 -97.59225,-102.02561 -30.24948,-1.03148 -57.83357,97.89969 -81.59987,90.51622 C 83.142631,704.89791 63.194121,693.00834 48.215801,673.9524 4.2969267,604.08393 17.65618,519.58775 17.52961,433.79073 c 0,-160.16258 120.24353,-290.00001 268.57144,-290.00001 148.32791,0 268.57144,129.83743 268.57144,290.00001 z"
       id="path3795"
       inkscape:connector-curvature="0"
       sodipodi:nodetypes="ccsssssccsc" />
    <path
       sodipodi:nodetypes="ccsssssccsc"
       inkscape:connector-curvature="0"
       id="path5410"
       d="m 556.10103,440.93358 c -3.41949,72.81615 13.11938,183.84562 -31.10366,241.01582 -15.02377,18.90059 -34.97647,30.64347 -58.71635,37.90039 -23.73988,7.25693 -51.26694,-91.78063 -81.43943,-90.82392 -30.17249,0.95673 -62.99041,101.90773 -97.312,101.90773 -34.42788,0 -67.34277,-100.99413 -97.59225,-102.02561 -30.24948,-1.03148 -57.83357,97.89969 -81.59984,90.51622 C 84.571196,712.04076 64.622686,700.15119 49.644366,681.09525 5.7254957,611.22678 19.084746,526.7306 18.958176,440.93358 c 0,-160.16258 120.243504,-290 268.571414,-290 148.32791,0 268.57144,129.83742 268.57144,290 z"
       style="fill:#ffff00;fill-opacity:1;fill-rule:nonzero;stroke:none;filter:url(#filter3937)" />
    <path
       transform="matrix(1.0526316,0,0,1.0526316,-286.75609,48.597479)"
       d="m 515.71427,270.93362 a 54.285713,54.285713 0 1 1 -108.57142,0 54.285713,54.285713 0 1 1 108.57142,0 z"
       sodipodi:ry="54.285713"
       sodipodi:rx="54.285713"
       sodipodi:cy="270.93362"
       sodipodi:cx="461.42856"
       id="path5436"
       style="fill:#ffffff;fill-opacity:1;fill-rule:nonzero;stroke:none"
       sodipodi:type="arc" />
    <path
       sodipodi:type="arc"
       style="fill:url(#radialGradient5440);fill-opacity:1;fill-rule:nonzero;stroke:none"
       id="path5438"
       sodipodi:cx="461.42856"
       sodipodi:cy="270.93362"
       sodipodi:rx="54.285713"
       sodipodi:ry="54.285713"
       d="m 515.71427,270.93362 a 54.285713,54.285713 0 1 1 -108.57142,0 54.285713,54.285713 0 1 1 108.57142,0 z"
       transform="matrix(1.0526316,0,0,1.0526316,-286.75609,48.597479)" />
    <path
       sodipodi:type="arc"
       style="fill:#000000;fill-opacity:1;fill-rule:nonzero;stroke:none"
       id="path5463"
       sodipodi:cx="192.14285"
       sodipodi:cy="201.6479"
       sodipodi:rx="26.428572"
       sodipodi:ry="26.428572"
       d="m 218.57142,201.6479 a 26.428572,26.428572 0 1 1 -52.85714,0 26.428572,26.428572 0 1 1 52.85714,0 z"
       transform="translate(17.142857,131.42857)" />
    <path
       sodipodi:type="arc"
       style="fill:#ffffff;fill-opacity:1;fill-rule:nonzero;stroke:none"
       id="path5465"
       sodipodi:cx="461.42856"
       sodipodi:cy="270.93362"
       sodipodi:rx="54.285713"
       sodipodi:ry="54.285713"
       d="m 515.71427,270.93362 a 54.285713,54.285713 0 1 1 -108.57142,0 54.285713,54.285713 0 1 1 108.57142,0 z"
       transform="matrix(1.0526316,0,0,1.0526316,-108.18466,48.597479)" />
    <path
       transform="matrix(1.0526316,0,0,1.0526316,-108.18466,48.597479)"
       d="m 515.71427,270.93362 a 54.285713,54.285713 0 1 1 -108.57142,0 54.285713,54.285713 0 1 1 108.57142,0 z"
       sodipodi:ry="54.285713"
       sodipodi:rx="54.285713"
       sodipodi:cy="270.93362"
       sodipodi:cx="461.42856"
       id="path5467"
       style="fill:url(#radialGradient5471);fill-opacity:1;fill-rule:nonzero;stroke:none"
       sodipodi:type="arc" />
    <path
       transform="translate(195.71429,131.42857)"
       d="m 218.57142,201.6479 a 26.428572,26.428572 0 1 1 -52.85714,0 26.428572,26.428572 0 1 1 52.85714,0 z"
       sodipodi:ry="26.428572"
       sodipodi:rx="26.428572"
       sodipodi:cy="201.6479"
       sodipodi:cx="192.14285"
       id="path5469"
       style="fill:#000000;fill-opacity:1;fill-rule:nonzero;stroke:none"
       sodipodi:type="arc" />
    <path
       sodipodi:type="arc"
       style="fill:#0000ff;fill-opacity:1;fill-rule:nonzero;stroke:none"
       id="path3941"
       sodipodi:cx="348.57144"
       sodipodi:cy="88.790756"
       sodipodi:rx="258.57144"
       sodipodi:ry="35"
       d="m 607.14288,88.790756 a 258.57144,35 0 1 1 -517.14288,0 258.57144,35 0 1 1 517.14288,0 z"
       transform="translate(-58.571429,-32.857142)" />
    <path
       sodipodi:type="arc"
       style="fill:#ffff00;fill-opacity:1;fill-rule:nonzero;stroke:none"
       id="path3943"
       sodipodi:cx="236.42857"
       sodipodi:cy="102.36218"
       sodipodi:rx="32.142857"
       sodipodi:ry="5.7142859"
       d="m 268.57143,102.36218 a 32.142857,5.7142859 0 1 1 -64.28571,0 32.142857,5.7142859 0 1 1 64.28571,0 z"
       transform="translate(-2.8571429,-51.428571)" />
    <path
       sodipodi:type="arc"
       style="fill:#000000;fill-opacity:1;fill-rule:nonzero;stroke:none"
       id="path3945"
       sodipodi:cx="318.57144"
       sodipodi:cy="108.07647"
       sodipodi:rx="157.14285"
       sodipodi:ry="18.571428"
       d="m 475.71429,108.07647 a 157.14285,18.571428 0 1 1 -314.2857,0 157.14285,18.571428 0 1 1 314.2857,0 z"
       transform="matrix(1.2,0,0,1,-98.000005,-51.428571)" />
  </g>
</svg>
