<?xml version="1.0" encoding="UTF-8" standalone="no"?>
<!-- Created with Inkscape (http://www.inkscape.org/) -->

<svg
   xmlns:osb="http://www.openswatchbook.org/uri/2009/osb"
   xmlns:dc="http://purl.org/dc/elements/1.1/"
   xmlns:cc="http://creativecommons.org/ns#"
   xmlns:rdf="http://www.w3.org/1999/02/22-rdf-syntax-ns#"
   xmlns:svg="http://www.w3.org/2000/svg"
   xmlns="http://www.w3.org/2000/svg"
   xmlns:xlink="http://www.w3.org/1999/xlink"
   xmlns:sodipodi="http://sodipodi.sourceforge.net/DTD/sodipodi-0.dtd"
   xmlns:inkscape="http://www.inkscape.org/namespaces/inkscape"
   width="744.09448819"
   height="1052.3622047"
   id="svg2"
   version="1.1"
   inkscape:version="0.48.2 r9819"
   sodipodi:docname="tower.svg">
  <defs
     id="defs4">
    <linearGradient
       inkscape:collect="always"
       id="linearGradient4224">
      <stop
         style="stop-color:#000000;stop-opacity:1;"
         offset="0"
         id="stop4226" />
      <stop
         style="stop-color:#000000;stop-opacity:0;"
         offset="1"
         id="stop4228" />
    </linearGradient>
    <linearGradient
       id="linearGradient4214">
      <stop
         style="stop-color:#000000;stop-opacity:0.9375;"
         offset="0"
         id="stop4216" />
      <stop
         style="stop-color:#ff0000;stop-opacity:0.6964286;"
         offset="1"
         id="stop4218" />
    </linearGradient>
    <linearGradient
       inkscape:collect="always"
       id="linearGradient4206">
      <stop
         style="stop-color:#ff0000;stop-opacity:1;"
         offset="0"
         id="stop4208" />
      <stop
         style="stop-color:#000000;stop-opacity:1"
         offset="1"
         id="stop4210" />
    </linearGradient>
    <linearGradient
       id="linearGradient4032">
      <stop
         style="stop-color:#000000;stop-opacity:1;"
         offset="0"
         id="stop4034" />
      <stop
         style="stop-color:#000000;stop-opacity:0;"
         offset="1"
         id="stop4036" />
    </linearGradient>
    <linearGradient
       id="linearGradient4024">
      <stop
         style="stop-color:#000000;stop-opacity:1;"
         offset="0"
         id="stop4026" />
      <stop
         style="stop-color:#000000;stop-opacity:0.375;"
         offset="1"
         id="stop4028" />
    </linearGradient>
    <linearGradient
       id="linearGradient3964">
      <stop
         style="stop-color:#ff0000;stop-opacity:1;"
         offset="0"
         id="stop3966" />
      <stop
         style="stop-color:#000000;stop-opacity:1"
         offset="1"
         id="stop3968" />
    </linearGradient>
    <linearGradient
       id="linearGradient3908">
      <stop
         id="stop3910"
         offset="0"
         style="stop-color:#ff0000;stop-opacity:1" />
      <stop
         id="stop3912"
         offset="1"
         style="stop-color:#000000;stop-opacity:1;" />
    </linearGradient>
    <linearGradient
       id="linearGradient3896">
      <stop
         style="stop-color:#ff0000;stop-opacity:1;"
         offset="0"
         id="stop3898" />
      <stop
         style="stop-color:#ffffff;stop-opacity:0;"
         offset="1"
         id="stop3900" />
    </linearGradient>
    <inkscape:perspective
       sodipodi:type="inkscape:persp3d"
       inkscape:vp_x="0 : 526.18109 : 1"
       inkscape:vp_y="0 : 1000 : 0"
       inkscape:vp_z="744.09448 : 526.18109 : 1"
       inkscape:persp3d-origin="372.04724 : 350.78739 : 1"
       id="perspective3786" />
    <linearGradient
       inkscape:collect="always"
       id="linearGradient5303">
      <stop
         style="stop-color:#552200;stop-opacity:1;"
         offset="0"
         id="stop5305" />
      <stop
         style="stop-color:#552200;stop-opacity:0;"
         offset="1"
         id="stop5307" />
    </linearGradient>
    <linearGradient
       id="linearGradient5249">
      <stop
         id="stop5251"
         offset="0"
         style="stop-color:#ff4100;stop-opacity:1;" />
      <stop
         id="stop5253"
         offset="1"
         style="stop-color:#000000;stop-opacity:0;" />
    </linearGradient>
    <linearGradient
       id="linearGradient5209">
      <stop
         style="stop-color:#ff4400;stop-opacity:1;"
         offset="0"
         id="stop5211" />
      <stop
         style="stop-color:#000000;stop-opacity:0;"
         offset="1"
         id="stop5213" />
    </linearGradient>
    <linearGradient
       id="linearGradient5199"
       osb:paint="solid">
      <stop
         style="stop-color:#000000;stop-opacity:1;"
         offset="0"
         id="stop5201" />
    </linearGradient>
    <linearGradient
       id="linearGradient3017">
      <stop
         style="stop-color:#ffffff;stop-opacity:0;"
         offset="0"
         id="stop3019" />
      <stop
         style="stop-color:#000000;stop-opacity:1;"
         offset="1"
         id="stop3021" />
    </linearGradient>
    <linearGradient
       id="linearGradient3005">
      <stop
         style="stop-color:#959595;stop-opacity:0;"
         offset="0"
         id="stop3007" />
      <stop
         style="stop-color:#000000;stop-opacity:0.77477479;"
         offset="1"
         id="stop3009" />
    </linearGradient>
    <radialGradient
       inkscape:collect="always"
       xlink:href="#linearGradient3017"
       id="radialGradient3023"
       cx="235.04431"
       cy="214.2643"
       fx="235.04431"
       fy="214.2643"
       r="48.57143"
       gradientUnits="userSpaceOnUse"
       gradientTransform="matrix(1.7138792,1.8044531,-1.3970232,1.3268998,129.41985,-498.52045)" />
    <linearGradient
       inkscape:collect="always"
       xlink:href="#linearGradient5209"
       id="linearGradient5217"
       x1="139.92999"
       y1="486.64789"
       x2="616.80658"
       y2="501.34235"
       gradientUnits="userSpaceOnUse" />
    <radialGradient
       inkscape:collect="always"
       xlink:href="#linearGradient5209-8"
       id="radialGradient5247-6"
       cx="367.14285"
       cy="528.07648"
       fx="367.14285"
       fy="528.07648"
       r="118.57143"
       gradientTransform="matrix(1,0,0,3.6024097,0,-1374.2713)"
       gradientUnits="userSpaceOnUse"
       spreadMethod="pad" />
    <linearGradient
       id="linearGradient5209-8">
      <stop
         style="stop-color:#ff4100;stop-opacity:1;"
         offset="0"
         id="stop5211-8" />
      <stop
         style="stop-color:#000000;stop-opacity:0;"
         offset="1"
         id="stop5213-2" />
    </linearGradient>
    <radialGradient
       inkscape:collect="always"
       xlink:href="#linearGradient5303"
       id="radialGradient5311"
       cx="379.55341"
       cy="720.68396"
       fx="379.55341"
       fy="720.68396"
       r="123.23862"
       gradientTransform="matrix(1.4672132,0,0,1.1065161,-182.38309,-65.147731)"
       gradientUnits="userSpaceOnUse" />
    <radialGradient
       inkscape:collect="always"
       xlink:href="#linearGradient3964"
       id="radialGradient3974"
       cx="229.28572"
       cy="171.715"
       fx="229.28572"
       fy="171.715"
       r="75.765625"
       gradientTransform="matrix(1.0193175,1.3885464e-7,-9.3906064e-8,0.68935467,-219.06315,-80.456813)"
       gradientUnits="userSpaceOnUse" />
    <linearGradient
       inkscape:collect="always"
       xlink:href="#linearGradient4032"
       id="linearGradient4131"
       gradientUnits="userSpaceOnUse"
       gradientTransform="translate(-35.34375,-31.6254)"
       x1="116.19741"
       y1="287.17163"
       x2="10.253242"
       y2="287.17163" />
    <radialGradient
       inkscape:collect="always"
       xlink:href="#linearGradient3964"
       id="radialGradient4134"
       gradientUnits="userSpaceOnUse"
       gradientTransform="matrix(1.9694936,-3.7529599e-7,1.8235843e-7,0.95698803,-436.92497,91.50851)"
       cx="229.28572"
       cy="171.715"
       fx="229.28572"
       fy="171.715"
       r="75.765625" />
    <linearGradient
       inkscape:collect="always"
       xlink:href="#linearGradient4214"
       id="linearGradient4220"
       x1="98.062225"
       y1="446.86218"
       x2="-18.030045"
       y2="446.86218"
       gradientUnits="userSpaceOnUse" />
    <linearGradient
       inkscape:collect="always"
       xlink:href="#linearGradient4206"
       id="linearGradient4222"
       x1="269.50134"
       y1="442.86218"
       x2="-34.014557"
       y2="442.86218"
       gradientUnits="userSpaceOnUse" />
    <radialGradient
       inkscape:collect="always"
       xlink:href="#linearGradient4224"
       id="radialGradient4230"
       cx="107"
       cy="445.71524"
       fx="107"
       fy="445.71524"
       r="62.9375"
       gradientTransform="matrix(-1.512963,0,0,-1.1778279,268.88704,970.83804)"
       gradientUnits="userSpaceOnUse" />
    <linearGradient
       inkscape:collect="always"
       xlink:href="#linearGradient4206"
       id="linearGradient4237"
       gradientUnits="userSpaceOnUse"
       x1="269.50134"
       y1="442.86218"
       x2="-34.014557"
       y2="442.86218" />
    <radialGradient
       inkscape:collect="always"
       xlink:href="#linearGradient4224"
       id="radialGradient4239"
       gradientUnits="userSpaceOnUse"
       gradientTransform="matrix(-1.512963,0,0,-1.1778279,268.88704,970.83804)"
       cx="107"
       cy="445.71524"
       fx="107"
       fy="445.71524"
       r="62.9375" />
    <linearGradient
       inkscape:collect="always"
       xlink:href="#linearGradient4214"
       id="linearGradient4241"
       gradientUnits="userSpaceOnUse"
       x1="98.062225"
       y1="446.86218"
       x2="-18.030045"
       y2="446.86218" />
  </defs>
  <sodipodi:namedview
     id="base"
     pagecolor="#ffffff"
     bordercolor="#666666"
     borderopacity="1.0"
     inkscape:pageopacity="0.0"
     inkscape:pageshadow="2"
     inkscape:zoom="1.4142136"
     inkscape:cx="52.473794"
     inkscape:cy="950.39342"
     inkscape:document-units="px"
     inkscape:current-layer="layer1"
     showgrid="false"
     showguides="true"
     inkscape:guide-bbox="true"
     inkscape:window-width="1280"
     inkscape:window-height="972"
     inkscape:window-x="-8"
     inkscape:window-y="-8"
     inkscape:window-maximized="1" />
  <metadata
     id="metadata7">
    <rdf:RDF>
      <cc:Work
         rdf:about="">
        <dc:format>image/svg+xml</dc:format>
        <dc:type
           rdf:resource="http://purl.org/dc/dcmitype/StillImage" />
        <dc:title></dc:title>
      </cc:Work>
    </rdf:RDF>
  </metadata>
  <g
     inkscape:label="Layer 1"
     inkscape:groupmode="layer"
     id="layer1">
    <g
       id="g4232"
       transform="translate(0.5,-363.67127)">
      <path
         inkscape:connector-curvature="0"
         id="path4188"
         d="m 0,364.17127 0,43.5625 0,75 0,43.53125 120.75,-44.25 10.625,-3.875 c 1.12204,-0.5945 2.2928,-1.11412 3.34375,-1.8125 2.02822,-1.3478 3.93158,-2.86596 5.65625,-4.5625 1.72467,-1.69654 3.28617,-3.56748 4.65625,-5.5625 1.37008,-1.99501 2.53556,-4.13178 3.5,-6.375 0.96444,-2.24322 1.71101,-4.59009 2.21875,-7.03125 0.50774,-2.44116 0.78125,-4.97366 0.78125,-7.5625 0,-2.58883 -0.27351,-5.12134 -0.78125,-7.5625 -0.50774,-2.44116 -1.25431,-4.78803 -2.21875,-7.03125 -0.96444,-2.24322 -2.12992,-4.37998 -3.5,-6.375 -1.37008,-1.99501 -2.93158,-3.86596 -4.65625,-5.5625 -1.72467,-1.69654 -3.62803,-3.21469 -5.65625,-4.5625 -1.07786,-0.71626 -2.28496,-1.23684 -3.4375,-1.84375 L 120.8125,408.45252 0,364.17127 z"
         style="fill:url(#linearGradient4237);fill-opacity:1;fill-rule:nonzero;stroke:#ff0000;stroke-opacity:0.79532166" />
      <path
         inkscape:connector-curvature="0"
         id="path4143"
         d="m 0,364.17127 0,32.6875 28.5625,10.15625 28.53125,10.125 -0.1875,0.0625 c 0.308492,0.0441 0.633401,0.0318 0.9375,0.0937 0.993595,0.20229 1.963,0.49054 2.875,0.875 0.912,0.38446 1.78346,0.85973 2.59375,1.40625 0.81029,0.54652 1.56154,1.15529 2.25,1.84375 0.68846,0.68846 1.29723,1.47096 1.84375,2.28125 0.54652,0.81029 1.02179,1.6505 1.40625,2.5625 0.38446,0.912 0.70396,1.88141 0.90625,2.875 C 69.92104,430.13361 70,431.1787 70,432.23377 l 0,25.9375 c 0,1.05507 -0.079,2.10015 -0.28125,3.09375 -0.20229,0.9936 -0.52179,1.93175 -0.90625,2.84375 -0.38446,0.912 -0.85973,1.78346 -1.40625,2.59375 -0.54652,0.81029 -1.15529,1.56154 -1.84375,2.25 -0.68846,0.68846 -1.43971,1.32848 -2.25,1.875 -0.81029,0.54652 -1.68175,1.02179 -2.59375,1.40625 -0.912,0.38446 -1.881405,0.67271 -2.875,0.875 -0.273996,0.0558 -0.566235,0.0523 -0.84375,0.0937 l 0.09375,0.0312 L 28.5625,483.39002 0,493.54627 l 0,32.71875 124.875,-45.8125 c -1.25869,0.3927 -2.46968,0.8923 -3.78125,1.15625 -2.48216,0.49953 -5.05495,0.78125 -7.6875,0.78125 l -4.84375,0 c -0.95991,-0.12299 -1.90786,-0.28042 -2.84375,-0.46875 -2.48238,-0.49953 -4.87515,-1.20745 -7.15625,-2.15625 -2.2811,-0.9488 -4.44005,-2.12095 -6.46875,-3.46875 -2.0287,-1.3478 -3.93106,-2.89721 -5.65625,-4.59375 -1.72519,-1.69654 -3.28569,-3.53624 -4.65625,-5.53125 -1.37056,-1.99501 -2.56643,-4.13178 -3.53125,-6.375 -0.96482,-2.24322 -1.71078,-4.59009 -2.21875,-7.03125 -0.50797,-2.44116 -0.75,-4.97367 -0.75,-7.5625 0,-2.58883 0.24203,-5.12134 0.75,-7.5625 0.50797,-2.44116 1.25393,-4.78803 2.21875,-7.03125 0.96482,-2.24322 2.16069,-4.37999 3.53125,-6.375 1.37056,-1.99501 2.93106,-3.86596 4.65625,-5.5625 1.72519,-1.69654 3.62755,-3.2147 5.65625,-4.5625 2.0287,-1.3478 4.18765,-2.51995 6.46875,-3.46875 2.2811,-0.9488 4.67387,-1.68797 7.15625,-2.1875 0.7936,-0.1597 1.5952,-0.26626 2.40625,-0.375 l 5.28125,0 c 2.63255,0 5.20534,0.25047 7.6875,0.75 1.21327,0.24417 2.33175,0.70792 3.5,1.0625 L 0,364.17127 z"
         style="fill:url(#radialGradient4239);fill-opacity:1;fill-rule:nonzero;stroke:#ff0000;stroke-width:1;stroke-miterlimit:4;stroke-opacity:0.79532166;stroke-dasharray:none" />
      <path
         d="m 1.25,398.625 0,93.1875 26.90625,-9.5625 28.03125,-9.96875 a 1.2375606,1.2375606 0 0 1 0.09375,-0.0625 A 1.2375606,1.2375606 0 0 1 56.8125,472 c 0.412826,-0.0616 0.685613,-0.0743 0.78125,-0.0937 0.922592,-0.18784 1.829471,-0.43272 2.65625,-0.78125 0.835634,-0.35227 1.62998,-0.81 2.375,-1.3125 0.732945,-0.49435 1.421163,-1.07741 2.0625,-1.71875 0.628098,-0.6281 1.180919,-1.31143 1.6875,-2.0625 0.502497,-0.74502 0.960233,-1.53937 1.3125,-2.375 0.36179,-0.85822 0.630647,-1.73178 0.8125,-2.625 0.18099,-0.8892 0.25,-1.85045 0.25,-2.84375 l 0,-25.9375 c 0,-0.99333 -0.06899,-1.95463 -0.25,-2.84375 -0.182865,-0.89818 -0.454642,-1.80735 -0.8125,-2.65625 -0.348337,-0.82631 -0.801756,-1.5865 -1.3125,-2.34375 -0.514828,-0.7633 -1.072641,-1.47889 -1.6875,-2.09375 -0.628098,-0.6281 -1.311426,-1.18092 -2.0625,-1.6875 -0.74502,-0.5025 -1.539366,-0.96023 -2.375,-1.3125 -0.826779,-0.34853 -1.733658,-0.59341 -2.65625,-0.78125 -0.104019,-0.0212 -0.414234,-0.0279 -0.875,-0.0937 A 1.2375606,1.2375606 0 0 1 56,418.0625 L 28.15625,408.1875 1.25,398.625 z"
         id="path4204"
         style="fill:url(#linearGradient4241);fill-opacity:1;fill-rule:nonzero;stroke:none"
         inkscape:original="M 0 396.875 L 0 493.5625 L 28.5625 483.40625 L 57.09375 473.25 L 57 473.21875 C 57.27751 473.17735 57.56975 473.1808 57.84375 473.125 C 58.83734 472.92271 59.80675 472.63446 60.71875 472.25 C 61.63075 471.86554 62.50221 471.39027 63.3125 470.84375 C 64.12279 470.29723 64.87404 469.65721 65.5625 468.96875 C 66.25096 468.28029 66.85973 467.52904 67.40625 466.71875 C 67.95277 465.90846 68.42804 465.037 68.8125 464.125 C 69.19696 463.213 69.51646 462.27485 69.71875 461.28125 C 69.921 460.2876 70 459.24257 70 458.1875 L 70 432.25 C 70 431.19493 69.92104 430.14989 69.71875 429.15625 C 69.51646 428.16266 69.19696 427.19325 68.8125 426.28125 C 68.42804 425.36925 67.95277 424.52904 67.40625 423.71875 C 66.85973 422.90846 66.25096 422.12596 65.5625 421.4375 C 64.87404 420.74904 64.12279 420.14027 63.3125 419.59375 C 62.50221 419.04723 61.63075 418.57196 60.71875 418.1875 C 59.80675 417.80304 58.83734 417.51479 57.84375 417.3125 C 57.53965 417.2506 57.21474 417.26285 56.90625 417.21875 L 57.09375 417.15625 L 28.5625 407.03125 L 0 396.875 z "
         inkscape:radius="-1.2374369"
         sodipodi:type="inkscape:offset" />
    </g>
  </g>
</svg>
