<?xml version="1.0" encoding="UTF-8" standalone="no"?>
<!-- Created with Inkscape (http://www.inkscape.org/) -->

<svg
   xmlns:osb="http://www.openswatchbook.org/uri/2009/osb"
   xmlns:dc="http://purl.org/dc/elements/1.1/"
   xmlns:cc="http://creativecommons.org/ns#"
   xmlns:rdf="http://www.w3.org/1999/02/22-rdf-syntax-ns#"
   xmlns:svg="http://www.w3.org/2000/svg"
   xmlns="http://www.w3.org/2000/svg"
   xmlns:xlink="http://www.w3.org/1999/xlink"
   xmlns:sodipodi="http://sodipodi.sourceforge.net/DTD/sodipodi-0.dtd"
   xmlns:inkscape="http://www.inkscape.org/namespaces/inkscape"
   width="744.09448819"
   height="1052.3622047"
   id="svg2"
   version="1.1"
   inkscape:version="0.48.2 r9819"
   sodipodi:docname="tower.svg">
  <defs
     id="defs4">
    <linearGradient
       inkscape:collect="always"
       id="linearGradient3820">
      <stop
         style="stop-color:#00ffff;stop-opacity:1;"
         offset="0"
         id="stop3822" />
      <stop
         style="stop-color:#00ffff;stop-opacity:0;"
         offset="1"
         id="stop3824" />
    </linearGradient>
    <inkscape:path-effect
       effect="spiro"
       id="path-effect3050"
       is_visible="true" />
    <linearGradient
       inkscape:collect="always"
       id="linearGradient4224">
      <stop
         style="stop-color:#000000;stop-opacity:1;"
         offset="0"
         id="stop4226" />
      <stop
         style="stop-color:#000000;stop-opacity:0;"
         offset="1"
         id="stop4228" />
    </linearGradient>
    <linearGradient
       id="linearGradient4214">
      <stop
         style="stop-color:#000000;stop-opacity:0.9375;"
         offset="0"
         id="stop4216" />
      <stop
         style="stop-color:#ff0000;stop-opacity:0.6964286;"
         offset="1"
         id="stop4218" />
    </linearGradient>
    <linearGradient
       inkscape:collect="always"
       id="linearGradient4206">
      <stop
         style="stop-color:#ff0000;stop-opacity:1;"
         offset="0"
         id="stop4208" />
      <stop
         style="stop-color:#000000;stop-opacity:1"
         offset="1"
         id="stop4210" />
    </linearGradient>
    <linearGradient
       id="linearGradient4032">
      <stop
         style="stop-color:#000000;stop-opacity:1;"
         offset="0"
         id="stop4034" />
      <stop
         style="stop-color:#000000;stop-opacity:0;"
         offset="1"
         id="stop4036" />
    </linearGradient>
    <linearGradient
       id="linearGradient4024">
      <stop
         style="stop-color:#000000;stop-opacity:1;"
         offset="0"
         id="stop4026" />
      <stop
         style="stop-color:#000000;stop-opacity:0.375;"
         offset="1"
         id="stop4028" />
    </linearGradient>
    <linearGradient
       id="linearGradient3964">
      <stop
         style="stop-color:#ff0000;stop-opacity:1;"
         offset="0"
         id="stop3966" />
      <stop
         style="stop-color:#000000;stop-opacity:1"
         offset="1"
         id="stop3968" />
    </linearGradient>
    <linearGradient
       id="linearGradient3908">
      <stop
         id="stop3910"
         offset="0"
         style="stop-color:#ff0000;stop-opacity:1" />
      <stop
         id="stop3912"
         offset="1"
         style="stop-color:#000000;stop-opacity:1;" />
    </linearGradient>
    <linearGradient
       id="linearGradient3896">
      <stop
         style="stop-color:#ff0000;stop-opacity:1;"
         offset="0"
         id="stop3898" />
      <stop
         style="stop-color:#ffffff;stop-opacity:0;"
         offset="1"
         id="stop3900" />
    </linearGradient>
    <inkscape:perspective
       sodipodi:type="inkscape:persp3d"
       inkscape:vp_x="0 : 526.18109 : 1"
       inkscape:vp_y="0 : 1000 : 0"
       inkscape:vp_z="744.09448 : 526.18109 : 1"
       inkscape:persp3d-origin="372.04724 : 350.78739 : 1"
       id="perspective3786" />
    <linearGradient
       inkscape:collect="always"
       id="linearGradient5303">
      <stop
         style="stop-color:#552200;stop-opacity:1;"
         offset="0"
         id="stop5305" />
      <stop
         style="stop-color:#552200;stop-opacity:0;"
         offset="1"
         id="stop5307" />
    </linearGradient>
    <linearGradient
       id="linearGradient5249">
      <stop
         id="stop5251"
         offset="0"
         style="stop-color:#ff4100;stop-opacity:1;" />
      <stop
         id="stop5253"
         offset="1"
         style="stop-color:#000000;stop-opacity:0;" />
    </linearGradient>
    <linearGradient
       id="linearGradient5209">
      <stop
         style="stop-color:#ff4400;stop-opacity:1;"
         offset="0"
         id="stop5211" />
      <stop
         style="stop-color:#000000;stop-opacity:0;"
         offset="1"
         id="stop5213" />
    </linearGradient>
    <linearGradient
       id="linearGradient5199"
       osb:paint="solid">
      <stop
         style="stop-color:#000000;stop-opacity:1;"
         offset="0"
         id="stop5201" />
    </linearGradient>
    <linearGradient
       id="linearGradient3017">
      <stop
         style="stop-color:#ffffff;stop-opacity:0;"
         offset="0"
         id="stop3019" />
      <stop
         style="stop-color:#000000;stop-opacity:1;"
         offset="1"
         id="stop3021" />
    </linearGradient>
    <linearGradient
       id="linearGradient3005">
      <stop
         style="stop-color:#959595;stop-opacity:0;"
         offset="0"
         id="stop3007" />
      <stop
         style="stop-color:#000000;stop-opacity:0.77477479;"
         offset="1"
         id="stop3009" />
    </linearGradient>
    <radialGradient
       inkscape:collect="always"
       xlink:href="#linearGradient3017"
       id="radialGradient3023"
       cx="235.04431"
       cy="214.2643"
       fx="235.04431"
       fy="214.2643"
       r="48.57143"
       gradientUnits="userSpaceOnUse"
       gradientTransform="matrix(1.7138792,1.8044531,-1.3970232,1.3268998,129.41985,-498.52045)" />
    <linearGradient
       inkscape:collect="always"
       xlink:href="#linearGradient5209"
       id="linearGradient5217"
       x1="139.92999"
       y1="486.64789"
       x2="616.80658"
       y2="501.34235"
       gradientUnits="userSpaceOnUse" />
    <radialGradient
       inkscape:collect="always"
       xlink:href="#linearGradient5209-8"
       id="radialGradient5247-6"
       cx="367.14285"
       cy="528.07648"
       fx="367.14285"
       fy="528.07648"
       r="118.57143"
       gradientTransform="matrix(1,0,0,3.6024097,0,-1374.2713)"
       gradientUnits="userSpaceOnUse"
       spreadMethod="pad" />
    <linearGradient
       id="linearGradient5209-8">
      <stop
         style="stop-color:#ff4100;stop-opacity:1;"
         offset="0"
         id="stop5211-8" />
      <stop
         style="stop-color:#000000;stop-opacity:0;"
         offset="1"
         id="stop5213-2" />
    </linearGradient>
    <radialGradient
       inkscape:collect="always"
       xlink:href="#linearGradient5303"
       id="radialGradient5311"
       cx="379.55341"
       cy="720.68396"
       fx="379.55341"
       fy="720.68396"
       r="123.23862"
       gradientTransform="matrix(1.4672132,0,0,1.1065161,-182.38309,-65.147731)"
       gradientUnits="userSpaceOnUse" />
    <radialGradient
       inkscape:collect="always"
       xlink:href="#linearGradient3964"
       id="radialGradient3974"
       cx="229.28572"
       cy="171.715"
       fx="229.28572"
       fy="171.715"
       r="75.765625"
       gradientTransform="matrix(1.0193175,1.3885464e-7,-9.3906064e-8,0.68935467,-219.06315,-80.456813)"
       gradientUnits="userSpaceOnUse" />
    <linearGradient
       inkscape:collect="always"
       xlink:href="#linearGradient4032"
       id="linearGradient4131"
       gradientUnits="userSpaceOnUse"
       gradientTransform="translate(-35.34375,-31.6254)"
       x1="116.19741"
       y1="287.17163"
       x2="10.253242"
       y2="287.17163" />
    <radialGradient
       inkscape:collect="always"
       xlink:href="#linearGradient3964"
       id="radialGradient4134"
       gradientUnits="userSpaceOnUse"
       gradientTransform="matrix(1.9694936,-3.7529599e-7,1.8235843e-7,0.95698803,-436.92497,91.50851)"
       cx="229.28572"
       cy="171.715"
       fx="229.28572"
       fy="171.715"
       r="75.765625" />
    <linearGradient
       inkscape:collect="always"
       xlink:href="#linearGradient4214"
       id="linearGradient4220"
       x1="98.062225"
       y1="446.86218"
       x2="-18.030045"
       y2="446.86218"
       gradientUnits="userSpaceOnUse" />
    <linearGradient
       inkscape:collect="always"
       xlink:href="#linearGradient4206"
       id="linearGradient4222"
       x1="269.50134"
       y1="442.86218"
       x2="-34.014557"
       y2="442.86218"
       gradientUnits="userSpaceOnUse" />
    <radialGradient
       inkscape:collect="always"
       xlink:href="#linearGradient4224"
       id="radialGradient4230"
       cx="107"
       cy="445.71524"
       fx="107"
       fy="445.71524"
       r="62.9375"
       gradientTransform="matrix(-1.512963,0,0,-1.1778279,268.88704,970.83804)"
       gradientUnits="userSpaceOnUse" />
    <radialGradient
       inkscape:collect="always"
       xlink:href="#linearGradient3820"
       id="radialGradient3826"
       cx="140.02685"
       cy="376.30815"
       fx="140.02685"
       fy="376.30815"
       r="78.8122"
       gradientTransform="matrix(1,0,0,3.9532839,-14.142135,-1162.2565)"
       gradientUnits="userSpaceOnUse" />
    <filter
       inkscape:collect="always"
       id="filter3828"
       x="-0.29832839"
       width="1.5966568"
       y="-0.075105209"
       height="1.1502104">
      <feGaussianBlur
         inkscape:collect="always"
         stdDeviation="19.46896"
         id="feGaussianBlur3830" />
    </filter>
  </defs>
  <sodipodi:namedview
     id="base"
     pagecolor="#ffffff"
     bordercolor="#666666"
     borderopacity="1.0"
     inkscape:pageopacity="0.0"
     inkscape:pageshadow="2"
     inkscape:zoom="0.3535534"
     inkscape:cx="-178.23685"
     inkscape:cy="875.48518"
     inkscape:document-units="px"
     inkscape:current-layer="layer1"
     showgrid="false"
     showguides="true"
     inkscape:guide-bbox="true"
     inkscape:window-width="1440"
     inkscape:window-height="848"
     inkscape:window-x="-8"
     inkscape:window-y="-8"
     inkscape:window-maximized="1" />
  <metadata
     id="metadata7">
    <rdf:RDF>
      <cc:Work
         rdf:about="">
        <dc:format>image/svg+xml</dc:format>
        <dc:type
           rdf:resource="http://purl.org/dc/dcmitype/StillImage" />
        <dc:title></dc:title>
      </cc:Work>
    </rdf:RDF>
  </metadata>
  <g
     inkscape:label="Layer 1"
     inkscape:groupmode="layer"
     id="layer1">
    <path
       style="fill:url(#radialGradient3826);fill-opacity:1;stroke:#000000;stroke-width:1px;stroke-linecap:butt;stroke-linejoin:miter;stroke-opacity:1;filter:url(#filter3828)"
       d="m 144.24977,14.329456 c -2.63118,1.250154 -4.88027,3.291294 -6.37903,5.789233 -1.49877,2.49794 -2.24138,5.442966 -2.10625,8.352903 0.0439,0.944431 0.17692,1.899679 0,2.828427 -0.25756,1.352064 -1.15358,2.508709 -2.20965,3.391391 -1.05607,0.882681 -2.27961,1.536665 -3.4472,2.265463 -0.57497,0.358892 -1.14056,0.739088 -1.63849,1.198945 -0.49792,0.459856 -0.9285,1.004148 -1.18994,1.629482 -0.31653,0.757094 -0.37257,1.597741 -0.34737,2.417953 0.0252,0.820213 0.12737,1.638231 0.1105,2.458657 -0.0169,0.820426 -0.16169,1.660376 -0.59048,2.360034 -0.2144,0.349828 -0.49876,0.659538 -0.84261,0.883394 -0.34385,0.223856 -0.7482,0.359614 -1.15846,0.365243 -0.48783,0.0067 -0.95799,-0.166025 -1.43805,-0.252942 -0.24004,-0.04346 -0.48633,-0.0655 -0.72803,-0.03253 -0.2417,0.03296 -0.47965,0.123842 -0.66235,0.285472 -0.18659,0.165066 -0.30705,0.396867 -0.36281,0.639669 -0.0558,0.242802 -0.0499,0.496594 -0.0116,0.742758 0.0765,0.492327 0.27937,0.9569 0.37441,1.445995 0.20988,1.080011 -0.12544,2.208819 -0.69371,3.150916 -0.56826,0.942097 -1.35591,1.728814 -2.13472,2.505944 -0.94383,0.941794 -1.88664,1.884604 -2.82843,2.82843 -0.66891,2.006726 -1.62439,3.917688 -2.82842,5.65685 -1.52611,2.204378 -3.45248,4.130746 -5.65686,5.65685 0.82075,1.919023 0.99531,4.107829 0.4891,6.132681 -0.50621,2.024852 -1.69026,3.874006 -3.31752,5.181029 -1.07283,0.861703 -2.31844,1.485135 -3.41108,2.32158 -0.54631,0.418222 -1.05576,0.892204 -1.458668,1.449914 -0.402906,0.55771 -0.696897,1.203284 -0.787107,1.885366 -0.123855,0.936473 0.137185,1.893807 0,2.82842 -0.103749,0.706824 -0.440673,1.377446 -0.945829,1.882601 -0.505155,0.505156 -1.175777,0.84208 -1.882601,0.945829 3e-6,3.033491 -1.008326,6.058483 -2.82842,8.485277 -0.802691,1.07026 -1.758174,2.02574 -2.82843,2.82843 l -2.82843,5.65685 c 0.286603,0.41184 0.443655,0.91247 0.443655,1.41422 0,0.50174 -0.157052,1.00237 -0.443655,1.41421 -0.386094,0.5548 -0.976674,0.92459 -1.524599,1.32039 -0.273963,0.1979 -0.542044,0.40685 -0.773033,0.65355 -0.230989,0.24671 -0.424829,0.53357 -0.530791,0.85449 -0.157966,0.47842 -0.111752,1.00297 0.01555,1.49045 0.127301,0.48748 0.332172,0.95073 0.493792,1.42793 0.161621,0.4772 0.280975,0.98104 0.227898,1.48207 -0.02654,0.25051 -0.09691,0.49781 -0.219954,0.71763 -0.123045,0.21982 -0.299922,0.41144 -0.517284,0.53877 -0.207001,0.12127 -0.445627,0.18195 -0.684812,0.20054 -0.239184,0.0186 -0.479839,-0.004 -0.717082,-0.0392 -0.474487,-0.0713 -0.948049,-0.19703 -1.426533,-0.16135 -0.406695,0.0303 -0.801241,0.17893 -1.13902,0.40746 -0.337778,0.22853 -0.619623,0.53532 -0.836952,0.88041 -0.434656,0.69019 -0.60691,1.51683 -0.650499,2.33131 -0.04359,0.81448 0.03334,1.62997 0.05724,2.44527 0.02389,0.8153 -0.0075,1.64499 -0.259192,2.42083 -0.427135,1.31653 -1.511898,2.40129 -2.828428,2.82843 l -2.828427,5.65685 c 0.395094,0.88696 0.395094,1.94147 0,2.82843 -0.275762,0.61907 -0.728273,1.14616 -1.238868,1.59178 -0.510594,0.44563 -1.081113,0.81628 -1.646132,1.1905 -0.565018,0.37423 -1.129407,0.7558 -1.623417,1.21974 -0.49401,0.46395 -0.918513,1.01732 -1.148437,1.65483 -0.352114,0.97631 -0.220155,2.06747 0.097,3.0557 0.317154,0.98822 0.809758,1.91004 1.192032,2.87495 0.382274,0.9649 0.656391,2.0089 0.505236,3.0357 -0.07558,0.5134 -0.259747,1.01481 -0.565098,1.4344 -0.305352,0.41959 -0.735166,0.75404 -1.229168,0.91296 -0.451569,0.14527 -0.937202,0.14163 -1.409933,0.10235 -0.472731,-0.0393 -0.944249,-0.11281 -1.418494,-0.10235 -1.179441,0.026 -2.318969,0.58922 -3.129059,1.44684 -0.81009,0.85762 -1.300475,1.99111 -1.470682,3.1585 -0.170206,1.16738 -0.03148,2.36722 0.30319,3.49848 0.334666,1.13127 0.861252,2.19823 1.468124,3.20989 0.567346,0.94577 1.221664,1.88626 1.393342,2.97571 0.08584,0.54473 0.04141,1.11922 -0.192435,1.61863 -0.233842,0.49941 -0.669518,0.91515 -1.200907,1.06252 -0.458265,0.12709 -0.945045,0.0526 -1.415479,-0.0171 -0.470433,-0.0696 -0.961377,-0.13204 -1.412948,0.0171 -0.370285,0.1223 -0.68783,0.38365 -0.90447,0.7079 -0.216641,0.32424 -0.335467,0.7085 -0.370279,1.09691 -0.06962,0.7768 0.186935,1.54597 0.505263,2.25796 0.318328,0.712 0.703741,1.39939 0.917529,2.14943 0.106894,0.37502 0.169745,0.76499 0.154763,1.15466 -0.01498,0.38967 -0.10983,0.77956 -0.302806,1.11842 -0.334441,0.58727 -0.925682,0.97237 -1.479703,1.35941 -0.277011,0.19352 -0.551159,0.39402 -0.790295,0.63276 -0.239137,0.23874 -0.443472,0.51849 -0.558429,0.83625 -0.171313,0.47353 -0.133448,1.00007 -0.0096,1.48818 0.123808,0.48812 0.32932,0.95102 0.49365,1.42702 0.164331,0.476 0.288729,0.97818 0.240916,1.47947 -0.02391,0.25065 -0.09164,0.49857 -0.212496,0.71946 -0.120859,0.22088 -0.296043,0.414 -0.51243,0.54273 -0.206281,0.12272 -0.444846,0.18457 -0.684097,0.20384 -0.23925,0.0193 -0.480092,-0.003 -0.717438,-0.0384 -0.474692,-0.0715 -0.948009,-0.1989 -1.426892,-0.16544 -0.540167,0.0377 -1.057014,0.28509 -1.451513,0.656 -0.394499,0.37091 -0.66938,0.86012 -0.817887,1.38084 -0.297014,1.04144 -0.09394,2.16679 0.28714,3.18049 0.381084,1.0137 0.933447,1.95369 1.366294,2.94639 0.432846,0.99271 0.748902,2.07521 0.615966,3.14999 -0.130349,1.05386 -0.678672,2.00617 -1.261539,2.8938 -0.582868,0.88762 -1.219901,1.75945 -1.566888,2.76305 -0.39839,1.15228 -0.387465,2.41157 -0.192666,3.61511 0.194799,1.20354 0.566341,2.37004 0.879623,3.54831 0.313282,1.17827 0.570521,2.38704 0.528282,3.60552 -0.04224,1.21847 -0.408472,2.45909 -1.215239,3.37319 -0.444846,0.50403 -1.003967,0.89059 -1.527023,1.3129 -0.523056,0.42231 -1.02697,0.90184 -1.301404,1.51553 -0.194072,0.43399 -0.263741,0.91488 -0.271201,1.39022 -0.0075,0.47535 0.04405,0.94948 0.09765,1.42185 0.107202,0.94474 0.173547,1.89398 0.173547,2.84479 0,5.65685 0,11.31371 0,16.97056 0,15.08494 0,30.16989 0,45.25483 0,24.51303 0,49.02607 0,73.5391 0,6.59966 0,13.19933 0,19.79899 0,1.43307 -0.125044,2.86242 -0.326442,4.28127 -0.100699,0.70942 -0.197448,1.42301 -0.182884,2.13939 0.01456,0.71639 0.148846,1.44537 0.509326,2.06462 0.336914,0.57877 0.851704,1.03006 1.3697,1.45452 0.517996,0.42446 1.054935,0.83965 1.458727,1.37391 0.583785,0.77241 0.84972,1.75063 0.891795,2.71793 0.04208,0.96729 -0.126479,1.93147 -0.340494,2.87573 -0.214016,0.94426 -0.474437,1.87956 -0.620911,2.83663 -0.146473,0.95707 -0.176045,1.94689 0.06961,2.88342 0.218249,0.83205 0.647434,1.59675 1.160474,2.2872 0.51304,0.69046 1.110627,1.31292 1.703968,1.93573 0.59334,0.6228 1.186183,1.2504 1.688046,1.94902 0.501864,0.69862 0.913003,1.47469 1.104366,2.31333 0.211041,0.92488 0.148192,1.89143 0,2.82843 -0.227263,1.43697 -0.651663,2.84102 -0.806021,4.28764 -0.07718,0.7233 -0.08589,1.4576 0.03219,2.17537 0.118075,0.71777 0.366056,1.4199 0.773835,2.02227 0.749237,1.10677 1.97336,1.80122 2.828427,2.82843 0.961994,1.15566 1.396171,2.65512 1.703162,4.12711 0.306992,1.47198 0.517078,2.983 1.125265,4.35817 0.428796,0.96955 1.043425,1.84284 1.597951,2.74638 0.554526,0.90355 1.059209,1.86426 1.230476,2.91047 0.152621,0.93231 0.03314,1.88429 0,2.82843 -0.1376,3.92006 1.219101,7.73657 2.828427,11.31371 0.865193,1.92311 1.809053,3.81083 2.828427,5.65685 2.453833,1.17075 4.4861,3.20302 5.656854,5.65685 1.039189,2.17808 1.396495,4.61186 1.657644,7.01097 0.26115,2.39912 0.4434,4.83011 1.170784,7.13117 1.273054,4.02727 4.123143,7.37832 5.656854,11.31371 1.083991,2.78144 1.494004,5.81493 2.828423,8.48528 1.056811,2.11482 2.647289,3.9081 4.22452,5.66925 1.577232,1.76115 3.177772,3.54292 4.26076,5.64446 1.172773,2.27576 1.68573,4.82172 2.356639,7.29243 0.670909,2.4707 1.556906,4.97477 3.300216,6.8497 0.90909,0.97773 2.02972,1.75864 2.82843,2.82843 0.72964,0.97727 1.15567,2.15503 1.38329,3.3532 0.22763,1.19817 0.2655,2.42362 0.28071,3.64313 0.0152,1.2195 0.009,2.44247 0.14915,3.65394 0.14058,1.21147 0.4339,2.41975 1.01527,3.49187 0.64449,1.18852 1.63991,2.18394 2.82843,2.82842 2.41883,3.47159 4.33088,7.29569 5.65685,11.31371 0.80101,2.42727 1.38844,4.92109 2.19614,7.34614 0.8077,2.42504 1.85372,4.80834 3.46072,6.796 0.8394,1.03823 1.81983,1.95365 2.82843,2.82842 1.33373,1.15676 2.73375,2.26001 3.83998,3.63594 0.55312,0.68796 1.02963,1.44284 1.35789,2.26228 0.32825,0.81944 0.50562,1.70555 0.45898,2.58706 -0.0252,0.47567 -0.11469,0.94571 -0.15305,1.42049 -0.0384,0.47478 -0.023,0.96535 0.15305,1.40794 0.2491,0.62614 0.78809,1.08581 1.32904,1.48765 0.54095,0.40183 1.11711,0.78583 1.49939,1.34078 0.31963,0.46401 0.48189,1.01885 0.58091,1.57352 0.099,0.55468 0.13978,1.11864 0.24296,1.67256 0.10319,0.55391 0.27412,1.10708 0.60412,1.56378 0.16499,0.22835 0.36901,0.43012 0.60747,0.58014 0.23845,0.15002 0.51192,0.24728 0.79296,0.26685 0.49139,0.0342 0.96464,-0.16501 1.44562,-0.27129 0.24049,-0.0531 0.48938,-0.0833 0.73325,-0.0489 0.24388,0.0344 0.48369,0.1381 0.64956,0.32016 0.16422,0.18024 0.24523,0.42502 0.26219,0.66827 0.017,0.24324 -0.0257,0.48683 -0.0832,0.72379 -0.0575,0.23697 -0.13002,0.47048 -0.17459,0.71021 -0.0446,0.23972 -0.0605,0.48886 -0.004,0.72616 0.0792,0.33505 0.29759,0.62401 0.55897,0.84808 0.26139,0.22407 0.56598,0.39078 0.8675,0.55698 0.30151,0.16619 0.60505,0.33539 0.86298,0.56343 0.25793,0.22803 0.47006,0.52263 0.53898,0.85994 0.0493,0.24115 0.0235,0.49201 -0.0299,0.73228 -0.0534,0.24027 -0.13386,0.47364 -0.19538,0.71196 -0.0615,0.23831 -0.1042,0.48525 -0.0797,0.73016 0.0245,0.24491 0.12204,0.48939 0.30501,0.65402 0.18168,0.16347 0.43218,0.23491 0.67654,0.23923 0.24436,0.004 0.48548,-0.053 0.72055,-0.11985 0.23506,-0.0669 0.46833,-0.14401 0.7099,-0.18105 0.24158,-0.037 0.49567,-0.0319 0.72143,0.0617 0.24404,0.10118 0.44036,0.30237 0.55762,0.53911 0.11725,0.23673 0.15866,0.50682 0.14253,0.77051 -0.0323,0.52737 -0.28348,1.01383 -0.5425,1.47435 -0.25903,0.46051 -0.536,0.92607 -0.62855,1.44626 -0.0463,0.2601 -0.0441,0.5315 0.0308,0.78484 0.0749,0.25334 0.22555,0.48765 0.4401,0.64179 0.19609,0.14087 0.4372,0.21004 0.678,0.22767 0.2408,0.0176 0.48266,-0.0138 0.71978,-0.0593 0.47424,-0.091 0.95297,-0.23917 1.43065,-0.16839 0.3386,0.0502 0.65483,0.20985 0.92312,0.42241 0.26829,0.21256 0.49157,0.4768 0.69153,0.75462 0.39991,0.55563 0.71894,1.17833 1.21378,1.65139 0.49992,0.47792 1.14486,0.77002 1.71096,1.16735 0.28305,0.19867 0.54943,0.42686 0.75463,0.70521 0.2052,0.27835 0.34704,0.61042 0.36284,0.95587 0.0115,0.2505 -0.0428,0.49957 -0.11421,0.73996 -0.0714,0.24039 -0.1602,0.47569 -0.22076,0.71903 -0.0606,0.24335 -0.0924,0.49838 -0.0475,0.74509 0.0449,0.24672 0.17376,0.48531 0.38245,0.62435 0.2061,0.13731 0.4692,0.16562 0.71462,0.13242 0.24541,-0.0332 0.47908,-0.1226 0.71252,-0.2053 0.23344,-0.0827 0.47309,-0.16005 0.72063,-0.16753 0.12377,-0.004 0.24871,0.0104 0.36631,0.0491 0.1176,0.0388 0.22774,0.10275 0.31434,0.19126 0.0867,0.0886 0.14824,0.20015 0.18456,0.31862 0.0363,0.11847 0.0479,0.24374 0.0419,0.3675 -0.012,0.24754 -0.0927,0.48604 -0.17688,0.71915 -0.0841,0.2331 -0.17308,0.46747 -0.2026,0.71352 -0.0148,0.12303 -0.0143,0.24847 0.009,0.37013 0.0235,0.12166 0.0706,0.23957 0.14383,0.33951 0.0736,0.10035 0.17246,0.18108 0.28277,0.23864 0.11031,0.0575 0.23182,0.0923 0.35523,0.10809 0.24683,0.0316 0.49754,-0.0121 0.73741,-0.0783 0.23986,-0.0662 0.47317,-0.15507 0.71419,-0.21694 0.24103,-0.0619 0.49407,-0.0964 0.73883,-0.0515 0.33941,0.0623 0.637,0.27386 0.865,0.53287 0.22801,0.25901 0.39481,0.56504 0.55846,0.86884 0.16365,0.3038 0.3279,0.61087 0.55186,0.87339 0.22396,0.26252 0.5158,0.48057 0.85311,0.55332 0.24046,0.0519 0.49155,0.0278 0.73187,-0.0247 0.24033,-0.0525 0.47363,-0.1328 0.71171,-0.19465 0.23809,-0.0619 0.48468,-0.1054 0.72956,-0.0821 0.24488,0.0233 0.48973,0.11948 0.65528,0.30143 0.16451,0.18081 0.23726,0.43105 0.24256,0.67544 0.005,0.24439 -0.0513,0.48578 -0.11797,0.72096 -0.0667,0.23518 -0.14398,0.46839 -0.18184,0.70989 -0.0379,0.2415 -0.0343,0.49548 0.0572,0.72214 0.0985,0.24397 0.29584,0.44208 0.52957,0.56291 0.23373,0.12084 0.50174,0.16744 0.76464,0.15677 0.5258,-0.0213 1.0157,-0.26124 1.47757,-0.51342 0.46187,-0.25218 0.92522,-0.52585 1.44192,-0.62557 0.25835,-0.0499 0.52801,-0.0542 0.78282,0.0114 0.2548,0.0656 0.49407,0.20393 0.66034,0.40786 0.15365,0.18846 0.24003,0.42575 0.27257,0.66672 0.0325,0.24097 0.0136,0.48638 -0.0262,0.72626 -0.0796,0.47976 -0.24246,0.94915 -0.24639,1.43545 -0.004,0.55396 0.20456,1.10131 0.55019,1.53425 0.34562,0.43294 0.82243,0.75348 1.34241,0.94458 1.03995,0.3822 2.2086,0.24714 3.25792,-0.10854 1.04932,-0.35568 2.01344,-0.9188 3.00715,-1.40882 0.99372,-0.49001 2.04904,-0.91522 3.15604,-0.96147 0.94462,-0.0395 1.90399,0.19821 2.82842,0 0.66993,-0.14364 1.28133,-0.51466 1.75714,-1.00766 0.47581,-0.493 0.82003,-1.104 1.04644,-1.75067 0.4528,-1.29335 0.43932,-2.69826 0.38193,-4.06738 -0.0574,-1.36912 -0.15182,-2.7587 0.15203,-4.0949 0.15193,-0.66811 0.405,-1.31801 0.79068,-1.8843 0.38569,-0.5663 0.90803,-1.04691 1.52864,-1.33723 0.88186,-0.41253 1.94656,-0.41253 2.82842,0 2.20697,-2.17003 3.29198,-5.42507 2.82843,-8.48528 -0.14532,-0.95936 -0.43224,-1.89507 -0.53864,-2.85952 -0.0532,-0.48223 -0.0606,-0.97208 0.0179,-1.45083 0.0786,-0.47874 0.24539,-0.94703 0.52071,-1.3465 0.38169,-0.5538 0.94748,-0.94743 1.48324,-1.35406 0.53575,-0.40663 1.07059,-0.86038 1.34519,-1.47437 0.19626,-0.43883 0.24479,-0.93216 0.21361,-1.41187 -0.0312,-0.47971 -0.13876,-0.95072 -0.2435,-1.41989 -0.10474,-0.46918 -0.20737,-0.94172 -0.22835,-1.42198 -0.021,-0.48027 0.0435,-0.97302 0.25824,-1.40312 0.30066,-0.60223 0.86112,-1.02533 1.40464,-1.4224 0.54351,-0.39708 1.10806,-0.81156 1.42379,-1.40602 0.22365,-0.42109 0.30577,-0.90511 0.31463,-1.38182 0.009,-0.47672 -0.0509,-0.95181 -0.1131,-1.42453 -0.12439,-0.94545 -0.20153,-1.89692 -0.20153,-2.85051 0,-1.88562 0,-3.77123 0,-5.65685 0,-6.59966 0,-13.19933 0,-19.79899 0,-20.7418 0,-41.48359 0,-62.22539 0,-20.7418 0,-41.4836 0,-62.2254 0,-6.59966 0,-13.19933 0,-19.79899 0,-1.92069 0.1974,-3.83445 0.51424,-5.72883 0.15841,-0.94718 0.31056,-1.90216 0.28671,-2.8622 -0.0239,-0.96005 -0.24089,-1.94256 -0.80095,-2.72268 -0.39058,-0.54405 -0.92701,-0.96251 -1.44684,-1.3848 -0.51982,-0.42229 -1.04022,-0.86742 -1.38159,-1.44362 -0.36536,-0.61671 -0.50187,-1.34629 -0.51669,-2.06295 -0.0148,-0.71665 0.0833,-1.43043 0.18549,-2.13993 0.20431,-1.41899 0.3312,-2.84879 0.3312,-4.28241 0,-5.65685 0,-11.31371 0,-16.97056 0,-16.97056 0,-33.94112 0,-50.91168 0,-2.84943 -0.18613,-5.69475 -0.4871,-8.52824 -0.15048,-1.41675 -0.29512,-2.8381 -0.27435,-4.26266 0.0208,-1.42457 0.21525,-2.86381 0.76145,-4.17967 0.58118,-1.40015 1.51067,-2.63411 2.09453,-4.03315 0.58387,-1.39903 0.7339,-2.93615 0.7339,-4.45213 0,-45.25483 0,-90.50967 0,-135.7645 0,-13.19932 0,-26.39865 0,-39.59797 0,-1.83623 0.064,-3.68369 0.45797,-5.47716 0.394,-1.79347 1.09655,-3.50078 1.76534,-5.21089 0.66878,-1.71011 1.3042,-3.51205 1.12401,-5.33942 -0.0901,-0.91369 -0.40053,-1.82027 -0.98108,-2.53154 -0.58054,-0.71127 -1.44862,-1.20965 -2.36624,-1.23998 -0.47737,-0.0158 -0.94907,0.0912 -1.42327,0.14829 -0.4742,0.0571 -0.97541,0.0601 -1.40516,-0.14829 -0.33721,-0.16355 -0.60712,-0.44983 -0.78302,-0.78076 -0.17589,-0.33094 -0.26177,-0.70494 -0.28292,-1.07911 -0.0423,-0.74836 0.16019,-1.48716 0.3718,-2.20622 0.21161,-0.71907 0.43074,-1.43835 0.55277,-2.1779 0.12203,-0.73955 0.14137,-1.491746 0.14137,-2.241297 0,-6.59966 0,-13.19932 0,-19.79898 0,-0.94281 0,-1.88562 0,-2.82843 0,-0.473387 0.0233,-0.946387 0.0611,-1.418265 0.0378,-0.471878 0.077,-0.957375 -0.0611,-1.410165 -0.0987,-0.323634 -0.28775,-0.614608 -0.51587,-0.864497 -0.22812,-0.249889 -0.49515,-0.46113 -0.76922,-0.659547 -0.54814,-0.396833 -1.14243,-0.759221 -1.54334,-1.304386 -0.427,-0.58064 -0.59331,-1.318524 -0.61163,-2.039036 -0.0183,-0.720512 0.0979,-1.437093 0.21885,-2.147613 0.24196,-1.421038 0.39278,-2.857141 0.39278,-4.298631 l 0,-2.82842 c 0,-0.483251 0.0575,-0.964155 0.14949,-1.438577 0.046,-0.237211 0.0901,-0.477073 0.0829,-0.718589 -0.007,-0.241516 -0.0723,-0.490216 -0.23234,-0.671264 -0.16319,-0.184643 -0.41051,-0.279775 -0.65617,-0.299122 -0.24566,-0.01935 -0.49168,0.03036 -0.72898,0.09681 -0.23729,0.06646 -0.47011,0.149987 -0.71123,0.200874 -0.24111,0.05089 -0.49481,0.06807 -0.73205,0.0014 -0.25125,-0.07057 -0.47221,-0.234026 -0.62872,-0.442859 -0.1565,-0.208833 -0.25035,-0.461108 -0.28766,-0.7194 -0.0746,-0.516584 0.0717,-1.040557 0.2719,-1.522587 0.20018,-0.482031 0.45573,-0.941843 0.617,-1.438246 0.0806,-0.248202 0.1373,-0.505512 0.14857,-0.76624 0.0113,-0.260728 -0.0238,-0.525356 -0.12109,-0.767528 -0.10326,-0.257115 -0.27494,-0.48418 -0.4829,-0.667277 -0.20796,-0.183097 -0.45156,-0.32323 -0.70813,-0.427844 -0.51313,-0.209227 -1.07119,-0.276723 -1.62172,-0.339994 -0.55053,-0.06327 -1.10855,-0.126008 -1.62506,-0.326754 -0.25825,-0.100373 -0.50453,-0.235363 -0.71694,-0.413265 -0.21242,-0.177902 -0.39043,-0.399714 -0.5021,-0.653288 -0.20589,-0.467516 -0.1737,-1.00935 -0.0396,-1.502276 0.13412,-0.492927 0.36334,-0.95377 0.54886,-1.429738 0.18552,-0.475967 0.32936,-0.983721 0.27999,-1.492175 -0.0247,-0.254227 -0.0988,-0.505462 -0.23152,-0.723686 -0.13274,-0.218224 -0.32568,-0.402259 -0.55774,-0.508979 -0.21778,-0.100153 -0.46266,-0.13005 -0.70218,-0.120521 -0.23952,0.0095 -0.47574,0.05694 -0.71048,0.105464 -0.23474,0.04852 -0.47025,0.09844 -0.70951,0.113084 -0.23925,0.01465 -0.4844,-0.0073 -0.70626,-0.09803 -0.23751,-0.09715 -0.44037,-0.271277 -0.58599,-0.482569 -0.14562,-0.211291 -0.23532,-0.45858 -0.27539,-0.712046 -0.0801,-0.50693 0.0351,-1.025691 0.20594,-1.50966 0.1708,-0.483969 0.39731,-0.94758 0.55173,-1.437022 0.15443,-0.489443 0.23453,-1.019284 0.10371,-1.515557 -0.0865,-0.32812 -0.26231,-0.628207 -0.48057,-0.888032 -0.21825,-0.259825 -0.47848,-0.481442 -0.74973,-0.685317 -0.5425,-0.407751 -1.13974,-0.754619 -1.59812,-1.255078 -0.46659,-0.509419 -0.76265,-1.149173 -1.16494,-1.710754 -0.20115,-0.28079 -0.43154,-0.544428 -0.71016,-0.748576 -0.27861,-0.204148 -0.60864,-0.346889 -0.95333,-0.369097 -0.4945,-0.03186 -0.96733,0.180625 -1.45004,0.29258 -0.24136,0.05598 -0.49223,0.08706 -0.73709,0.04928 -0.24487,-0.03778 -0.48449,-0.150031 -0.6413,-0.341859 -0.15424,-0.188688 -0.21711,-0.439474 -0.21685,-0.683181 2.6e-4,-0.243707 0.0588,-0.483396 0.12464,-0.718037 0.0658,-0.234642 0.13967,-0.468352 0.17182,-0.709928 0.0322,-0.241576 0.0204,-0.495028 -0.0796,-0.717281 -0.10939,-0.24316 -0.3203,-0.433839 -0.56403,-0.541959 -0.24373,-0.108119 -0.5181,-0.137283 -0.78321,-0.10888 -0.53023,0.0568 -1.00893,0.331536 -1.46729,0.604061 -0.45837,0.272524 -0.9305,0.554869 -1.45847,0.629803 -0.26399,0.03747 -0.53878,0.02015 -0.78774,-0.07531 -0.24896,-0.09546 -0.47033,-0.272619 -0.59611,-0.507718 -0.11396,-0.212995 -0.14543,-0.462344 -0.13023,-0.703429 0.0152,-0.241084 0.0746,-0.476911 0.13347,-0.711191 0.0589,-0.234281 0.11774,-0.470295 0.13183,-0.711447 0.0141,-0.241153 -0.0191,-0.490426 -0.13507,-0.70236 -0.12881,-0.235509 -0.35452,-0.410883 -0.60679,-0.502613 -0.25228,-0.09173 -0.52934,-0.103597 -0.79428,-0.06042 -0.52987,0.08635 -0.99895,0.380552 -1.45711,0.660401 -0.45816,0.279849 -0.94132,0.558212 -1.47601,0.606514 -0.26734,0.02415 -0.54346,-0.01262 -0.78448,-0.130804 -0.24101,-0.118188 -0.44423,-0.321623 -0.53819,-0.573074 -0.0868,-0.232233 -0.0776,-0.49068 -0.0268,-0.733329 0.0508,-0.242649 0.14137,-0.474845 0.21583,-0.711316 0.0745,-0.236472 0.13346,-0.482541 0.11809,-0.729982 -0.008,-0.12372 -0.0343,-0.246853 -0.0848,-0.360028 -0.0506,-0.113175 -0.12559,-0.216211 -0.22229,-0.293772 -0.0971,-0.0779 -0.21446,-0.128841 -0.33624,-0.154764 -0.12178,-0.02592 -0.248,-0.02738 -0.37163,-0.01262 -0.24726,0.02953 -0.4818,0.122401 -0.71459,0.210838 -0.23278,0.08844 -0.47115,0.174145 -0.71977,0.188217 -0.12431,0.007 -0.25037,-0.0043 -0.36919,-0.04147 -0.11883,-0.03718 -0.23032,-0.100831 -0.317,-0.190208 -0.0869,-0.08956 -0.14714,-0.203206 -0.18079,-0.32335 -0.0337,-0.120143 -0.0413,-0.246693 -0.031,-0.371034 0.0206,-0.248681 0.11144,-0.485456 0.2021,-0.717942 0.0907,-0.232487 0.18304,-0.468385 0.20715,-0.716754 0.0121,-0.124185 0.007,-0.250774 -0.0245,-0.371594 -0.0311,-0.12082 -0.0886,-0.235806 -0.17291,-0.327754 -0.0823,-0.08971 -0.18853,-0.155803 -0.30255,-0.198457 -0.11401,-0.04265 -0.23576,-0.0625 -0.35741,-0.06689 -0.2433,-0.0088 -0.48453,0.04162 -0.72226,0.09417 -0.47545,0.105085 -0.95928,0.171179 -1.44621,0.171179 l -2.82843,0"
       id="path3048"
       inkscape:path-effect="#path-effect3050"
       inkscape:original-d="m 144.24977,14.329456 c -9.05096,12.067956 -8.48528,6.599663 -8.48528,14.142136 0,0.942809 0.52298,2.043962 0,2.828427 -1.4792,2.2188 -3.77123,3.771236 -5.65685,5.656854 -0.94281,0.942809 -2.23214,1.635857 -2.82843,2.828427 -1.33333,2.666666 -1.17463,6.004586 -2.82842,8.485281 -0.52298,0.784464 -2.16177,-0.666667 -2.82843,0 -0.66667,0.666667 0.29814,1.934002 0,2.828422 -0.66667,2 -1.65902,3.90274 -2.82843,5.65686 -0.7396,1.1094 -1.88562,1.88562 -2.82843,2.82843 -0.9428,1.88561 -1.65901,3.90273 -2.82842,5.65685 -1.4792,2.2188 -4.17766,3.43805 -5.65686,5.65685 -5.61535,2.54913 -1.08997,7.8368 -2.82842,11.31371 -1.19257,2.38514 -4.17766,3.43806 -5.656855,5.65686 -0.52297,0.78446 0.42164,1.98515 0,2.82842 -0.59628,1.19257 -2.08882,1.71903 -2.82843,2.82843 -6.23148,1.42438 -1.49509,5.81862 -2.82842,8.485277 -0.59629,1.19257 -2.08883,1.71903 -2.82843,2.82843 -0.94281,1.88562 -1.88562,3.77123 -2.82843,5.65685 0,0.94281 0.42164,1.98516 0,2.82843 -0.59628,1.19257 -2.406786,1.56352 -2.828423,2.82843 -0.596285,1.78885 0.843274,3.9703 0,5.65685 -0.421637,0.84328 -2.161761,-0.66667 -2.828427,0 -11.038601,11.0386 0.654712,1.519 -2.828427,8.48528 -0.596285,1.19257 -2.088827,1.71903 -2.828428,2.82843 -0.942809,1.88562 -1.885618,3.77124 -2.828427,5.65685 0,0.94281 0.421637,1.98516 0,2.82843 -1.192569,2.38514 -4.464284,3.27172 -5.656854,5.65685 -0.875982,1.75197 0.836881,10.47683 0,11.31371 -0.666666,0.66667 -2.16176,-0.66666 -2.828427,0 -3.516937,3.51694 -2.828427,7.11161 -2.828427,11.31371 0,1.88562 0.843274,3.97031 0,5.65686 -0.421637,0.84327 -2.16176,-0.66667 -2.828427,0 -0.0027,0.003 0.0043,8.47246 0,8.48528 -0.421637,1.26491 -2.40679,1.56351 -2.828427,2.82842 -0.596285,1.78886 0.843274,3.97031 0,5.65686 -0.421637,0.84327 -2.40679,-0.84328 -2.828427,0 -1.557409,3.11482 1.105524,7.99713 0,11.31371 -0.666667,2 -2.317117,3.61161 -2.828427,5.65685 -1.143324,4.5733 1.143324,9.56884 0,14.14213 -0.323381,1.29353 -2.40679,1.56352 -2.828427,2.82843 -0.596285,1.78886 0,3.77124 0,5.65686 0,5.65685 0,11.3137 0,16.97056 0,15.08494 0,30.16989 0,45.25483 0,24.51304 0,49.02607 0,73.5391 0,6.59967 0,13.19933 0,19.79899 0,2.82843 -0.685994,5.74131 0,8.48528 0.323381,1.29353 2.232142,1.63586 2.828427,2.82843 0.937234,1.87447 -0.790192,8.94313 0,11.31371 6.829158,20.48748 -0.815446,-4.45932 5.656854,8.48528 0.421637,0.84328 0,1.88562 0,2.82843 0,2.82843 -0.685994,5.7413 0,8.48528 0.323381,1.29352 2.232142,1.63586 2.828427,2.82843 1.333334,2.66666 1.721154,5.71709 2.828427,8.48528 0.782961,1.9574 2.161761,3.65685 2.828427,5.65685 0.298143,0.89443 -0.1849,1.90393 0,2.82843 0.762363,3.81181 1.599155,7.62589 2.828427,11.31371 0.666667,2 1.885618,3.77123 2.828427,5.65685 1.885618,1.88562 4.606403,3.2058 5.656854,5.65685 1.893729,4.4187 1.507733,9.51971 2.828428,14.14214 1.158325,4.05414 4.090933,7.39891 5.656854,11.31371 1.107273,2.76818 1.294493,5.92873 2.828423,8.48528 9.8139,16.35649 2.35637,-4.00858 8.48528,11.31371 2.29984,5.74958 2.34028,9.16726 5.656855,14.14213 0.7396,1.1094 2.23214,1.63586 2.82843,2.82843 13.65831,27.31663 -3.64388,-5.27476 2.82842,14.14214 0.42164,1.26491 2.23215,1.63585 2.82843,2.82842 6.9296,20.78879 -0.9253,1.44049 5.65685,11.31371 4.94281,7.41421 1.0572,4.94281 5.65686,14.14214 0.59628,1.19257 2.02843,1.76176 2.82843,2.82842 2.0396,2.71948 4.13662,5.44482 5.65685,8.48528 0.42164,0.84328 -0.42164,1.98516 0,2.82843 0.59628,1.19257 2.08883,1.71903 2.82843,2.82843 1.16941,1.75411 1.33771,4.16614 2.82842,5.65685 0.66667,0.66667 2.16176,-0.66666 2.82843,0 0.66667,0.66667 -0.42164,1.98516 0,2.82843 0.59629,1.19257 2.23214,1.63586 2.82843,2.82843 0.42163,0.84327 -0.66667,2.16176 0,2.82842 0.66666,0.66667 2.16176,-0.66666 2.82842,0 0.95681,0.9568 -0.9568,4.70006 0,5.65686 0.66667,0.66666 1.98516,-0.42164 2.82843,0 1.19257,0.59628 1.88562,1.88562 2.82843,2.82842 0.94281,0.94281 2.23214,1.63586 2.82843,2.82843 0.42163,0.84328 -0.66667,2.16176 0,2.82843 0.66666,0.66667 2.16176,-0.66667 2.82842,0 0.66667,0.66667 -0.66666,2.16176 0,2.82843 0.66667,0.66666 1.98516,-0.42164 2.82843,0 1.19257,0.59628 1.63586,2.23214 2.82843,2.82842 0.84327,0.42164 2.16176,-0.66666 2.82842,0 0.66667,0.66667 -0.66666,2.16176 0,2.82843 1.33334,1.33333 4.32352,-1.33333 5.65686,0 0.66666,0.66667 -0.66667,2.16176 0,2.82843 0.11382,0.11382 10.275,0 11.31371,0 0.94281,0 2.34335,0.80845 2.82842,0 2.61219,-4.35365 3.04467,-9.78849 5.65686,-14.14214 0.48507,-0.80845 1.88562,0 2.82842,0 0.94281,-2.82843 2.10533,-5.59287 2.82843,-8.48528 0.45733,-1.82932 -0.84327,-3.97031 0,-5.65685 0.59629,-1.19257 2.40679,-1.56352 2.82843,-2.82843 0.59628,-1.78886 -0.59629,-3.868 0,-5.65686 0.42164,-1.26491 2.40679,-1.56351 2.82843,-2.82842 0.59628,-1.78886 0,-3.77124 0,-5.65686 0,-1.88561 0,-3.77123 0,-5.65685 0,-6.59966 0,-13.19933 0,-19.79899 0,-20.7418 0,-41.4836 0,-62.22539 0,-20.7418 0,-41.4836 0,-62.2254 0,-6.59966 0,-13.19933 0,-19.79899 0,-3.77124 0.91465,-7.65507 0,-11.31371 -0.32339,-1.29352 -2.50505,-1.5349 -2.82843,-2.82842 -0.686,-2.74398 0,-5.65686 0,-8.48529 0,-5.65685 0,-11.3137 0,-16.97056 0,-16.97056 0,-33.94112 0,-50.91168 0,-5.25774 -0.77061,-12.34692 0,-16.97057 3.25006,-19.50038 2.82843,2.26523 2.82843,-8.48528 0,-45.25483 0,-90.50966 0,-135.7645 0,-13.19932 0,-26.39865 0,-39.59797 0,-0.47603 0.28177,-19.23545 0,-19.79899 -0.42164,-0.84328 -2.40679,0.84327 -2.82843,0 -1.26491,-2.52983 0,-5.65686 0,-8.485287 0,-6.59966 0,-13.19932 0,-19.79898 0,-0.94281 0,-1.88562 0,-2.82843 0,-0.94281 0.42164,-1.98515 0,-2.82843 -0.59629,-1.19257 -2.23214,-1.63586 -2.82843,-2.82843 -0.43039,-0.86078 0,-7.21147 0,-8.48528 0,-0.94281 0,-1.88561 0,-2.82842 0,-0.94281 0.66667,-2.16176 0,-2.82843 -0.66667,-0.66667 -2.16176,0.66667 -2.82843,0 -1.33333,-1.33333 0.84328,-3.97031 0,-5.65686 -5.88561,-11.771231 0.19527,3.02369 -5.65685,-2.828422 -1.33333,-1.333333 1.33333,-4.323521 0,-5.656854 -0.66667,-0.666667 -2.40679,0.843274 -2.82843,0 -0.84327,-1.686548 0.59629,-3.868 0,-5.656854 -0.42163,-1.264911 -1.88561,-1.885618 -2.82842,-2.828427 -0.94281,-0.942809 -1.63586,-2.232143 -2.82843,-2.828427 -0.84327,-0.421637 -2.16176,0.666666 -2.82843,0 -0.66666,-0.666667 0.66667,-2.161761 0,-2.828427 -0.94312,-0.943125 -4.71373,0.943125 -5.65685,0 -0.66667,-0.666667 0.66666,-2.161761 0,-2.828427 -1.33334,-1.333334 -4.32352,1.333333 -5.65686,0 -0.66666,-0.666667 0.66667,-2.161761 0,-2.828427 -0.66666,-0.666667 -2.16176,0.666666 -2.82842,0 -0.66667,-0.666667 0.66666,-2.161761 0,-2.828428 -0.66667,-0.666666 -1.88562,0 -2.82843,0 -0.94281,0 -1.88562,0 -2.82843,0"
       inkscape:connector-curvature="0" />
  </g>
</svg>
