<?xml version="1.0" encoding="UTF-8" standalone="no"?>
<!-- Created with Inkscape (http://www.inkscape.org/) -->

<svg
   xmlns:dc="http://purl.org/dc/elements/1.1/"
   xmlns:cc="http://creativecommons.org/ns#"
   xmlns:rdf="http://www.w3.org/1999/02/22-rdf-syntax-ns#"
   xmlns:svg="http://www.w3.org/2000/svg"
   xmlns="http://www.w3.org/2000/svg"
   xmlns:xlink="http://www.w3.org/1999/xlink"
   xmlns:sodipodi="http://sodipodi.sourceforge.net/DTD/sodipodi-0.dtd"
   xmlns:inkscape="http://www.inkscape.org/namespaces/inkscape"
   width="744.09448819"
   height="1052.3622047"
   id="svg2"
   version="1.1"
   inkscape:version="0.48.2 r9819"
   sodipodi:docname="ground.svg">
  <defs
     id="defs4">
    <linearGradient
       inkscape:collect="always"
       id="linearGradient3965">
      <stop
         style="stop-color:#00ff00;stop-opacity:1;"
         offset="0"
         id="stop3967" />
      <stop
         style="stop-color:#00ff00;stop-opacity:0;"
         offset="1"
         id="stop3969" />
    </linearGradient>
    <linearGradient
       inkscape:collect="always"
       id="linearGradient3939">
      <stop
         style="stop-color:#cccccc;stop-opacity:1;"
         offset="0"
         id="stop3941" />
      <stop
         style="stop-color:#cccccc;stop-opacity:0;"
         offset="1"
         id="stop3943" />
    </linearGradient>
    <inkscape:path-effect
       effect="spiro"
       id="path-effect3937"
       is_visible="true" />
    <linearGradient
       inkscape:collect="always"
       id="linearGradient3909">
      <stop
         style="stop-color:#cccccc;stop-opacity:1;"
         offset="0"
         id="stop3911" />
      <stop
         style="stop-color:#cccccc;stop-opacity:0;"
         offset="1"
         id="stop3913" />
    </linearGradient>
    <linearGradient
       inkscape:collect="always"
       id="linearGradient3889">
      <stop
         style="stop-color:#000000;stop-opacity:1;"
         offset="0"
         id="stop3891" />
      <stop
         style="stop-color:#000000;stop-opacity:0;"
         offset="1"
         id="stop3893" />
    </linearGradient>
    <linearGradient
       inkscape:collect="always"
       id="linearGradient3791">
      <stop
         style="stop-color:#cccccc;stop-opacity:1;"
         offset="0"
         id="stop3793" />
      <stop
         style="stop-color:#cccccc;stop-opacity:0;"
         offset="1"
         id="stop3795" />
    </linearGradient>
    <linearGradient
       inkscape:collect="always"
       id="linearGradient3779">
      <stop
         style="stop-color:#cccccc;stop-opacity:1;"
         offset="0"
         id="stop3781" />
      <stop
         style="stop-color:#cccccc;stop-opacity:0;"
         offset="1"
         id="stop3783" />
    </linearGradient>
    <linearGradient
       inkscape:collect="always"
       id="linearGradient3763">
      <stop
         style="stop-color:#cccccc;stop-opacity:1;"
         offset="0"
         id="stop3765" />
      <stop
         style="stop-color:#cccccc;stop-opacity:0;"
         offset="1"
         id="stop3767" />
    </linearGradient>
    <linearGradient
       id="linearGradient3017">
      <stop
         style="stop-color:#ffffff;stop-opacity:0;"
         offset="0"
         id="stop3019" />
      <stop
         style="stop-color:#000000;stop-opacity:1;"
         offset="1"
         id="stop3021" />
    </linearGradient>
    <linearGradient
       id="linearGradient3005">
      <stop
         style="stop-color:#959595;stop-opacity:0;"
         offset="0"
         id="stop3007" />
      <stop
         style="stop-color:#000000;stop-opacity:0.77477479;"
         offset="1"
         id="stop3009" />
    </linearGradient>
    <radialGradient
       inkscape:collect="always"
       xlink:href="#linearGradient3017"
       id="radialGradient3023"
       cx="235.04431"
       cy="214.2643"
       fx="235.04431"
       fy="214.2643"
       r="48.57143"
       gradientUnits="userSpaceOnUse"
       gradientTransform="matrix(1.7138792,1.8044531,-1.3970232,1.3268998,129.41985,-498.52045)" />
    <radialGradient
       inkscape:collect="always"
       xlink:href="#linearGradient3763"
       id="radialGradient3769"
       cx="389.38913"
       cy="486.64789"
       fx="389.38913"
       fy="486.64789"
       r="249.45912"
       gradientTransform="matrix(1,0,0,1.0310822,0,-15.126064)"
       gradientUnits="userSpaceOnUse" />
    <radialGradient
       inkscape:collect="always"
       xlink:href="#linearGradient3779"
       id="radialGradient3785"
       cx="389.38913"
       cy="486.64789"
       fx="389.38913"
       fy="486.64789"
       r="249.45912"
       gradientTransform="matrix(1,0,0,1.0310822,0,-15.126064)"
       gradientUnits="userSpaceOnUse" />
    <radialGradient
       inkscape:collect="always"
       xlink:href="#linearGradient3791"
       id="radialGradient3797"
       cx="308.57144"
       cy="313.79074"
       fx="308.57144"
       fy="313.79074"
       r="251.42857"
       gradientTransform="matrix(1,0,0,1.0284091,0,-8.9145232)"
       gradientUnits="userSpaceOnUse" />
    <radialGradient
       inkscape:collect="always"
       xlink:href="#linearGradient3889"
       id="radialGradient3899"
       cx="308.57144"
       cy="313.79074"
       fx="308.57144"
       fy="313.79074"
       r="251.92857"
       gradientTransform="matrix(1,0,0,1.0283528,0,-8.8968307)"
       gradientUnits="userSpaceOnUse" />
    <radialGradient
       inkscape:collect="always"
       xlink:href="#linearGradient3909"
       id="radialGradient3915"
       cx="308.57144"
       cy="313.79074"
       fx="308.57144"
       fy="313.79074"
       r="251.92857"
       gradientTransform="matrix(1,0,0,1.0283528,0,-8.8968307)"
       gradientUnits="userSpaceOnUse" />
    <filter
       inkscape:collect="always"
       id="filter3923"
       x="-0.15"
       width="1.3"
       y="-0.6"
       height="2.2">
      <feGaussianBlur
         inkscape:collect="always"
         stdDeviation="25.714285"
         id="feGaussianBlur3925" />
    </filter>
    <radialGradient
       inkscape:collect="always"
       xlink:href="#linearGradient3939"
       id="radialGradient3945"
       cx="261.94385"
       cy="372.55371"
       fx="261.94385"
       fy="372.55371"
       r="209.49647"
       gradientTransform="matrix(1.4007184,0,0,1.4414467,-20.435501,-4.6839034)"
       gradientUnits="userSpaceOnUse" />
    <filter
       inkscape:collect="always"
       id="filter3955">
      <feGaussianBlur
         inkscape:collect="always"
         stdDeviation="10.327745"
         id="feGaussianBlur3957" />
    </filter>
    <radialGradient
       inkscape:collect="always"
       xlink:href="#linearGradient3965"
       id="radialGradient3971"
       cx="345.93241"
       cy="532.17302"
       fx="345.93241"
       fy="532.17302"
       r="319.13575"
       gradientTransform="matrix(1,0,0,1.0709905,0,-37.779231)"
       gradientUnits="userSpaceOnUse" />
  </defs>
  <sodipodi:namedview
     id="base"
     pagecolor="#ffffff"
     bordercolor="#666666"
     borderopacity="1.0"
     inkscape:pageopacity="0.0"
     inkscape:pageshadow="2"
     inkscape:zoom="0.49497475"
     inkscape:cx="241.83117"
     inkscape:cy="472.93497"
     inkscape:document-units="px"
     inkscape:current-layer="layer1"
     showgrid="false"
     showguides="true"
     inkscape:guide-bbox="true"
     inkscape:window-width="1440"
     inkscape:window-height="816"
     inkscape:window-x="-8"
     inkscape:window-y="-8"
     inkscape:window-maximized="1" />
  <metadata
     id="metadata7">
    <rdf:RDF>
      <cc:Work
         rdf:about="">
        <dc:format>image/svg+xml</dc:format>
        <dc:type
           rdf:resource="http://purl.org/dc/dcmitype/StillImage" />
        <dc:title></dc:title>
      </cc:Work>
    </rdf:RDF>
  </metadata>
  <g
     inkscape:label="Layer 1"
     inkscape:groupmode="layer"
     id="layer1">
    <path
       style="fill:url(#radialGradient3945);fill-opacity:1;stroke:#000000;stroke-width:1.72854018px;stroke-linecap:butt;stroke-linejoin:miter;stroke-opacity:1;filter:url(#filter3955)"
       d="m 67.290731,396.53212 c 1.33106,-1.84194 3.334,-3.18694 5.542672,-3.72196 2.208673,-0.53502 4.605078,-0.2557 6.631497,0.77294 2.026418,1.02865 3.666335,2.79824 4.538091,4.89693 0.871755,2.0987 0.968244,4.5094 0.26701,6.67105 -0.237343,0.73164 -0.564133,1.44246 -0.666032,2.20486 -0.05095,0.3812 -0.04361,0.7739 0.05998,1.14427 0.103591,0.37037 0.30758,0.71782 0.606053,0.96035 0.374213,0.30408 0.86929,0.4252 1.351283,0.43864 0.481993,0.0134 0.960998,-0.0699 1.435305,-0.15667 0.948613,-0.17356 1.908807,-0.28197 2.873168,-0.28197 1.886586,0 3.773172,0 5.659758,0 8.489634,0 16.979264,0 25.468894,0 30.18537,0 60.37075,0 90.55612,0 1.02962,0 2.06507,0.0198 3.07629,0.21359 1.01122,0.1938 1.98683,0.55622 2.89631,1.03888 0.90948,0.48266 1.75261,1.07897 2.6112,1.64726 0.85858,0.5683 1.75002,1.11224 2.73572,1.40976 1.8267,0.55136 3.78724,0.20283 5.66915,-0.11221 0.94095,-0.15752 1.88701,-0.30602 2.84084,-0.32634 0.95383,-0.0203 1.92096,0.0912 2.80952,0.43855 1.10962,0.43378 2.04669,1.21239 2.92405,2.0184 0.87736,0.80601 1.72556,1.65942 2.73571,2.29109 1.62355,1.01525 3.57522,1.39817 5.48961,1.43988 1.91439,0.0417 3.82046,-0.23181 5.71402,-0.51652 3.78713,-0.56943 7.60569,-0.92336 11.43539,-0.92336 l 5.65976,0 c 0.47223,0 0.94434,-0.0126 1.41613,-0.0332 0.47178,-0.0205 0.9476,-0.0424 1.41374,0.0332 0.59398,0.0963 1.15362,0.35441 1.6524,0.69101 0.49878,0.3366 0.9405,0.75076 1.35952,1.18262 0.83802,0.86374 1.61318,1.82119 2.64784,2.43585 1.0277,0.61053 2.24445,0.83873 3.43956,0.86351 1.19512,0.0248 2.38541,-0.13925 3.56853,-0.30998 2.36623,-0.34146 4.75057,-0.55353 7.14131,-0.55353 11.31951,0 22.63903,0 33.95854,0 35.84512,0 71.69025,0 107.53537,0 16.03598,0 32.07196,0 48.10794,0 8.48964,0 16.97927,0 25.46891,0 0.47714,0 0.95319,0.0389 1.42618,0.10174 0.2365,0.0314 0.4742,0.0616 0.71273,0.0571 0.23852,-0.004 0.48077,-0.046 0.69096,-0.15882 0.17065,-0.0916 0.31545,-0.22857 0.42423,-0.38882 0.10877,-0.16026 0.18209,-0.34338 0.2232,-0.53266 0.0822,-0.37855 0.0362,-0.77483 -0.0607,-1.14988 -0.0969,-0.37505 -0.24359,-0.73508 -0.36634,-1.10249 -0.12275,-0.36742 -0.22248,-0.74826 -0.22036,-1.13563 0.004,-0.68658 0.33936,-1.35174 0.8487,-1.81214 0.50935,-0.4604 1.1797,-0.7236 1.8621,-0.79932 0.6824,-0.0757 1.37669,0.0285 2.03096,0.23663 0.65426,0.20818 1.27174,0.51835 1.86732,0.85994 1.19117,0.68319 2.3214,1.50374 3.62119,1.94662 0.6499,0.22144 1.34018,0.34428 2.02475,0.29173 0.68457,-0.0525 1.36377,-0.28773 1.89438,-0.72346 0.5883,-0.4831 0.96733,-1.19094 1.13666,-1.93311 0.16932,-0.74217 0.1403,-1.51853 0.0118,-2.26885 -0.25702,-1.50063 -0.90225,-2.91457 -1.14845,-4.41702 -0.24802,-1.51356 -0.0809,-3.07472 0.32172,-4.55468 0.40261,-1.47996 1.03553,-2.88716 1.7264,-4.25649 1.38174,-2.73866 3.02801,-5.4153 3.61164,-8.42676 0.69361,-3.57894 -0.18199,-7.24702 -0.79147,-10.84124 -0.30474,-1.79711 -0.54392,-3.6155 -0.48524,-5.43732 0.0587,-1.82181 0.42593,-3.65682 1.27671,-5.26885 0.80277,-1.52106 2.008,-2.79867 2.82987,-4.30949 1.04193,-1.91534 1.42589,-4.13 1.46738,-6.31001 0.0415,-2.18 -0.23724,-4.35233 -0.52733,-6.51334 -0.58017,-4.32203 -0.94005,-8.67274 -0.94005,-13.03354 l 0,-4.30948 c 0,-0.72055 -0.031,-1.44066 -0.0813,-2.15946 -0.0503,-0.71879 -0.10303,-1.45346 0.0813,-2.15003 0.22142,-0.83666 0.77503,-1.54103 1.33736,-2.19891 0.56234,-0.65788 1.15778,-1.31245 1.49252,-2.11056 0.28237,-0.67324 0.36337,-1.41768 0.33004,-2.14698 -0.0333,-0.72929 -0.17717,-1.44864 -0.33004,-2.16251 -0.93011,-4.34355 -2.21379,-8.63154 -2.61966,-13.05498 -0.40587,-4.42344 0.15009,-9.10966 2.61966,-12.80192 0.95813,-1.4325 2.19498,-2.7073 2.82988,-4.30947 0.39962,-1.00843 0.54126,-2.10339 0.55636,-3.18801 0.0151,-1.08462 -0.0906,-2.16699 -0.20053,-3.24613 -0.21989,-2.15829 -0.35583,-4.32486 -0.35583,-6.49432 0,-11.49195 0,-22.98391 0,-34.47586 0,-2.87299 0,-5.74598 0,-8.61897 0,-0.72653 -0.059,-1.45143 -0.15421,-2.1717 -0.0476,-0.36014 -0.0933,-0.7221 -0.0865,-1.0853 0.007,-0.3632 0.0697,-0.73201 0.24074,-1.05247 0.26144,-0.4897 0.76956,-0.82821 1.31588,-0.92666 0.54632,-0.0985 1.12214,0.0319 1.59919,0.31578 0.47706,0.28387 0.8582,0.71392 1.12729,1.19946 0.26909,0.48554 0.43005,1.02557 0.52133,1.57314 0.18256,1.09513 0.0919,2.21527 0.14149,3.32441 0.0248,0.55457 0.0852,1.11013 0.23063,1.64588 0.14539,0.53574 0.37816,1.05268 0.72394,1.48696 0.37798,0.47472 0.8797,0.83777 1.4093,1.134 0.52959,0.29623 1.09095,0.53063 1.63994,0.78915 0.54899,0.25852 1.0908,0.54444 1.5593,0.93009 0.46851,0.38564 0.8632,0.87928 1.05122,1.45623 0.24834,0.76203 0.11731,1.60069 -0.14981,2.35635 -0.26711,0.75565 -0.66423,1.45845 -0.96567,2.20108 -0.30144,0.74264 -0.50785,1.55487 -0.36625,2.34374 0.0708,0.39443 0.23041,0.77624 0.48475,1.08593 0.25433,0.30968 0.60599,0.54402 0.99698,0.63186 0.46615,0.10472 0.95005,8e-4 1.42138,-0.0774 0.23566,-0.0391 0.47353,-0.0718 0.71239,-0.0684 0.23886,0.003 0.47999,0.044 0.69611,0.14579 0.36216,0.17055 0.63182,0.50683 0.76749,0.88345 0.13567,0.37661 0.14562,0.79036 0.0792,1.18512 -0.13282,0.78951 -0.55418,1.49568 -0.84671,2.24093 -0.59902,1.52607 -0.64832,3.26138 -0.13691,4.819 0.51142,1.55762 1.57975,2.92597 2.96679,3.79996 0.0731,3.06684 1.07085,6.10567 2.82988,8.61897 0.98899,1.41307 2.22789,2.69315 2.82987,4.30947 0.38072,1.02224 0.48419,2.13113 0.43885,3.22103 -0.0453,1.08989 -0.23526,2.16799 -0.42585,3.24205 -0.19058,1.07406 -0.38267,2.15163 -0.4324,3.24133 -0.0497,1.0897 0.0469,2.19877 0.4194,3.22405 0.59266,1.63144 1.82843,2.93059 2.98841,4.22182 1.15997,1.29124 2.31285,2.69882 2.67135,4.39714 0.29995,1.42093 0.0101,2.89014 -0.20991,4.32561 -0.11002,0.71774 -0.20271,1.44107 -0.19464,2.16715 0.008,0.72607 0.11966,1.45831 0.40455,2.12621 0.33871,0.79409 0.90576,1.46491 1.45332,2.13236 0.54756,0.66744 1.09333,1.36158 1.37656,2.17711 0.23965,0.69004 0.27875,1.4365 0.21807,2.16445 -0.0607,0.72794 -0.21809,1.44378 -0.36307,2.15973 -0.14497,0.71594 -0.2783,1.43853 -0.28971,2.16891 -0.0114,0.73039 0.10431,1.4744 0.43471,2.12588 0.39583,0.78048 1.06785,1.37676 1.65949,2.02157 0.29582,0.32241 0.57584,0.66299 0.79053,1.04426 0.21469,0.38126 0.36271,0.80644 0.37986,1.24366 0.015,0.3822 -0.0697,0.76158 -0.17971,1.12789 -0.11007,0.36632 -0.24609,0.72502 -0.3384,1.09621 -0.0923,0.37118 -0.1401,0.76041 -0.0702,1.13647 0.0698,0.37606 0.26853,0.73913 0.58836,0.9489 0.20139,0.13209 0.44104,0.1982 0.68112,0.21742 0.24007,0.0192 0.48166,-0.007 0.71914,-0.0467 0.47497,-0.0802 0.95028,-0.21821 1.42962,-0.17074 0.32643,0.0323 0.6426,0.15179 0.9147,0.335 0.2721,0.18321 0.50033,0.42921 0.67156,0.709 0.34245,0.55959 0.45046,1.24355 0.37561,1.89533 -0.0749,0.65178 -0.32323,1.27423 -0.64835,1.84407 -0.32512,0.56984 -0.72655,1.09196 -1.13046,1.60894 -0.40391,0.51698 -0.8128,1.03247 -1.15492,1.59226 -0.34213,0.55979 -0.6177,1.16861 -0.73164,1.8147 -0.11394,0.6461 -0.0582,1.33315 0.23243,1.92135 0.1453,0.2941 0.34807,0.56082 0.5994,0.77163 0.25132,0.21081 0.55148,0.36487 0.87167,0.43618 0.46364,0.10326 0.94588,0.0322 1.41687,-0.0295 0.47098,-0.0616 0.95959,-0.11208 1.413,0.0295 0.37787,0.11799 0.7094,0.36692 0.94949,0.68166 0.24009,0.31473 0.39098,0.69289 0.46005,1.08267 0.13814,0.77957 -0.0454,1.58266 -0.32182,2.32456 -0.27639,0.7419 -0.64556,1.44763 -0.9005,2.19718 -0.25493,0.74954 -0.39205,1.56813 -0.18722,2.33289 0.22455,0.83842 0.82811,1.51449 1.41299,2.15581 0.58488,0.64132 1.18945,1.31603 1.4169,2.15367 0.18953,0.69798 0.0965,1.43763 0.002,2.15464 -0.0949,0.717 -0.18903,1.45629 -0.002,2.15485 0.22481,0.83815 0.82579,1.51557 1.40942,2.15777 0.58363,0.64219 1.18747,1.31578 1.42045,2.1517 0.1941,0.69641 0.11022,1.43643 0.0187,2.15355 -0.0916,0.71713 -0.18848,1.45322 -0.0187,2.15594 0.20353,0.84222 0.76751,1.54573 1.3377,2.19815 0.57018,0.65242 1.17523,1.30491 1.49218,2.11133 0.22409,0.57014 0.29208,1.19481 0.24543,1.80563 -0.0467,0.61082 -0.20529,1.20917 -0.42061,1.78268 -0.43065,1.14701 -1.08445,2.19603 -1.58586,3.31392 -0.5014,1.11789 -0.85263,2.35981 -0.62472,3.56362 0.11395,0.6019 0.37637,1.18163 0.79087,1.6327 0.4145,0.45107 0.98559,0.76645 1.59489,0.8299 0.47437,0.0494 0.94957,-0.0508 1.42244,-0.11306 0.47286,-0.0622 0.97259,-0.0828 1.40744,0.11306 0.37602,0.16938 0.67258,0.49352 0.84169,0.86966 0.16911,0.37613 0.21581,0.80087 0.16955,1.21067 -0.0925,0.8196 -0.53732,1.55408 -1.01124,2.22915 -0.52179,0.74326 -1.09261,1.4524 -1.58361,2.21635 -0.49099,0.76395 -0.90464,1.59342 -1.07211,2.48597 -0.16748,0.89255 -0.0706,1.85723 0.40031,2.63372 0.23546,0.38825 0.56176,0.72361 0.95331,0.95354 0.39154,0.22993 0.8486,0.35203 1.3021,0.32938 0.49165,-0.0245 0.95908,-0.21356 1.44357,-0.30069 0.24224,-0.0436 0.49177,-0.0615 0.73438,-0.02 0.24261,0.0415 0.47885,0.14568 0.65193,0.32067 0.13452,0.13601 0.22694,0.31074 0.27696,0.49538 0.05,0.18464 0.0587,0.37902 0.0391,0.56931 -0.0391,0.38059 -0.18803,0.73998 -0.33382,1.0937 -0.14579,0.35372 -0.29179,0.71481 -0.32454,1.09599 -0.0164,0.19059 -0.004,0.3849 0.051,0.56823 0.0546,0.18332 0.15224,0.35545 0.29123,0.48688 0.17785,0.16817 0.41636,0.26312 0.6588,0.29679 0.24244,0.0337 0.48968,0.009 0.73003,-0.0368 0.4807,-0.0925 0.9517,-0.27346 1.44104,-0.25995 0.33043,0.009 0.65663,0.10903 0.94097,0.27761 0.28435,0.16857 0.52697,0.40476 0.71198,0.6787 0.37002,0.54787 0.50204,1.23551 0.44156,1.89386 -0.0605,0.65834 -0.3031,1.28993 -0.62795,1.86574 -0.32485,0.5758 -0.7312,1.10101 -1.14285,1.61834 -0.41164,0.51733 -0.83119,1.03056 -1.18629,1.58822 -0.3551,0.55766 -0.6462,1.1646 -0.77647,1.81276 -0.13026,0.64816 -0.0916,1.34163 0.18633,1.94148 0.13898,0.29993 0.33664,0.5737 0.58475,0.79214 0.2481,0.21844 0.54697,0.3807 0.86797,0.45961 0.46085,0.11329 0.94435,0.0534 1.41527,-0.005 0.47093,-0.0587 0.95551,-0.11488 1.41462,0.005 0.38877,0.10176 0.74047,0.32881 1.01036,0.62657 0.26989,0.29775 0.45949,0.66417 0.56889,1.05086 0.21881,0.77339 0.11807,1.60622 -0.11345,2.3759 -0.23153,0.76967 -0.58875,1.49444 -0.89353,2.23815 -0.30479,0.74372 -0.56059,1.52383 -0.57227,2.32749 -0.0112,0.77032 0.20363,1.52979 0.51279,2.23544 0.30917,0.70565 0.7118,1.36557 1.09857,2.03185 0.38677,0.66628 0.76091,1.34581 1.00654,2.07601 0.24564,0.7302 0.35852,1.51932 0.21197,2.27566 -0.14963,0.77224 -0.55986,1.47368 -0.72313,2.24315 -0.0816,0.38474 -0.0991,0.79031 0.0112,1.16783 0.11029,0.37752 0.35927,0.72445 0.71196,0.8985 0.21474,0.10597 0.45792,0.14462 0.69738,0.14313 0.23946,-0.002 0.47691,-0.0416 0.71215,-0.0864 0.23525,-0.0447 0.47021,-0.0943 0.70878,-0.11505 0.23857,-0.0207 0.48262,-0.0119 0.71157,0.0583 0.3978,0.12195 0.72669,0.42784 0.91601,0.79835 0.18933,0.37051 0.24588,0.80033 0.20281,1.21417 -0.0861,0.82768 -0.54576,1.56341 -1.00281,2.25881 -0.45705,0.69539 -0.93549,1.41298 -1.068,2.23451 -0.0662,0.41077 -0.0402,0.8419 0.11724,1.22704 0.15745,0.38513 0.45314,0.72027 0.83475,0.88608 0.21869,0.095 0.45895,0.13319 0.69736,0.13701 0.23842,0.004 0.47609,-0.0258 0.71183,-0.0616 0.47147,-0.0717 0.95295,-0.16847 1.42068,-0.0754 0.39701,0.079 0.76175,0.29494 1.04023,0.58871 0.27848,0.29378 0.47246,0.66274 0.58095,1.05272 0.217,0.77996 0.0944,1.61906 -0.15879,2.38804 -0.25315,0.76899 -0.63187,1.4897 -0.9424,2.23736 -0.31054,0.74765 -0.55594,1.54336 -0.51999,2.35214 0.0391,0.8795 0.4117,1.71862 0.92116,2.4366 0.50947,0.71797 1.15287,1.3289 1.79885,1.92702 0.64599,0.59813 1.30243,1.19219 1.84537,1.8852 0.54294,0.69301 0.97215,1.4983 1.09438,2.37014 0.10033,0.71558 -0.009,1.44146 -0.0883,2.15965 -0.0796,0.71818 -0.12753,1.46025 0.0883,2.14984 0.25918,0.82803 0.86851,1.49162 1.45045,2.13518 0.58193,0.64356 1.17278,1.33162 1.37944,2.1743 0.17246,0.70324 0.0584,1.44068 -0.0423,2.15771 -0.10072,0.71704 -0.18489,1.46426 0.0423,2.15178 0.13742,0.4159 0.38331,0.78876 0.66548,1.12378 0.28216,0.33502 0.60175,0.63615 0.90988,0.94746 0.30813,0.31131 0.60728,0.63588 0.83996,1.00698 0.23267,0.37111 0.39739,0.79357 0.41456,1.23125 0.0154,0.39153 -0.0869,0.77847 -0.21778,1.14779 -0.13087,0.36933 -0.29124,0.7286 -0.3992,1.10526 -0.10796,0.37666 -0.16211,0.77846 -0.0753,1.16055 0.0434,0.19105 0.12226,0.37505 0.23927,0.53218 0.11701,0.15714 0.27286,0.28674 0.45302,0.36371 0.22336,0.0954 0.47497,0.10724 0.71604,0.0775 0.24106,-0.0297 0.47516,-0.099 0.70999,-0.16112 0.23482,-0.0621 0.47402,-0.11753 0.71691,-0.11845 0.24289,-9.3e-4 0.49232,0.0567 0.68693,0.20205 0.15574,0.11631 0.26943,0.28429 0.33416,0.46757 0.0647,0.18328 0.082,0.38135 0.0656,0.57503 -0.0328,0.38737 -0.19571,0.75028 -0.35958,1.10281 -0.16387,0.35253 -0.33337,0.71108 -0.38092,1.09691 -0.0238,0.19292 -0.016,0.39121 0.0382,0.57789 0.0542,0.18668 0.1561,0.36143 0.30252,0.48927 0.18341,0.16014 0.4274,0.23926 0.67025,0.25679 0.24284,0.0175 0.48631,-0.0225 0.7235,-0.0775 0.2372,-0.055 0.47103,-0.12498 0.71051,-0.16893 0.23948,-0.0439 0.48754,-0.0613 0.72563,-0.0104 0.21067,0.0451 0.40897,0.14338 0.57654,0.27877 0.16757,0.1354 0.30459,0.30736 0.40499,0.49796 0.20082,0.38122 0.25188,0.83047 0.19154,1.25709 -0.0603,0.42662 -0.22695,0.83269 -0.43952,1.20747 -0.21257,0.37478 -0.47103,0.72121 -0.72885,1.06643 -0.51564,0.69044 -1.04845,1.41981 -1.1711,2.27277 -0.0613,0.42649 -0.0116,0.87581 0.18793,1.25771 0.19949,0.38191 0.55755,0.68869 0.97847,0.78076 0.23761,0.052 0.48549,0.0359 0.72492,-0.007 0.23943,-0.0428 0.47328,-0.1119 0.71032,-0.16641 0.23704,-0.0545 0.48012,-0.0947 0.72279,-0.0781 0.24266,0.0166 0.48669,0.0937 0.67184,0.25139 0.14723,0.12542 0.25153,0.29732 0.3091,0.48196 0.0576,0.18463 0.0698,0.38164 0.0505,0.57407 -0.0386,0.38487 -0.19913,0.74547 -0.35768,1.09829 -0.15855,0.35282 -0.31938,0.71322 -0.35869,1.09802 -0.0196,0.1924 -0.008,0.38941 0.0492,0.5742 0.0571,0.18479 0.16083,0.35701 0.3076,0.48295 0.18464,0.15843 0.42841,0.23654 0.67108,0.25395 0.24267,0.0174 0.48598,-0.022 0.72316,-0.0762 0.23718,-0.0542 0.47106,-0.12332 0.71044,-0.1668 0.23937,-0.0435 0.48709,-0.0608 0.72521,-0.0109 0.41471,0.0869 0.77202,0.37917 0.9801,0.74826 0.20809,0.3691 0.27466,0.80788 0.23248,1.22949 -0.0844,0.84321 -0.57342,1.58476 -1.06056,2.27818 -0.48713,0.69342 -1.00083,1.40939 -1.14739,2.24404 -0.0733,0.41733 -0.0479,0.85812 0.11797,1.24802 0.16586,0.3899 0.48007,0.72379 0.8774,0.87098 0.22384,0.0829 0.46641,0.10568 0.70492,0.0961 0.23852,-0.01 0.47453,-0.0506 0.70964,-0.0918 0.23511,-0.0413 0.47095,-0.083 0.7094,-0.094 0.23846,-0.011 0.48108,0.01 0.70591,0.0897 0.39277,0.14011 0.70877,0.45995 0.88418,0.83827 0.17542,0.37832 0.21724,0.81029 0.16196,1.22362 -0.11057,0.82667 -0.58464,1.55307 -1.04632,2.24766 -0.46169,0.69458 -0.93573,1.42101 -1.04622,2.24769 -0.0553,0.41333 -0.0134,0.8453 0.16209,1.2236 0.17547,0.3783 0.49151,0.69809 0.88431,0.83813 0.22485,0.0802 0.46748,0.10065 0.70593,0.0896 0.23846,-0.011 0.47429,-0.0528 0.7094,-0.0941 0.23512,-0.0413 0.47113,-0.0823 0.70965,-0.0918 0.23852,-0.01 0.48109,0.0133 0.7049,0.0963 0.39764,0.14749 0.71185,0.48213 0.87724,0.87266 0.1654,0.39053 0.18995,0.83183 0.11571,1.24939 -0.14848,0.83513 -0.66435,1.55057 -1.15291,2.24397 -0.48857,0.69339 -0.97852,1.43584 -1.06147,2.28 -0.0415,0.42208 0.0265,0.86125 0.23632,1.2298 0.20985,0.36856 0.56938,0.65922 0.98511,0.74314 0.2389,0.0482 0.48691,0.0287 0.72637,-0.0166 0.23947,-0.0453 0.47332,-0.11605 0.71076,-0.17102 0.23745,-0.055 0.48138,-0.0943 0.72436,-0.0753 0.24298,0.019 0.4867,0.10049 0.66838,0.26294 0.1455,0.1301 0.24528,0.3072 0.29653,0.49554 0.0512,0.18833 0.0555,0.38757 0.0282,0.58083 -0.0546,0.38652 -0.23091,0.74348 -0.39867,1.09596 -0.16776,0.35247 -0.33192,0.71765 -0.3593,1.10705 -0.0137,0.1947 0.008,0.39351 0.0789,0.57541 0.0707,0.18191 0.19212,0.34622 0.35439,0.45468 0.20269,0.13547 0.45671,0.17687 0.70001,0.16133 0.2433,-0.0155 0.47974,-0.0839 0.71365,-0.15259 0.23392,-0.0687 0.46977,-0.1385 0.71285,-0.15707 0.24309,-0.0186 0.49738,0.0179 0.70338,0.14833 0.1591,0.10069 0.28204,0.25327 0.3618,0.42382 0.0798,0.17055 0.11793,0.35867 0.12694,0.54674 0.018,0.37613 -0.0748,0.74803 -0.17176,1.11191 -0.0969,0.36388 -0.19696,0.72793 -0.25259,1.10037 -0.0556,0.37243 -0.0644,0.75009 -0.0644,1.12666 l 0,4.30947 c 0,1.44619 0.0901,2.89048 0.23585,4.32931 0.0729,0.71941 0.14292,1.44095 0.13292,2.16397 -0.01,0.72303 -0.10384,1.45286 -0.36877,2.12568 -0.31602,0.80257 -0.86136,1.49042 -1.40262,2.16201 -0.54126,0.67158 -1.09352,1.35213 -1.42727,2.14749 -0.47566,1.13356 -0.46924,2.41387 -0.2935,3.63056 0.17574,1.21668 0.51182,2.40647 0.67339,3.62512 0.16157,1.21865 0.13751,2.50258 -0.37742,3.61886 -0.25746,0.55813 -0.63731,1.06464 -1.12684,1.43635 -0.48952,0.37171 -1.091,0.6039 -1.7055,0.61754 -0.47933,0.0106 -0.95078,-0.10849 -1.42622,-0.17034 -0.23772,-0.0309 -0.47846,-0.0476 -0.71725,-0.0263 -0.23878,0.0212 -0.4763,0.0813 -0.68641,0.19668 -0.34841,0.19137 -0.60449,0.52907 -0.73717,0.90377 -0.13267,0.37471 -0.14839,0.78406 -0.0899,1.17724 0.11695,0.78635 0.51547,1.49711 0.82709,2.22849 0.91779,2.15408 1.09415,4.60392 0.56847,6.8856 -0.52568,2.28167 -1.74074,4.38912 -3.39834,6.04283 -0.62838,0.6269 -1.32127,1.19346 -1.87969,1.88341 -0.27921,0.34498 -0.52385,0.72077 -0.69599,1.12984 -0.17213,0.40907 -0.27041,0.85274 -0.25421,1.29625 0.028,0.76578 0.3885,1.47621 0.55784,2.22356 0.0847,0.37367 0.12111,0.76472 0.0426,1.13975 -0.0784,0.37502 -0.28156,0.73383 -0.60049,0.94616 -0.20074,0.13364 -0.43876,0.20467 -0.67862,0.22955 -0.23987,0.0249 -0.48242,0.005 -0.72082,-0.031 -0.47681,-0.0726 -0.94832,-0.21221 -1.43043,-0.19853 -0.44574,0.0127 -0.88456,0.15936 -1.25792,0.40317 -0.37336,0.24382 -0.68162,0.58281 -0.90415,0.96924 -0.44506,0.77285 -0.53807,1.71526 -0.38178,2.5933 0.15629,0.87804 0.54638,1.69941 1.01519,2.4581 0.46881,0.75868 1.01809,1.46392 1.52866,2.19515 0.47371,0.67845 0.92616,1.41151 1.02251,2.23334 0.0482,0.41092 0.002,0.83759 -0.16907,1.21425 -0.17117,0.37666 -0.47287,0.6996 -0.85344,0.86191 -0.43837,0.18696 -0.93705,0.15178 -1.4089,0.0849 -0.47186,-0.0669 -0.95073,-0.16219 -1.42099,-0.0849 -0.40815,0.0671 -0.79079,0.26496 -1.0961,0.54401 -0.3053,0.27905 -0.53439,0.63709 -0.68014,1.02418 -0.29149,0.77419 -0.24773,1.64196 -0.0367,2.44182 0.42211,1.59973 1.47615,2.98911 1.81291,4.60895 0.24517,1.17927 0.0903,2.41764 -0.29501,3.55883 -0.3853,1.14119 -0.99327,2.19485 -1.66223,3.19648 -1.33794,2.00326 -2.96033,3.88134 -3.70251,6.17313 -0.89336,2.75863 -0.39808,5.74674 0,8.61896 0.19857,1.43271 0.36841,2.9108 0,4.3095 -0.4415,1.67621 -1.60453,3.05467 -2.75505,4.35117 -1.15051,1.2965 -2.35293,2.62458 -2.90471,4.26779 -0.46031,1.37079 -0.42891,2.85592 -0.29415,4.29564 0.13476,1.43972 0.36804,2.8792 0.29415,4.32333 -0.0921,1.79932 -0.6716,3.57135 -1.66053,5.07735 -0.98894,1.50599 -2.3847,2.74204 -3.99923,3.54161 -1.85474,1.49675 -3.17858,3.63842 -3.6882,5.96664 -0.50962,2.32822 -0.20153,4.8271 0.85832,6.96182 0.7741,1.55917 1.94444,2.95801 2.30835,4.6603 0.18196,0.85115 0.14122,1.77271 -0.25502,2.54767 -0.19812,0.38747 -0.4834,0.73259 -0.83835,0.98438 -0.35496,0.25179 -0.78019,0.408 -1.21498,0.42662 -0.48259,0.0207 -0.95473,-0.12433 -1.43159,-0.20128 -0.23843,-0.0385 -0.48135,-0.06 -0.72158,-0.0351 -0.24023,0.0249 -0.47869,0.0981 -0.6767,0.2364 -0.31214,0.21797 -0.50016,0.58376 -0.56228,0.95937 -0.0621,0.37561 -0.009,0.76178 0.0844,1.13079 0.0936,0.36902 0.22753,0.72657 0.33128,1.09287 0.10375,0.3663 0.17759,0.74699 0.14665,1.12644 -0.0355,0.43549 -0.2086,0.85139 -0.44412,1.21942 -0.23552,0.36803 -0.53248,0.69247 -0.83695,1.00585 -0.30447,0.31339 -0.61872,0.6185 -0.89564,0.95647 -0.27693,0.33798 -0.51752,0.7124 -0.65318,1.12775 -0.24655,0.75485 -0.12755,1.58518 0.12517,2.33799 0.25272,0.75281 0.63316,1.45598 0.92385,2.19496 0.2907,0.73897 0.49259,1.54126 0.36374,2.32484 -0.0644,0.39179 -0.2132,0.77278 -0.45431,1.08824 -0.24111,0.31546 -0.57702,0.56268 -0.95845,0.67294 -0.45679,0.13204 -0.94442,0.0648 -1.41512,-0.003 -0.47069,-0.0674 -0.95892,-0.13279 -1.41475,0.003 -0.38025,0.11289 -0.7136,0.3633 -0.95093,0.68112 -0.23733,0.31783 -0.38121,0.70035 -0.44064,1.09253 -0.11885,0.78436 0.0929,1.58291 0.38887,2.31895 0.29598,0.73603 0.67788,1.43793 0.92439,2.19197 0.24652,0.75405 0.34996,1.58903 0.0783,2.33439 -0.20768,0.56982 -0.62167,1.04722 -1.1032,1.41593 -0.48154,0.36871 -1.03094,0.63769 -1.58335,0.88804 -0.5524,0.25034 -1.11386,0.48557 -1.63486,0.79603 -0.521,0.31047 -1.00515,0.70272 -1.33835,1.20947 -0.33352,0.50723 -0.50265,1.11276 -0.53282,1.71907 -0.0302,0.60631 0.0743,1.21414 0.25462,1.79381 0.36058,1.15934 1.01468,2.20072 1.5559,3.28754 0.54121,1.08681 0.9807,2.28099 0.85928,3.48903 -0.0607,0.60402 -0.26677,1.19971 -0.63526,1.68214 -0.36849,0.48243 -0.9051,0.84477 -1.50172,0.95687 -0.46611,0.0876 -0.94551,0.0236 -1.41669,-0.0305 -0.47118,-0.0541 -0.95636,-0.0969 -1.41319,0.0305 -0.31734,0.0885 -0.61042,0.25823 -0.85236,0.48185 -0.24194,0.22362 -0.43307,0.50036 -0.56618,0.80172 -0.26624,0.60273 -0.29625,1.29322 -0.16162,1.93822 0.26927,1.29002 1.14238,2.35563 1.95657,3.39184 0.4071,0.5181 0.80777,1.04494 1.12625,1.62177 0.31849,0.57682 0.55396,1.20871 0.60785,1.86541 0.0539,0.6567 -0.084,1.34056 -0.45703,1.88371 -0.18651,0.27158 -0.4299,0.50524 -0.71428,0.67158 -0.28438,0.16634 -0.60984,0.26435 -0.9392,0.27234 -0.48971,0.0119 -0.96051,-0.17051 -1.44148,-0.26334 -0.24049,-0.0464 -0.48797,-0.0705 -0.73049,-0.0363 -0.24252,0.0342 -0.48095,0.13026 -0.6579,0.2996 -0.13844,0.13249 -0.23489,0.30574 -0.28799,0.48986 -0.0531,0.18412 -0.064,0.37889 -0.0457,0.56964 0.0365,0.3815 0.18615,0.74175 0.33405,1.09531 0.1479,0.35356 0.2975,0.71384 0.33388,1.09536 0.0182,0.19075 0.007,0.38552 -0.046,0.56962 -0.0532,0.18409 -0.14972,0.3573 -0.28824,0.4897 -0.17704,0.16922 -0.41551,0.26507 -0.65803,0.29917 -0.24252,0.0341 -0.48996,0.01 -0.73042,-0.0366 -0.48091,-0.0929 -0.95179,-0.27518 -1.44144,-0.2626 -0.33076,0.009 -0.65744,0.10806 -0.94222,0.27652 -0.28477,0.16847 -0.52776,0.40478 -0.71298,0.67895 -0.37044,0.54835 -0.5022,1.23684 -0.44098,1.89575 0.0612,0.65891 0.30502,1.29077 0.63108,1.86661 0.32606,0.57584 0.73368,1.10086 1.14648,1.61807 0.4128,0.51721 0.83341,1.0304 1.18927,1.58832 0.35586,0.55792 0.6474,1.16544 0.77741,1.81429 0.13,0.64886 0.0903,1.34313 -0.18947,1.94283 -0.13989,0.29984 -0.33862,0.57328 -0.58779,0.79098 -0.24917,0.2177 -0.54909,0.3788 -0.8708,0.45612 -0.46153,0.11092 -0.94473,0.0482 -1.41565,-0.0113 -0.47092,-0.0595 -0.95649,-0.11434 -1.41422,0.0113 -0.38559,0.10587 -0.73184,0.33836 -0.99394,0.64034 -0.2621,0.30198 -0.4417,0.67131 -0.54073,1.05871 -0.19804,0.7748 -0.076,1.59982 0.16678,2.36178 0.24283,0.76195 0.60258,1.48073 0.89433,2.22532 0.29176,0.7446 0.51788,1.53433 0.47356,2.33282 -0.0488,0.87837 -0.42484,1.71385 -0.93486,2.43065 -0.51002,0.7168 -1.15138,1.32855 -1.79489,1.92839 -0.64352,0.59984 -1.29683,1.19629 -1.83738,1.89035 -0.54055,0.69407 -0.96813,1.4987 -1.09263,2.36957 -0.10222,0.71503 0.003,1.44103 0.0804,2.15912 0.0779,0.71808 0.12708,1.45852 -0.0804,2.15037 -0.24895,0.82998 -0.84025,1.50634 -1.4153,2.15454 -0.57506,0.64819 -1.16617,1.3248 -1.41458,2.15494 -0.20707,0.69197 -0.15723,1.43238 -0.0791,2.15044 0.0781,0.71805 0.18262,1.44421 0.0791,2.15905 -0.12614,0.87116 -0.55714,1.6749 -1.10078,2.36721 -0.54364,0.69231 -1.19979,1.28639 -1.84515,1.88502 -0.64535,0.59862 -1.28771,1.21049 -1.79598,1.92916 -0.50828,0.71868 -0.87951,1.55816 -0.91785,2.43757 -0.0353,0.80871 0.21027,1.60416 0.52069,2.35175 0.31042,0.74759 0.68879,1.46835 0.9416,2.23734 0.25281,0.76899 0.37512,1.60796 0.15814,2.38782 -0.1085,0.38992 -0.30238,0.75885 -0.58071,1.05269 -0.27833,0.29385 -0.64284,0.51001 -1.03972,0.58937 -0.46758,0.0935 -0.94911,-0.003 -1.42056,-0.0741 -0.23573,-0.0357 -0.47335,-0.0653 -0.71174,-0.0617 -0.23839,0.004 -0.47864,0.0414 -0.69757,0.13577 -0.38025,0.16395 -0.67643,0.49512 -0.83665,0.87695 -0.16023,0.38184 -0.19108,0.81041 -0.13015,1.21999 0.12186,0.81916 0.58832,1.53967 1.03759,2.23539 0.44928,0.69572 0.90425,1.4271 0.99798,2.24995 0.0469,0.41143 -0.002,0.83923 -0.18208,1.21233 -0.17963,0.3731 -0.49611,0.68682 -0.88669,0.82435 -0.22513,0.0793 -0.46769,0.0993 -0.7061,0.0881 -0.23841,-0.0112 -0.47422,-0.0528 -0.70934,-0.0938 -0.23513,-0.041 -0.47117,-0.0817 -0.70966,-0.0909 -0.2385,-0.009 -0.48098,0.0138 -0.70478,0.0967 -0.39569,0.14666 -0.70936,0.47785 -0.87666,0.86526 -0.16729,0.38742 -0.19589,0.82603 -0.12639,1.24226 0.13899,0.83246 0.64345,1.55047 1.12431,2.24408 0.48085,0.6936 0.96566,1.43171 1.05529,2.27092 0.0448,0.4196 -0.0164,0.85667 -0.21731,1.22777 -0.2009,0.3711 -0.54903,0.66966 -0.95924,0.76868 -0.23499,0.0567 -0.48152,0.0481 -0.72057,0.0122 -0.23905,-0.0359 -0.47314,-0.0986 -0.70942,-0.14972 -0.23627,-0.0511 -0.47723,-0.0908 -0.71872,-0.0798 -0.24149,0.011 -0.48532,0.0757 -0.68117,0.21739 -0.15424,0.1116 -0.27389,0.26785 -0.3525,0.44124 -0.0786,0.1734 -0.11711,0.36354 -0.12435,0.55379 -0.0145,0.38049 0.0935,0.75478 0.22182,1.11327 0.12831,0.3585 0.27867,0.71149 0.35461,1.08461 0.0759,0.37312 0.0718,0.77653 -0.0996,1.11656 -0.12479,0.24762 -0.33426,0.44943 -0.5808,0.57635 -0.24654,0.12692 -0.52861,0.18012 -0.80547,0.16461 -0.55371,-0.031 -1.06811,-0.33284 -1.44361,-0.74096 -0.50369,-0.54743 -0.77963,-1.27767 -0.86991,-2.01607 -0.0903,-0.7384 -0.005,-1.48823 0.14081,-2.2176 0.29261,-1.45874 0.83377,-2.90118 0.7291,-4.38529 -0.10762,-1.52591 -0.88446,-2.91035 -1.59043,-4.2674 -0.35298,-0.67853 -0.69371,-1.36704 -0.93269,-2.0936 -0.23897,-0.72656 -0.37439,-1.49611 -0.30675,-2.25797 0.0722,-0.8136 0.37173,-1.58895 0.70462,-2.33483 0.33289,-0.74588 0.70384,-1.47938 0.9332,-2.26332 0.22936,-0.78393 0.30996,-1.63648 0.0555,-2.41261 -0.12725,-0.38807 -0.33829,-0.75117 -0.62911,-1.03789 -0.29082,-0.28673 -0.66282,-0.49475 -1.06417,-0.57031 -0.46812,-0.0881 -0.94859,0.003 -1.42009,0.0713 -0.47149,0.0678 -0.96883,0.10887 -1.4098,-0.0713 -0.35474,-0.14492 -0.6449,-0.42663 -0.83455,-0.75961 -0.18964,-0.33298 -0.28338,-0.71503 -0.30704,-1.0975 -0.0473,-0.76493 0.16953,-1.51957 0.39632,-2.25164 0.2268,-0.73207 0.4621,-1.46426 0.59325,-2.21935 0.13116,-0.75509 0.15202,-1.52447 0.15202,-2.29087 l 0,-21.5474 c 0,-0.72024 0.0288,-1.44009 0.0756,-2.15881 0.0468,-0.71872 0.0959,-1.45116 -0.0756,-2.15068 -0.20609,-0.84061 -0.72519,-1.56772 -1.27484,-2.23628 -0.54965,-0.66856 -1.14652,-1.31017 -1.55503,-2.0732 -0.5144,-0.96082 -0.70351,-2.0674 -0.72393,-3.15707 -0.0204,-1.08967 0.1171,-2.17559 0.26021,-3.25602 0.28622,-2.16084 0.46372,-4.33565 0.46372,-6.51537 0,-10.05545 0,-20.11091 0,-30.16636 0,-22.98391 0,-45.96781 0,-68.95172 0,-5.74599 0,-11.49197 0,-17.23796 0,-2.87299 0,-5.74597 0,-8.61896 0,-0.72024 0.0288,-1.44008 0.0756,-2.1588 0.0467,-0.71872 0.0959,-1.45115 -0.0756,-2.15067 -0.20609,-0.84061 -0.72519,-1.56772 -1.27485,-2.23629 -0.54965,-0.66857 -1.14652,-1.31018 -1.55503,-2.07321 -0.5144,-0.96082 -0.70351,-2.0674 -0.72393,-3.15706 -0.0204,-1.08967 0.1171,-2.17559 0.26021,-3.25601 0.28622,-2.16084 0.46372,-4.33565 0.46372,-6.51536 0,-8.61897 0,-17.23793 0,-25.8569 0,-1.4365 0,-2.87299 0,-4.30949 0,-0.75111 0.1194,-1.49564 0.30766,-2.22278 0.0941,-0.36357 0.18433,-0.73466 0.16715,-1.10983 -0.009,-0.18758 -0.0454,-0.37523 -0.12266,-0.54637 -0.0773,-0.17113 -0.19652,-0.32542 -0.35215,-0.43049 -0.20125,-0.13586 -0.45231,-0.18266 -0.69497,-0.17384 -0.24266,0.009 -0.48015,0.0695 -0.71445,0.13327 -0.2343,0.0637 -0.46925,0.13117 -0.711,0.15398 -0.24174,0.0228 -0.49389,-0.002 -0.70946,-0.11341 -0.17147,-0.0889 -0.31336,-0.23047 -0.41305,-0.3959 -0.0997,-0.16542 -0.1581,-0.35404 -0.18146,-0.54577 -0.0467,-0.38344 0.0445,-0.77089 0.17099,-1.13587 0.12653,-0.36497 0.28903,-0.71773 0.39294,-1.08978 0.1039,-0.37204 0.1467,-0.77376 0.0306,-1.14218 -0.11449,-0.36324 -0.37933,-0.66939 -0.70286,-0.87035 -0.32352,-0.20096 -0.70267,-0.30196 -1.08262,-0.3283 -0.75989,-0.0527 -1.50904,0.17501 -2.23249,0.41339 -0.72345,0.23839 -1.44683,0.48635 -2.19586,0.62475 -0.74904,0.1384 -1.5141,0.16051 -2.27581,0.16051 -16.03597,0 -32.07195,0 -48.10792,0 -108.47868,0 -216.95735,0 -325.43603,0 -1.30792,0 -2.62362,0.0449 -3.90191,0.32165 -1.2783,0.27678 -2.4969,0.77056 -3.71725,1.24108 -1.22035,0.47052 -2.50394,0.91784 -3.80593,0.79347 -0.651,-0.0622 -1.2974,-0.27861 -1.80907,-0.68587 -0.51167,-0.40726 -0.87692,-1.01749 -0.91522,-1.67033 -0.0226,-0.38551 0.066,-0.7693 0.18386,-1.13706 0.11783,-0.36775 0.2654,-0.72606 0.36643,-1.09878 0.10104,-0.37272 0.1546,-0.76656 0.0799,-1.14544 -0.0374,-0.18943 -0.10698,-0.37338 -0.21274,-0.53493 -0.10575,-0.16154 -0.24824,-0.30023 -0.41744,-0.39326 -0.20916,-0.11499 -0.45165,-0.15744 -0.69029,-0.16203 -0.23864,-0.005 -0.47642,0.0262 -0.71295,0.0582 -0.47304,0.0641 -0.94928,0.10381 -1.42665,0.10381 l -2.82988,0 c -3.42022,0 -6.81678,0.48436 -10.14952,1.25295 -1.66637,0.38429 -3.35962,0.75289 -5.06847,0.68727 -0.85442,-0.0328 -1.70945,-0.17912 -2.50523,-0.49194 -0.79578,-0.31281 -1.53184,-0.79704 -2.08592,-1.44828 -0.56068,-0.659 -0.9176,-1.46194 -1.30775,-2.23422 -0.39015,-0.77229 -0.83807,-1.54545 -1.52213,-2.07527 -0.7613,-0.58965 -1.74862,-0.82195 -2.71122,-0.84763 -0.9626,-0.0257 -1.91958,0.13534 -2.86782,0.30302 -1.89646,0.33536 -3.81459,0.54461 -5.740475,0.54461 l -25.468906,0 c -2.459472,0 -4.898691,0.37924 -7.284095,0.97828 -1.192702,0.29952 -2.408509,0.58663 -3.637074,0.533 -0.614283,-0.0268 -1.228874,-0.143 -1.792686,-0.38832 -0.563811,-0.24531 -1.075998,-0.62417 -1.435537,-1.12296 -0.430522,-0.59727 -0.624974,-1.3408 -0.655757,-2.07641 -0.03078,-0.73562 0.09304,-1.46901 0.250312,-2.18827 0.157274,-0.71927 0.348653,-1.43218 0.456289,-2.16053 0.107637,-0.72835 0.129512,-1.47993 -0.05084,-2.19376 -0.212078,-0.83938 -0.692425,-1.58599 -1.224012,-2.26933 -0.531587,-0.68334 -1.12268,-1.32176 -1.605868,-2.04014 -1.222806,-1.818 -1.6904,-4.05548 -1.741572,-6.24586 -0.05117,-2.19038 0.279656,-4.37019 0.624071,-6.53392 0.688829,-4.32748 1.117501,-8.69515 1.117501,-13.07711 l 0,-47.40432 c 0,-1.98078 -0.06615,-3.97278 -0.475291,-5.91085 -0.409143,-1.93806 -1.13962,-3.78997 -1.836864,-5.64398 -0.697244,-1.854 -1.360746,-3.7983 -1.182278,-5.77103 0.08923,-0.98636 0.405086,-1.96687 1.005662,-2.75439 0.600575,-0.78751 1.503522,-1.36639 2.488771,-1.46716 0.471084,-0.0482 0.945535,0.0109 1.417251,0.0524 0.471716,0.0415 0.953824,0.0648 1.412629,-0.0524 0.580554,-0.14832 1.093188,-0.52071 1.451434,-1.00102 0.358246,-0.48032 0.566742,-1.06346 0.641124,-1.65803 0.148764,-1.18913 -0.224153,-2.38317 -0.710646,-3.47838 -0.486493,-1.09521 -1.09267,-2.14217 -1.454556,-3.28462 -0.180943,-0.57123 -0.29941,-1.16579 -0.302995,-1.76498 -0.0036,-0.59919 0.110577,-1.20403 0.375639,-1.74142 0.3875,-0.78561 1.065807,-1.37952 1.662133,-2.02119 0.298163,-0.32083 0.580571,-0.66025 0.795689,-1.04177 0.215117,-0.38153 0.361437,-0.80866 0.372056,-1.24652 0.0094,-0.38686 -0.08651,-0.76877 -0.207602,-1.13631 -0.121093,-0.36754 -0.268166,-0.72694 -0.366624,-1.10118 -0.09846,-0.37423 -0.147172,-0.7697 -0.06753,-1.14839 0.03982,-0.18934 0.111889,-0.37276 0.219677,-0.53344 0.107788,-0.16068 0.251864,-0.29818 0.422084,-0.39017 0.211322,-0.1142 0.456192,-0.15532 0.696379,-0.15236 0.240187,0.003 0.477731,0.048 0.712782,0.0975 0.235052,0.0495 0.469939,0.10368 0.70917,0.1253 0.23923,0.0216 0.485081,0.01 0.711548,-0.0705 0.385157,-0.13618 0.685234,-0.46507 0.836989,-0.84436 0.151756,-0.37929 0.165392,-0.80389 0.09376,-1.20609 -0.143272,-0.80438 -0.605425,-1.50953 -0.930745,-2.25902 -0.740433,-1.70585 -0.76258,-3.6705 -0.284045,-5.46749 0.478535,-1.79698 1.431711,-3.43934 2.570981,-4.9091 2.278539,-2.93954 5.302044,-5.24144 7.540266,-8.21179 1.119111,-1.48517 2.039531,-3.14901 2.468858,-4.95838 0.429327,-1.80937 0.339681,-3.77628 -0.469936,-5.4504 -0.404808,-0.83706 -0.985547,-1.59214 -1.710202,-2.17473 -0.724655,-0.58259 -1.594018,-0.98975 -2.510997,-1.14365 -0.916979,-0.15391 -1.879853,-0.0506 -2.731769,0.32191 -0.851915,0.37253 -1.587431,1.01684 -2.043278,1.82724 0,0 0,0 0,0"
       id="path3935"
       inkscape:path-effect="#path-effect3937"
       inkscape:original-d="m 67.290731,396.53212 c 2.850212,18.989 11.643201,4.55595 16.97927,8.61896 0.843707,0.64243 -0.843706,3.66708 0,4.30948 1.687414,1.28484 3.773171,0 5.659756,0 1.886587,0 3.773173,0 5.659758,0 8.489635,0 16.979275,0 25.468895,0 30.18539,0 60.37076,0 90.55612,0 11.05478,0 0.29876,-1.28482 11.31952,4.30949 3.00706,1.52644 8.31245,-1.52644 11.31951,0 2.00102,1.01575 3.61346,3.53043 5.65976,4.30949 2.33829,0.8902 19.74301,0 22.63902,0 1.88659,0 3.77317,0 5.65976,0 0.94329,0 1.93499,-0.45426 2.82987,0 2.00104,1.01576 3.61348,3.53043 5.65976,4.30948 2.52647,0.96185 10.87373,0 14.1494,0 11.31951,0 22.63902,0 33.95854,0 35.84512,0 71.69025,0 107.53537,0 16.03599,0 32.07197,0 48.10794,0 8.48964,0 16.97927,0 25.46891,0 0.94329,0 2.16286,1.01575 2.82987,0 0.66701,-1.01576 -0.66701,-3.29372 0,-4.30948 0.87626,-1.33443 13.27314,1.33442 14.1494,0 1.33402,-2.03153 -0.59659,-5.89341 0,-8.61898 1.33402,-6.09453 4.32574,-11.14339 5.65976,-17.23793 0.79418,-3.62827 -0.84241,-18.98169 0,-21.54741 0.59659,-1.81704 2.23328,-2.49244 2.82987,-4.30949 0.36584,-1.11422 0,-22.80232 0,-25.85689 0,-1.43649 0,-2.87299 0,-4.30948 0,-1.4365 -0.42186,-3.02465 0,-4.30949 0.59659,-1.81703 2.23329,-2.49245 2.82988,-4.30947 0.42186,-1.28484 0,-2.87299 0,-4.30949 0,-3.05456 -0.36584,-24.74268 0,-25.8569 0.5966,-1.81703 2.23328,-2.49245 2.82988,-4.30947 0.43062,-1.31153 0,-10.98765 0,-12.92846 0,-11.49195 0,-22.98391 0,-34.47586 0,-2.87299 0,-5.74598 0,-8.61897 0,-1.43648 -0.94329,-4.30947 0,-4.30947 14.29599,0 2.17484,3.31194 5.65975,8.61897 5.85513,8.91646 -0.22888,-13.62555 5.65976,4.30947 0.84371,2.56968 -1.33402,6.58746 0,8.61896 0.66701,1.01576 2.16288,-1.01575 2.82988,0 0.66701,1.01576 -0.29829,2.94671 0,4.3095 0.66701,3.04726 1.65987,5.94633 2.82988,8.61896 9.38552,14.29276 -1.33402,-4.06301 2.82988,8.61897 0.59659,1.81702 2.23329,2.49244 2.82987,4.30947 1.13196,3.4476 -1.13195,9.48086 0,12.92846 1.19319,3.63407 4.46658,4.98489 5.65976,8.61896 0.84371,2.56967 -0.84371,6.04928 0,8.61897 0.59659,1.81702 2.23329,2.49244 2.82988,4.30947 0.84371,2.56968 -0.8437,6.0493 0,8.61897 0.5966,1.81704 2.2333,2.49244 2.82988,4.30949 0.42185,1.28484 -0.66701,3.29372 0,4.30947 0.667,1.01575 2.16287,-1.01575 2.82988,0 1.41494,2.15476 -1.41494,10.77372 0,12.92846 0.66701,1.01575 2.16286,-1.01576 2.82987,0 1.33402,2.03151 -0.84369,6.04928 0,8.61896 0.5966,1.81703 2.23329,2.49245 2.82989,4.30948 0.42185,1.28484 -0.42186,3.02465 0,4.30949 0.59659,1.81702 2.23329,2.49245 2.82987,4.30947 0.42185,1.28484 -0.42186,3.02465 0,4.30949 0.59659,1.81703 2.23329,2.49245 2.82988,4.30948 0.56102,1.70868 -0.57852,12.04745 0,12.92845 0.66701,1.01576 2.16287,-1.01575 2.82988,0 0.667,1.01576 0,2.87299 0,4.30948 0,2.87298 -0.8437,6.0493 0,8.61896 0.42185,1.28484 2.16287,-1.01575 2.82988,0 0.66701,1.01578 -0.66701,3.29374 0,4.30949 0.66701,1.01576 2.16286,-1.01575 2.82987,0 1.41495,2.15474 -1.41493,10.77371 0,12.92846 0.66701,1.01576 2.40803,-1.28484 2.82989,0 0.84371,2.56967 -0.45756,5.83175 0,8.61897 0.51157,3.11618 2.16286,5.57168 2.82987,8.61896 0.2983,1.36277 -0.66701,3.29372 0,4.30948 0.66702,1.01575 2.16288,-1.01576 2.82988,0 1.33402,2.0315 -1.33401,6.58745 0,8.61896 0.66701,1.01575 2.16287,-1.01575 2.82987,0 1.33404,2.03151 -0.84369,6.04928 0,8.61897 1.19319,3.63407 4.46659,4.98489 5.65976,8.61896 0.42186,1.28484 -0.42184,3.02465 0,4.30949 0.5966,1.81703 2.23329,2.49245 2.82989,4.30948 0.42185,1.28484 -0.42186,3.02465 0,4.30949 0.59659,1.81703 2.23329,2.49245 2.82988,4.30947 0.42184,1.28484 -0.66702,3.29374 0,4.30949 0.66701,1.01576 2.16287,-1.01575 2.82987,0 0.66701,1.01576 -0.667,3.29372 0,4.30948 0.66701,1.01575 2.16287,-1.01576 2.82989,0 1.33401,2.0315 -1.33403,6.58745 0,8.61896 0.66701,1.01576 2.16286,-1.01575 2.82987,0 0.66701,1.01576 -0.66701,3.29374 0,4.30949 0.66701,1.01576 2.16288,-1.01575 2.82989,0 1.33401,2.03151 -1.33403,6.58746 0,8.61897 0.667,1.01575 2.16286,-1.01575 2.82987,0 1.33401,2.03151 -1.33402,6.58746 0,8.61897 0.667,1.01575 2.16287,-1.01576 2.82988,0 1.33402,2.0315 -1.33403,6.58745 0,8.61896 0.66701,1.01575 2.16287,-1.01575 2.82987,0 0.66701,1.01575 -0.667,3.29372 0,4.30947 0.66701,1.01576 2.16288,-1.01575 2.82989,0 0.66701,1.01576 0,2.87299 0,4.3095 0,1.43648 0,2.87298 0,4.30947 0,2.87299 0.59658,5.89341 0,8.61896 -0.42186,1.92727 -2.23329,2.49245 -2.82989,4.3095 -3.48493,10.61404 8.21439,-3.89032 -2.82987,12.92843 -0.66701,1.01576 -2.16288,-1.01575 -2.82988,0 -0.66701,1.01576 0.22878,2.91589 0,4.3095 -0.72347,4.40695 -1.49586,8.86542 -2.82987,12.92843 -0.5966,1.81705 -2.2333,2.49245 -2.82989,4.3095 -0.42185,1.28484 0.66701,3.29371 0,4.30947 -0.66701,1.01575 -2.40803,-1.28482 -2.82987,0 -0.84371,2.56968 0,5.74598 0,8.61896 0,1.43651 0.66701,3.29374 0,4.3095 -0.66702,1.01575 -2.16288,-1.01576 -2.82989,0 -1.33401,2.0315 0.84371,6.04928 0,8.61896 -4.31494,13.14202 -2.24342,-7.88181 -5.65975,12.92844 -0.45756,2.78722 0,5.74598 0,8.61896 0,1.43651 0.42185,3.02466 0,4.3095 -1.19319,3.63407 -4.81605,4.76444 -5.65976,8.61896 -0.59659,2.72555 0.59659,5.89342 0,8.61897 -0.84371,3.85453 -4.81605,4.76444 -5.65976,8.61896 0,19.61799 1.33402,0.24646 -2.82988,12.92846 -0.8437,2.56967 1.33403,6.58744 0,8.61897 -0.66701,1.01575 -2.16286,-1.01576 -2.82987,0 -0.66701,1.01575 0.42185,3.02463 0,4.30947 -0.5966,1.81705 -2.23329,2.49244 -2.82989,4.30949 -0.84369,2.56967 1.33403,6.58746 0,8.61897 -0.66701,1.01575 -2.16286,-1.01576 -2.82987,0 -1.33402,2.0315 0.84371,6.04928 0,8.61896 -5.88863,17.93502 0.19536,-4.60699 -5.65976,4.30947 -1.41493,2.15474 1.41494,10.77371 0,12.92846 -0.667,1.01576 -2.16287,-1.01575 -2.82988,0 -1.41494,2.15474 1.41495,10.7737 0,12.92844 -0.66701,1.01575 -2.16286,-1.01575 -2.82987,0 -0.66701,1.01575 0.66701,3.29374 0,4.30949 -0.66701,1.01576 -2.16288,-1.01575 -2.82989,0 -1.41493,2.15474 1.41495,10.7737 0,12.92844 -0.66701,1.01575 -2.40802,-1.28484 -2.82987,0 -0.84371,2.56968 0.59659,5.89342 0,8.61897 -0.84371,3.85452 -4.46658,4.98489 -5.65976,8.61896 -0.42185,1.28484 0.42186,3.02465 0,4.30949 -0.59659,1.81703 -2.23329,2.49245 -2.82988,4.30948 -0.42186,1.28484 0.42185,3.02465 0,4.30949 -1.19318,3.63407 -4.46657,4.98489 -5.65976,8.61896 -0.84371,2.56969 1.33402,6.58746 0,8.61897 -0.66701,1.01575 -2.16286,-1.01575 -2.82987,0 -1.33402,2.03151 1.33402,6.58746 0,8.61896 -0.66701,1.01576 -2.16288,-1.01575 -2.82988,0 -1.33402,2.03151 1.33401,6.58746 0,8.61897 -0.66701,1.01575 -2.16287,-1.01575 -2.82988,0 -0.667,1.01575 0.66701,3.29372 0,4.30947 -0.667,1.01576 -2.40803,1.28484 -2.82988,0 -0.84371,-2.56966 0.45757,-5.83175 0,-8.61896 -0.51157,-3.11619 -2.3183,-5.50277 -2.82987,-8.61897 -0.45758,-2.78719 0.84371,-6.04928 0,-8.61896 -0.42186,-1.28485 -2.40803,1.28484 -2.82989,0 -0.84371,-2.56967 0,-5.74598 0,-8.61897 0,-7.18246 0,-14.36494 0,-21.5474 0,-1.43651 0.42186,-3.02465 0,-4.30949 -0.59658,-1.81703 -2.23328,-2.49245 -2.82987,-4.30948 -0.43062,-1.31152 0,-10.98765 0,-12.92846 0,-10.05544 0,-20.11091 0,-30.16636 0,-22.98391 0,-45.96782 0,-68.95172 0,-5.746 0,-11.49198 0,-17.23796 0,-2.87298 0,-5.74597 0,-8.61896 0,-1.43648 0.42186,-3.02463 0,-4.30947 -0.59659,-1.81705 -2.40803,-2.38223 -2.82988,-4.3095 -0.89488,-4.08833 0,-8.61896 0,-12.92843 0,-8.61897 0,-17.23793 0,-25.8569 0,-1.4365 0,-2.87299 0,-4.30949 0,-1.43649 0.667,-3.29372 0,-4.30947 -0.66701,-1.01576 -2.16287,1.01575 -2.82988,0 -0.667,-1.01576 0.66701,-3.29374 0,-4.3095 -0.091,-0.13865 -7.80331,0 -8.48964,0 -16.03597,0 -32.07195,0 -48.10792,0 -108.47868,0 -216.95735,0 -325.43603,0 -1.33428,0 -14.02113,0.19539 -14.14938,0 -0.66702,-1.01575 0.66701,-3.29372 0,-4.30947 -0.66702,-1.01575 -1.8866,0 -2.82989,0 -0.9433,0 -1.88658,0 -2.82988,0 -2.99351,0 -18.35127,0.74003 -19.80914,0 -1.26557,-0.64242 -1.6367,-3.40097 -2.82988,-4.30949 -0.7441,-0.56657 -9.839715,0 -11.319516,0 -8.489637,0 -16.979272,0 -25.468906,0 -1.334283,0 -14.021138,0.19539 -14.149392,0 -1.334018,-2.03151 0.843706,-6.04928 0,-8.61897 -0.596591,-1.81702 -2.408025,-2.38221 -2.82988,-4.30947 -0.5519,-2.52139 0,-22.15795 0,-25.85689 0,-15.80145 0,-31.60288 0,-47.40432 0,-3.61136 -0.60137,-19.71581 0,-21.54741 0.421855,-1.28484 2.162871,1.01576 2.82988,0 0.578529,-0.88102 -0.561013,-11.21977 0,-12.92845 0.59659,-1.81703 2.233287,-2.49245 2.829878,-4.30948 0.421853,-1.28484 -0.667009,-3.29374 0,-4.30949 0.667008,-1.01575 2.162869,1.01575 2.829879,0 0.667008,-1.01575 0,-2.87299 0,-4.30947 0,-6.84482 -0.205582,-31.09091 2.829878,-30.16639 4.716464,1.43648 -1.886586,14.36494 0,0 z"
       inkscape:connector-curvature="0"
       transform="matrix(1,0,0,1.6366359,0,-352.43462)" />
    <path
       transform="matrix(1,0,0,1.6366359,0,-352.43462)"
       inkscape:connector-curvature="0"
       inkscape:original-d="m 67.290731,396.53212 c 2.850212,18.989 11.643201,4.55595 16.97927,8.61896 0.843707,0.64243 -0.843706,3.66708 0,4.30948 1.687414,1.28484 3.773171,0 5.659756,0 1.886587,0 3.773173,0 5.659758,0 8.489635,0 16.979275,0 25.468895,0 30.18539,0 60.37076,0 90.55612,0 11.05478,0 0.29876,-1.28482 11.31952,4.30949 3.00706,1.52644 8.31245,-1.52644 11.31951,0 2.00102,1.01575 3.61346,3.53043 5.65976,4.30949 2.33829,0.8902 19.74301,0 22.63902,0 1.88659,0 3.77317,0 5.65976,0 0.94329,0 1.93499,-0.45426 2.82987,0 2.00104,1.01576 3.61348,3.53043 5.65976,4.30948 2.52647,0.96185 10.87373,0 14.1494,0 11.31951,0 22.63902,0 33.95854,0 35.84512,0 71.69025,0 107.53537,0 16.03599,0 32.07197,0 48.10794,0 8.48964,0 16.97927,0 25.46891,0 0.94329,0 2.16286,1.01575 2.82987,0 0.66701,-1.01576 -0.66701,-3.29372 0,-4.30948 0.87626,-1.33443 13.27314,1.33442 14.1494,0 1.33402,-2.03153 -0.59659,-5.89341 0,-8.61898 1.33402,-6.09453 4.32574,-11.14339 5.65976,-17.23793 0.79418,-3.62827 -0.84241,-18.98169 0,-21.54741 0.59659,-1.81704 2.23328,-2.49244 2.82987,-4.30949 0.36584,-1.11422 0,-22.80232 0,-25.85689 0,-1.43649 0,-2.87299 0,-4.30948 0,-1.4365 -0.42186,-3.02465 0,-4.30949 0.59659,-1.81703 2.23329,-2.49245 2.82988,-4.30947 0.42186,-1.28484 0,-2.87299 0,-4.30949 0,-3.05456 -0.36584,-24.74268 0,-25.8569 0.5966,-1.81703 2.23328,-2.49245 2.82988,-4.30947 0.43062,-1.31153 0,-10.98765 0,-12.92846 0,-11.49195 0,-22.98391 0,-34.47586 0,-2.87299 0,-5.74598 0,-8.61897 0,-1.43648 -0.94329,-4.30947 0,-4.30947 14.29599,0 2.17484,3.31194 5.65975,8.61897 5.85513,8.91646 -0.22888,-13.62555 5.65976,4.30947 0.84371,2.56968 -1.33402,6.58746 0,8.61896 0.66701,1.01576 2.16288,-1.01575 2.82988,0 0.66701,1.01576 -0.29829,2.94671 0,4.3095 0.66701,3.04726 1.65987,5.94633 2.82988,8.61896 9.38552,14.29276 -1.33402,-4.06301 2.82988,8.61897 0.59659,1.81702 2.23329,2.49244 2.82987,4.30947 1.13196,3.4476 -1.13195,9.48086 0,12.92846 1.19319,3.63407 4.46658,4.98489 5.65976,8.61896 0.84371,2.56967 -0.84371,6.04928 0,8.61897 0.59659,1.81702 2.23329,2.49244 2.82988,4.30947 0.84371,2.56968 -0.8437,6.0493 0,8.61897 0.5966,1.81704 2.2333,2.49244 2.82988,4.30949 0.42185,1.28484 -0.66701,3.29372 0,4.30947 0.667,1.01575 2.16287,-1.01575 2.82988,0 1.41494,2.15476 -1.41494,10.77372 0,12.92846 0.66701,1.01575 2.16286,-1.01576 2.82987,0 1.33402,2.03151 -0.84369,6.04928 0,8.61896 0.5966,1.81703 2.23329,2.49245 2.82989,4.30948 0.42185,1.28484 -0.42186,3.02465 0,4.30949 0.59659,1.81702 2.23329,2.49245 2.82987,4.30947 0.42185,1.28484 -0.42186,3.02465 0,4.30949 0.59659,1.81703 2.23329,2.49245 2.82988,4.30948 0.56102,1.70868 -0.57852,12.04745 0,12.92845 0.66701,1.01576 2.16287,-1.01575 2.82988,0 0.667,1.01576 0,2.87299 0,4.30948 0,2.87298 -0.8437,6.0493 0,8.61896 0.42185,1.28484 2.16287,-1.01575 2.82988,0 0.66701,1.01578 -0.66701,3.29374 0,4.30949 0.66701,1.01576 2.16286,-1.01575 2.82987,0 1.41495,2.15474 -1.41493,10.77371 0,12.92846 0.66701,1.01576 2.40803,-1.28484 2.82989,0 0.84371,2.56967 -0.45756,5.83175 0,8.61897 0.51157,3.11618 2.16286,5.57168 2.82987,8.61896 0.2983,1.36277 -0.66701,3.29372 0,4.30948 0.66702,1.01575 2.16288,-1.01576 2.82988,0 1.33402,2.0315 -1.33401,6.58745 0,8.61896 0.66701,1.01575 2.16287,-1.01575 2.82987,0 1.33404,2.03151 -0.84369,6.04928 0,8.61897 1.19319,3.63407 4.46659,4.98489 5.65976,8.61896 0.42186,1.28484 -0.42184,3.02465 0,4.30949 0.5966,1.81703 2.23329,2.49245 2.82989,4.30948 0.42185,1.28484 -0.42186,3.02465 0,4.30949 0.59659,1.81703 2.23329,2.49245 2.82988,4.30947 0.42184,1.28484 -0.66702,3.29374 0,4.30949 0.66701,1.01576 2.16287,-1.01575 2.82987,0 0.66701,1.01576 -0.667,3.29372 0,4.30948 0.66701,1.01575 2.16287,-1.01576 2.82989,0 1.33401,2.0315 -1.33403,6.58745 0,8.61896 0.66701,1.01576 2.16286,-1.01575 2.82987,0 0.66701,1.01576 -0.66701,3.29374 0,4.30949 0.66701,1.01576 2.16288,-1.01575 2.82989,0 1.33401,2.03151 -1.33403,6.58746 0,8.61897 0.667,1.01575 2.16286,-1.01575 2.82987,0 1.33401,2.03151 -1.33402,6.58746 0,8.61897 0.667,1.01575 2.16287,-1.01576 2.82988,0 1.33402,2.0315 -1.33403,6.58745 0,8.61896 0.66701,1.01575 2.16287,-1.01575 2.82987,0 0.66701,1.01575 -0.667,3.29372 0,4.30947 0.66701,1.01576 2.16288,-1.01575 2.82989,0 0.66701,1.01576 0,2.87299 0,4.3095 0,1.43648 0,2.87298 0,4.30947 0,2.87299 0.59658,5.89341 0,8.61896 -0.42186,1.92727 -2.23329,2.49245 -2.82989,4.3095 -3.48493,10.61404 8.21439,-3.89032 -2.82987,12.92843 -0.66701,1.01576 -2.16288,-1.01575 -2.82988,0 -0.66701,1.01576 0.22878,2.91589 0,4.3095 -0.72347,4.40695 -1.49586,8.86542 -2.82987,12.92843 -0.5966,1.81705 -2.2333,2.49245 -2.82989,4.3095 -0.42185,1.28484 0.66701,3.29371 0,4.30947 -0.66701,1.01575 -2.40803,-1.28482 -2.82987,0 -0.84371,2.56968 0,5.74598 0,8.61896 0,1.43651 0.66701,3.29374 0,4.3095 -0.66702,1.01575 -2.16288,-1.01576 -2.82989,0 -1.33401,2.0315 0.84371,6.04928 0,8.61896 -4.31494,13.14202 -2.24342,-7.88181 -5.65975,12.92844 -0.45756,2.78722 0,5.74598 0,8.61896 0,1.43651 0.42185,3.02466 0,4.3095 -1.19319,3.63407 -4.81605,4.76444 -5.65976,8.61896 -0.59659,2.72555 0.59659,5.89342 0,8.61897 -0.84371,3.85453 -4.81605,4.76444 -5.65976,8.61896 0,19.61799 1.33402,0.24646 -2.82988,12.92846 -0.8437,2.56967 1.33403,6.58744 0,8.61897 -0.66701,1.01575 -2.16286,-1.01576 -2.82987,0 -0.66701,1.01575 0.42185,3.02463 0,4.30947 -0.5966,1.81705 -2.23329,2.49244 -2.82989,4.30949 -0.84369,2.56967 1.33403,6.58746 0,8.61897 -0.66701,1.01575 -2.16286,-1.01576 -2.82987,0 -1.33402,2.0315 0.84371,6.04928 0,8.61896 -5.88863,17.93502 0.19536,-4.60699 -5.65976,4.30947 -1.41493,2.15474 1.41494,10.77371 0,12.92846 -0.667,1.01576 -2.16287,-1.01575 -2.82988,0 -1.41494,2.15474 1.41495,10.7737 0,12.92844 -0.66701,1.01575 -2.16286,-1.01575 -2.82987,0 -0.66701,1.01575 0.66701,3.29374 0,4.30949 -0.66701,1.01576 -2.16288,-1.01575 -2.82989,0 -1.41493,2.15474 1.41495,10.7737 0,12.92844 -0.66701,1.01575 -2.40802,-1.28484 -2.82987,0 -0.84371,2.56968 0.59659,5.89342 0,8.61897 -0.84371,3.85452 -4.46658,4.98489 -5.65976,8.61896 -0.42185,1.28484 0.42186,3.02465 0,4.30949 -0.59659,1.81703 -2.23329,2.49245 -2.82988,4.30948 -0.42186,1.28484 0.42185,3.02465 0,4.30949 -1.19318,3.63407 -4.46657,4.98489 -5.65976,8.61896 -0.84371,2.56969 1.33402,6.58746 0,8.61897 -0.66701,1.01575 -2.16286,-1.01575 -2.82987,0 -1.33402,2.03151 1.33402,6.58746 0,8.61896 -0.66701,1.01576 -2.16288,-1.01575 -2.82988,0 -1.33402,2.03151 1.33401,6.58746 0,8.61897 -0.66701,1.01575 -2.16287,-1.01575 -2.82988,0 -0.667,1.01575 0.66701,3.29372 0,4.30947 -0.667,1.01576 -2.40803,1.28484 -2.82988,0 -0.84371,-2.56966 0.45757,-5.83175 0,-8.61896 -0.51157,-3.11619 -2.3183,-5.50277 -2.82987,-8.61897 -0.45758,-2.78719 0.84371,-6.04928 0,-8.61896 -0.42186,-1.28485 -2.40803,1.28484 -2.82989,0 -0.84371,-2.56967 0,-5.74598 0,-8.61897 0,-7.18246 0,-14.36494 0,-21.5474 0,-1.43651 0.42186,-3.02465 0,-4.30949 -0.59658,-1.81703 -2.23328,-2.49245 -2.82987,-4.30948 -0.43062,-1.31152 0,-10.98765 0,-12.92846 0,-10.05544 0,-20.11091 0,-30.16636 0,-22.98391 0,-45.96782 0,-68.95172 0,-5.746 0,-11.49198 0,-17.23796 0,-2.87298 0,-5.74597 0,-8.61896 0,-1.43648 0.42186,-3.02463 0,-4.30947 -0.59659,-1.81705 -2.40803,-2.38223 -2.82988,-4.3095 -0.89488,-4.08833 0,-8.61896 0,-12.92843 0,-8.61897 0,-17.23793 0,-25.8569 0,-1.4365 0,-2.87299 0,-4.30949 0,-1.43649 0.667,-3.29372 0,-4.30947 -0.66701,-1.01576 -2.16287,1.01575 -2.82988,0 -0.667,-1.01576 0.66701,-3.29374 0,-4.3095 -0.091,-0.13865 -7.80331,0 -8.48964,0 -16.03597,0 -32.07195,0 -48.10792,0 -108.47868,0 -216.95735,0 -325.43603,0 -1.33428,0 -14.02113,0.19539 -14.14938,0 -0.66702,-1.01575 0.66701,-3.29372 0,-4.30947 -0.66702,-1.01575 -1.8866,0 -2.82989,0 -0.9433,0 -1.88658,0 -2.82988,0 -2.99351,0 -18.35127,0.74003 -19.80914,0 -1.26557,-0.64242 -1.6367,-3.40097 -2.82988,-4.30949 -0.7441,-0.56657 -9.839715,0 -11.319516,0 -8.489637,0 -16.979272,0 -25.468906,0 -1.334283,0 -14.021138,0.19539 -14.149392,0 -1.334018,-2.03151 0.843706,-6.04928 0,-8.61897 -0.596591,-1.81702 -2.408025,-2.38221 -2.82988,-4.30947 -0.5519,-2.52139 0,-22.15795 0,-25.85689 0,-15.80145 0,-31.60288 0,-47.40432 0,-3.61136 -0.60137,-19.71581 0,-21.54741 0.421855,-1.28484 2.162871,1.01576 2.82988,0 0.578529,-0.88102 -0.561013,-11.21977 0,-12.92845 0.59659,-1.81703 2.233287,-2.49245 2.829878,-4.30948 0.421853,-1.28484 -0.667009,-3.29374 0,-4.30949 0.667008,-1.01575 2.162869,1.01575 2.829879,0 0.667008,-1.01575 0,-2.87299 0,-4.30947 0,-6.84482 -0.205582,-31.09091 2.829878,-30.16639 4.716464,1.43648 -1.886586,14.36494 0,0 z"
       inkscape:path-effect="#path-effect3937"
       id="path3959"
       d="m 67.290731,396.53212 c 1.33106,-1.84194 3.334,-3.18694 5.542672,-3.72196 2.208673,-0.53502 4.605078,-0.2557 6.631497,0.77294 2.026418,1.02865 3.666335,2.79824 4.538091,4.89693 0.871755,2.0987 0.968244,4.5094 0.26701,6.67105 -0.237343,0.73164 -0.564133,1.44246 -0.666032,2.20486 -0.05095,0.3812 -0.04361,0.7739 0.05998,1.14427 0.103591,0.37037 0.30758,0.71782 0.606053,0.96035 0.374213,0.30408 0.86929,0.4252 1.351283,0.43864 0.481993,0.0134 0.960998,-0.0699 1.435305,-0.15667 0.948613,-0.17356 1.908807,-0.28197 2.873168,-0.28197 1.886586,0 3.773172,0 5.659758,0 8.489635,0 16.979265,0 25.468895,0 30.18537,0 60.37075,0 90.55612,0 1.02962,0 2.06507,0.0198 3.07629,0.21359 1.01122,0.1938 1.98683,0.55622 2.89631,1.03888 0.90948,0.48266 1.75261,1.07897 2.6112,1.64726 0.85858,0.5683 1.75002,1.11224 2.73572,1.40976 1.8267,0.55136 3.78724,0.20283 5.66915,-0.11221 0.94095,-0.15752 1.88701,-0.30602 2.84084,-0.32634 0.95383,-0.0203 1.92096,0.0912 2.80952,0.43855 1.10962,0.43378 2.04669,1.21239 2.92405,2.0184 0.87736,0.80601 1.72556,1.65942 2.73571,2.29109 1.62355,1.01525 3.57522,1.39817 5.48961,1.43988 1.91439,0.0417 3.82046,-0.23181 5.71402,-0.51652 3.78713,-0.56943 7.60569,-0.92336 11.43539,-0.92336 l 5.65976,0 c 0.47223,0 0.94434,-0.0126 1.41613,-0.0332 0.47178,-0.0205 0.9476,-0.0424 1.41374,0.0332 0.59398,0.0963 1.15362,0.35441 1.6524,0.69101 0.49878,0.3366 0.9405,0.75076 1.35952,1.18262 0.83802,0.86374 1.61318,1.82119 2.64784,2.43585 1.0277,0.61053 2.24445,0.83873 3.43956,0.86351 1.19512,0.0248 2.38541,-0.13925 3.56853,-0.30998 2.36623,-0.34146 4.75057,-0.55353 7.14131,-0.55353 11.31951,0 22.63903,0 33.95854,0 35.84512,0 71.69025,0 107.53537,0 16.03598,0 32.07196,0 48.10794,0 8.48964,0 16.97927,0 25.46891,0 0.47714,0 0.95319,0.0389 1.42618,0.10174 0.2365,0.0314 0.4742,0.0616 0.71273,0.0571 0.23852,-0.004 0.48077,-0.046 0.69096,-0.15882 0.17065,-0.0916 0.31545,-0.22857 0.42423,-0.38882 0.10877,-0.16026 0.18209,-0.34338 0.2232,-0.53266 0.0822,-0.37855 0.0362,-0.77483 -0.0607,-1.14988 -0.0969,-0.37505 -0.24359,-0.73508 -0.36634,-1.10249 -0.12275,-0.36742 -0.22248,-0.74826 -0.22036,-1.13563 0.004,-0.68658 0.33936,-1.35174 0.8487,-1.81214 0.50935,-0.4604 1.1797,-0.7236 1.8621,-0.79932 0.6824,-0.0757 1.37669,0.0285 2.03096,0.23663 0.65426,0.20818 1.27174,0.51835 1.86732,0.85994 1.19117,0.68319 2.3214,1.50374 3.62119,1.94662 0.6499,0.22144 1.34018,0.34428 2.02475,0.29173 0.68457,-0.0525 1.36377,-0.28773 1.89438,-0.72346 0.5883,-0.4831 0.96733,-1.19094 1.13666,-1.93311 0.16932,-0.74217 0.1403,-1.51853 0.0118,-2.26885 -0.25702,-1.50063 -0.90225,-2.91457 -1.14845,-4.41702 -0.24802,-1.51356 -0.0809,-3.07472 0.32172,-4.55468 0.40261,-1.47996 1.03553,-2.88716 1.7264,-4.25649 1.38174,-2.73866 3.02801,-5.4153 3.61164,-8.42676 0.69361,-3.57894 -0.18199,-7.24702 -0.79147,-10.84124 -0.30474,-1.79711 -0.54392,-3.6155 -0.48524,-5.43732 0.0587,-1.82181 0.42593,-3.65682 1.27671,-5.26885 0.80277,-1.52106 2.008,-2.79867 2.82987,-4.30949 1.04193,-1.91534 1.42589,-4.13 1.46738,-6.31001 0.0415,-2.18 -0.23724,-4.35233 -0.52733,-6.51334 -0.58017,-4.32203 -0.94005,-8.67274 -0.94005,-13.03354 l 0,-4.30948 c 0,-0.72055 -0.031,-1.44066 -0.0813,-2.15946 -0.0503,-0.71879 -0.10303,-1.45346 0.0813,-2.15003 0.22142,-0.83666 0.77503,-1.54103 1.33736,-2.19891 0.56234,-0.65788 1.15778,-1.31245 1.49252,-2.11056 0.28237,-0.67324 0.36337,-1.41768 0.33004,-2.14698 -0.0333,-0.72929 -0.17717,-1.44864 -0.33004,-2.16251 -0.93011,-4.34355 -2.21379,-8.63154 -2.61966,-13.05498 -0.40587,-4.42344 0.15009,-9.10966 2.61966,-12.80192 0.95813,-1.4325 2.19498,-2.7073 2.82988,-4.30947 0.39962,-1.00843 0.54126,-2.10339 0.55636,-3.18801 0.0151,-1.08462 -0.0906,-2.16699 -0.20053,-3.24613 -0.21989,-2.15829 -0.35583,-4.32486 -0.35583,-6.49432 0,-11.49195 0,-22.98391 0,-34.47586 0,-2.87299 0,-5.74598 0,-8.61897 0,-0.72653 -0.059,-1.45143 -0.15421,-2.1717 -0.0476,-0.36014 -0.0933,-0.7221 -0.0865,-1.0853 0.007,-0.3632 0.0697,-0.73201 0.24074,-1.05247 0.26144,-0.4897 0.76956,-0.82821 1.31588,-0.92666 0.54632,-0.0985 1.12214,0.0319 1.59919,0.31578 0.47706,0.28387 0.8582,0.71392 1.12729,1.19946 0.26909,0.48554 0.43005,1.02557 0.52133,1.57314 0.18256,1.09513 0.0919,2.21527 0.14149,3.32441 0.0248,0.55457 0.0852,1.11013 0.23063,1.64588 0.14539,0.53574 0.37816,1.05268 0.72394,1.48696 0.37798,0.47472 0.8797,0.83777 1.4093,1.134 0.52959,0.29623 1.09095,0.53063 1.63994,0.78915 0.54899,0.25852 1.0908,0.54444 1.5593,0.93009 0.46851,0.38564 0.8632,0.87928 1.05122,1.45623 0.24834,0.76203 0.11731,1.60069 -0.14981,2.35635 -0.26711,0.75565 -0.66423,1.45845 -0.96567,2.20108 -0.30144,0.74264 -0.50785,1.55487 -0.36625,2.34374 0.0708,0.39443 0.23041,0.77624 0.48475,1.08593 0.25433,0.30968 0.60599,0.54402 0.99698,0.63186 0.46615,0.10472 0.95005,8e-4 1.42138,-0.0774 0.23566,-0.0391 0.47353,-0.0718 0.71239,-0.0684 0.23886,0.003 0.47999,0.044 0.69611,0.14579 0.36216,0.17055 0.63182,0.50683 0.76749,0.88345 0.13567,0.37661 0.14562,0.79036 0.0792,1.18512 -0.13282,0.78951 -0.55418,1.49568 -0.84671,2.24093 -0.59902,1.52607 -0.64832,3.26138 -0.13691,4.819 0.51142,1.55762 1.57975,2.92597 2.96679,3.79996 0.0731,3.06684 1.07085,6.10567 2.82988,8.61897 0.98899,1.41307 2.22789,2.69315 2.82987,4.30947 0.38072,1.02224 0.48419,2.13113 0.43885,3.22103 -0.0453,1.08989 -0.23526,2.16799 -0.42585,3.24205 -0.19058,1.07406 -0.38267,2.15163 -0.4324,3.24133 -0.0497,1.0897 0.0469,2.19877 0.4194,3.22405 0.59266,1.63144 1.82843,2.93059 2.98841,4.22182 1.15997,1.29124 2.31285,2.69882 2.67135,4.39714 0.29995,1.42093 0.0101,2.89014 -0.20991,4.32561 -0.11002,0.71774 -0.20271,1.44107 -0.19464,2.16715 0.008,0.72607 0.11966,1.45831 0.40455,2.12621 0.33871,0.79409 0.90576,1.46491 1.45332,2.13236 0.54756,0.66744 1.09333,1.36158 1.37656,2.17711 0.23965,0.69004 0.27875,1.4365 0.21807,2.16445 -0.0607,0.72794 -0.21809,1.44378 -0.36307,2.15973 -0.14497,0.71594 -0.2783,1.43853 -0.28971,2.16891 -0.0114,0.73039 0.10431,1.4744 0.43471,2.12588 0.39583,0.78048 1.06785,1.37676 1.65949,2.02157 0.29582,0.32241 0.57584,0.66299 0.79053,1.04426 0.21469,0.38126 0.36271,0.80644 0.37986,1.24366 0.015,0.3822 -0.0697,0.76158 -0.17971,1.12789 -0.11007,0.36632 -0.24609,0.72502 -0.3384,1.09621 -0.0923,0.37118 -0.1401,0.76041 -0.0702,1.13647 0.0698,0.37606 0.26853,0.73913 0.58836,0.9489 0.20139,0.13209 0.44104,0.1982 0.68112,0.21742 0.24007,0.0192 0.48166,-0.007 0.71914,-0.0467 0.47497,-0.0802 0.95028,-0.21821 1.42962,-0.17074 0.32643,0.0323 0.6426,0.15179 0.9147,0.335 0.2721,0.18321 0.50033,0.42921 0.67156,0.709 0.34245,0.55959 0.45046,1.24355 0.37561,1.89533 -0.0749,0.65178 -0.32323,1.27423 -0.64835,1.84407 -0.32512,0.56984 -0.72655,1.09196 -1.13046,1.60894 -0.40391,0.51698 -0.8128,1.03247 -1.15492,1.59226 -0.34213,0.55979 -0.6177,1.16861 -0.73164,1.8147 -0.11394,0.6461 -0.0582,1.33315 0.23243,1.92135 0.1453,0.2941 0.34807,0.56082 0.5994,0.77163 0.25132,0.21081 0.55148,0.36487 0.87167,0.43618 0.46364,0.10326 0.94588,0.0322 1.41687,-0.0295 0.47098,-0.0616 0.95959,-0.11208 1.413,0.0295 0.37787,0.11799 0.7094,0.36692 0.94949,0.68166 0.24009,0.31473 0.39098,0.69289 0.46005,1.08267 0.13814,0.77957 -0.0454,1.58266 -0.32182,2.32456 -0.27639,0.7419 -0.64556,1.44763 -0.9005,2.19718 -0.25493,0.74954 -0.39205,1.56813 -0.18722,2.33289 0.22455,0.83842 0.82811,1.51449 1.41299,2.15581 0.58488,0.64132 1.18945,1.31603 1.4169,2.15367 0.18953,0.69798 0.0965,1.43763 0.002,2.15464 -0.0949,0.717 -0.18903,1.45629 -0.002,2.15485 0.22481,0.83815 0.82579,1.51557 1.40942,2.15777 0.58363,0.64219 1.18747,1.31578 1.42045,2.1517 0.1941,0.69641 0.11022,1.43643 0.0187,2.15355 -0.0916,0.71713 -0.18848,1.45322 -0.0187,2.15594 0.20353,0.84222 0.76751,1.54573 1.3377,2.19815 0.57018,0.65242 1.17523,1.30491 1.49218,2.11133 0.22409,0.57014 0.29208,1.19481 0.24543,1.80563 -0.0467,0.61082 -0.20529,1.20917 -0.42061,1.78268 -0.43065,1.14701 -1.08445,2.19603 -1.58586,3.31392 -0.5014,1.11789 -0.85263,2.35981 -0.62472,3.56362 0.11395,0.6019 0.37637,1.18163 0.79087,1.6327 0.4145,0.45107 0.98559,0.76645 1.59489,0.8299 0.47437,0.0494 0.94957,-0.0508 1.42244,-0.11306 0.47286,-0.0622 0.97259,-0.0828 1.40744,0.11306 0.37602,0.16938 0.67258,0.49352 0.84169,0.86966 0.16911,0.37613 0.21581,0.80087 0.16955,1.21067 -0.0925,0.8196 -0.53732,1.55408 -1.01124,2.22915 -0.52179,0.74326 -1.09261,1.4524 -1.58361,2.21635 -0.49099,0.76395 -0.90464,1.59342 -1.07211,2.48597 -0.16748,0.89255 -0.0706,1.85723 0.40031,2.63372 0.23546,0.38825 0.56176,0.72361 0.95331,0.95354 0.39154,0.22993 0.8486,0.35203 1.3021,0.32938 0.49165,-0.0245 0.95908,-0.21356 1.44357,-0.30069 0.24224,-0.0436 0.49177,-0.0615 0.73438,-0.02 0.24261,0.0415 0.47885,0.14568 0.65193,0.32067 0.13452,0.13601 0.22694,0.31074 0.27696,0.49538 0.05,0.18464 0.0587,0.37902 0.0391,0.56931 -0.0391,0.38059 -0.18803,0.73998 -0.33382,1.0937 -0.14579,0.35372 -0.29179,0.71481 -0.32454,1.09599 -0.0164,0.19059 -0.004,0.3849 0.051,0.56823 0.0546,0.18332 0.15224,0.35545 0.29123,0.48688 0.17785,0.16817 0.41636,0.26312 0.6588,0.29679 0.24244,0.0337 0.48968,0.009 0.73003,-0.0368 0.4807,-0.0925 0.9517,-0.27346 1.44104,-0.25995 0.33043,0.009 0.65663,0.10903 0.94097,0.27761 0.28435,0.16857 0.52697,0.40476 0.71198,0.6787 0.37002,0.54787 0.50204,1.23551 0.44156,1.89386 -0.0605,0.65834 -0.3031,1.28993 -0.62795,1.86574 -0.32485,0.5758 -0.7312,1.10101 -1.14285,1.61834 -0.41164,0.51733 -0.83119,1.03056 -1.18629,1.58822 -0.3551,0.55766 -0.6462,1.1646 -0.77647,1.81276 -0.13026,0.64816 -0.0916,1.34163 0.18633,1.94148 0.13898,0.29993 0.33664,0.5737 0.58475,0.79214 0.2481,0.21844 0.54697,0.3807 0.86797,0.45961 0.46085,0.11329 0.94435,0.0534 1.41527,-0.005 0.47093,-0.0587 0.95551,-0.11488 1.41462,0.005 0.38877,0.10176 0.74047,0.32881 1.01036,0.62657 0.26989,0.29775 0.45949,0.66417 0.56889,1.05086 0.21881,0.77339 0.11807,1.60622 -0.11345,2.3759 -0.23153,0.76967 -0.58875,1.49444 -0.89353,2.23815 -0.30479,0.74372 -0.56059,1.52383 -0.57227,2.32749 -0.0112,0.77032 0.20363,1.52979 0.51279,2.23544 0.30917,0.70565 0.7118,1.36557 1.09857,2.03185 0.38677,0.66628 0.76091,1.34581 1.00654,2.07601 0.24564,0.7302 0.35852,1.51932 0.21197,2.27566 -0.14963,0.77224 -0.55986,1.47368 -0.72313,2.24315 -0.0816,0.38474 -0.0991,0.79031 0.0112,1.16783 0.11029,0.37752 0.35927,0.72445 0.71196,0.8985 0.21474,0.10597 0.45792,0.14462 0.69738,0.14313 0.23946,-0.002 0.47691,-0.0416 0.71215,-0.0864 0.23525,-0.0447 0.47021,-0.0943 0.70878,-0.11505 0.23857,-0.0207 0.48262,-0.0119 0.71157,0.0583 0.3978,0.12195 0.72669,0.42784 0.91601,0.79835 0.18933,0.37051 0.24588,0.80033 0.20281,1.21417 -0.0861,0.82768 -0.54576,1.56341 -1.00281,2.25881 -0.45705,0.69539 -0.93549,1.41298 -1.068,2.23451 -0.0662,0.41077 -0.0402,0.8419 0.11724,1.22704 0.15745,0.38513 0.45314,0.72027 0.83475,0.88608 0.21869,0.095 0.45895,0.13319 0.69736,0.13701 0.23842,0.004 0.47609,-0.0258 0.71183,-0.0616 0.47147,-0.0717 0.95295,-0.16847 1.42068,-0.0754 0.39701,0.079 0.76175,0.29494 1.04023,0.58871 0.27848,0.29378 0.47246,0.66274 0.58095,1.05272 0.217,0.77996 0.0944,1.61906 -0.15879,2.38804 -0.25315,0.76899 -0.63187,1.4897 -0.9424,2.23736 -0.31054,0.74765 -0.55594,1.54336 -0.51999,2.35214 0.0391,0.8795 0.4117,1.71862 0.92116,2.4366 0.50947,0.71797 1.15287,1.3289 1.79885,1.92702 0.64599,0.59813 1.30243,1.19219 1.84537,1.8852 0.54294,0.69301 0.97215,1.4983 1.09438,2.37014 0.10033,0.71558 -0.009,1.44146 -0.0883,2.15965 -0.0796,0.71818 -0.12753,1.46025 0.0883,2.14984 0.25918,0.82803 0.86851,1.49162 1.45045,2.13518 0.58193,0.64356 1.17278,1.33162 1.37944,2.1743 0.17246,0.70324 0.0584,1.44068 -0.0423,2.15771 -0.10072,0.71704 -0.18489,1.46426 0.0423,2.15178 0.13742,0.4159 0.38331,0.78876 0.66548,1.12378 0.28216,0.33502 0.60175,0.63615 0.90988,0.94746 0.30813,0.31131 0.60728,0.63588 0.83996,1.00698 0.23267,0.37111 0.39739,0.79357 0.41456,1.23125 0.0154,0.39153 -0.0869,0.77847 -0.21778,1.14779 -0.13087,0.36933 -0.29124,0.7286 -0.3992,1.10526 -0.10796,0.37666 -0.16211,0.77846 -0.0753,1.16055 0.0434,0.19105 0.12226,0.37505 0.23927,0.53218 0.11701,0.15714 0.27286,0.28674 0.45302,0.36371 0.22336,0.0954 0.47497,0.10724 0.71604,0.0775 0.24106,-0.0297 0.47516,-0.099 0.70999,-0.16112 0.23482,-0.0621 0.47402,-0.11753 0.71691,-0.11845 0.24289,-9.3e-4 0.49232,0.0567 0.68693,0.20205 0.15574,0.11631 0.26943,0.28429 0.33416,0.46757 0.0647,0.18328 0.082,0.38135 0.0656,0.57503 -0.0328,0.38737 -0.19571,0.75028 -0.35958,1.10281 -0.16387,0.35253 -0.33337,0.71108 -0.38092,1.09691 -0.0238,0.19292 -0.016,0.39121 0.0382,0.57789 0.0542,0.18668 0.1561,0.36143 0.30252,0.48927 0.18341,0.16014 0.4274,0.23926 0.67025,0.25679 0.24284,0.0175 0.48631,-0.0225 0.7235,-0.0775 0.2372,-0.055 0.47103,-0.12498 0.71051,-0.16893 0.23948,-0.0439 0.48754,-0.0613 0.72563,-0.0104 0.21067,0.0451 0.40897,0.14338 0.57654,0.27877 0.16757,0.1354 0.30459,0.30736 0.40499,0.49796 0.20082,0.38122 0.25188,0.83047 0.19154,1.25709 -0.0603,0.42662 -0.22695,0.83269 -0.43952,1.20747 -0.21257,0.37478 -0.47103,0.72121 -0.72885,1.06643 -0.51564,0.69044 -1.04845,1.41981 -1.1711,2.27277 -0.0613,0.42649 -0.0116,0.87581 0.18793,1.25771 0.19949,0.38191 0.55755,0.68869 0.97847,0.78076 0.23761,0.052 0.48549,0.0359 0.72492,-0.007 0.23943,-0.0428 0.47328,-0.1119 0.71032,-0.16641 0.23704,-0.0545 0.48012,-0.0947 0.72279,-0.0781 0.24266,0.0166 0.48669,0.0937 0.67184,0.25139 0.14723,0.12542 0.25153,0.29732 0.3091,0.48196 0.0576,0.18463 0.0698,0.38164 0.0505,0.57407 -0.0386,0.38487 -0.19913,0.74547 -0.35768,1.09829 -0.15855,0.35282 -0.31938,0.71322 -0.35869,1.09802 -0.0196,0.1924 -0.008,0.38941 0.0492,0.5742 0.0571,0.18479 0.16083,0.35701 0.3076,0.48295 0.18464,0.15843 0.42841,0.23654 0.67108,0.25395 0.24267,0.0174 0.48598,-0.022 0.72316,-0.0762 0.23718,-0.0542 0.47106,-0.12332 0.71044,-0.1668 0.23937,-0.0435 0.48709,-0.0608 0.72521,-0.0109 0.41471,0.0869 0.77202,0.37917 0.9801,0.74826 0.20809,0.3691 0.27466,0.80788 0.23248,1.22949 -0.0844,0.84321 -0.57342,1.58476 -1.06056,2.27818 -0.48713,0.69342 -1.00083,1.40939 -1.14739,2.24404 -0.0733,0.41733 -0.0479,0.85812 0.11797,1.24802 0.16586,0.3899 0.48007,0.72379 0.8774,0.87098 0.22384,0.0829 0.46641,0.10568 0.70492,0.0961 0.23852,-0.01 0.47453,-0.0506 0.70964,-0.0918 0.23511,-0.0413 0.47095,-0.083 0.7094,-0.094 0.23846,-0.011 0.48108,0.01 0.70591,0.0897 0.39277,0.14011 0.70877,0.45995 0.88418,0.83827 0.17542,0.37832 0.21724,0.81029 0.16196,1.22362 -0.11057,0.82667 -0.58464,1.55307 -1.04632,2.24766 -0.46169,0.69458 -0.93573,1.42101 -1.04622,2.24769 -0.0553,0.41333 -0.0134,0.8453 0.16209,1.2236 0.17547,0.3783 0.49151,0.69809 0.88431,0.83813 0.22485,0.0802 0.46748,0.10065 0.70593,0.0896 0.23846,-0.011 0.47429,-0.0528 0.7094,-0.0941 0.23512,-0.0413 0.47113,-0.0823 0.70965,-0.0918 0.23852,-0.01 0.48109,0.0133 0.7049,0.0963 0.39764,0.14749 0.71185,0.48213 0.87724,0.87266 0.1654,0.39053 0.18995,0.83183 0.11571,1.24939 -0.14848,0.83513 -0.66435,1.55057 -1.15291,2.24397 -0.48857,0.69339 -0.97852,1.43584 -1.06147,2.28 -0.0415,0.42208 0.0265,0.86125 0.23632,1.2298 0.20985,0.36856 0.56938,0.65922 0.98511,0.74314 0.2389,0.0482 0.48691,0.0287 0.72637,-0.0166 0.23947,-0.0453 0.47332,-0.11605 0.71076,-0.17102 0.23745,-0.055 0.48138,-0.0943 0.72436,-0.0753 0.24298,0.019 0.4867,0.10049 0.66838,0.26294 0.1455,0.1301 0.24528,0.3072 0.29653,0.49554 0.0512,0.18833 0.0555,0.38757 0.0282,0.58083 -0.0546,0.38652 -0.23091,0.74348 -0.39867,1.09596 -0.16776,0.35247 -0.33192,0.71765 -0.3593,1.10705 -0.0137,0.1947 0.008,0.39351 0.0789,0.57541 0.0707,0.18191 0.19212,0.34622 0.35439,0.45468 0.20269,0.13547 0.45671,0.17687 0.70001,0.16133 0.2433,-0.0155 0.47974,-0.0839 0.71365,-0.15259 0.23392,-0.0687 0.46977,-0.1385 0.71285,-0.15707 0.24309,-0.0186 0.49738,0.0179 0.70338,0.14833 0.1591,0.10069 0.28204,0.25327 0.3618,0.42382 0.0798,0.17055 0.11793,0.35867 0.12694,0.54674 0.018,0.37613 -0.0748,0.74803 -0.17176,1.11191 -0.0969,0.36388 -0.19696,0.72793 -0.25259,1.10037 -0.0556,0.37243 -0.0644,0.75009 -0.0644,1.12666 l 0,4.30947 c 0,1.44619 0.0901,2.89048 0.23585,4.32931 0.0729,0.71941 0.14292,1.44095 0.13292,2.16397 -0.01,0.72303 -0.10384,1.45286 -0.36877,2.12568 -0.31602,0.80257 -0.86136,1.49042 -1.40262,2.16201 -0.54126,0.67158 -1.09352,1.35213 -1.42727,2.14749 -0.47566,1.13356 -0.46924,2.41387 -0.2935,3.63056 0.17574,1.21668 0.51182,2.40647 0.67339,3.62512 0.16157,1.21865 0.13751,2.50258 -0.37742,3.61886 -0.25746,0.55813 -0.63731,1.06464 -1.12684,1.43635 -0.48952,0.37171 -1.091,0.6039 -1.7055,0.61754 -0.47933,0.0106 -0.95078,-0.10849 -1.42622,-0.17034 -0.23772,-0.0309 -0.47846,-0.0476 -0.71725,-0.0263 -0.23878,0.0212 -0.4763,0.0813 -0.68641,0.19668 -0.34841,0.19137 -0.60449,0.52907 -0.73717,0.90377 -0.13267,0.37471 -0.14839,0.78406 -0.0899,1.17724 0.11695,0.78635 0.51547,1.49711 0.82709,2.22849 0.91779,2.15408 1.09415,4.60392 0.56847,6.8856 -0.52568,2.28167 -1.74074,4.38912 -3.39834,6.04283 -0.62838,0.6269 -1.32127,1.19346 -1.87969,1.88341 -0.27921,0.34498 -0.52385,0.72077 -0.69599,1.12984 -0.17213,0.40907 -0.27041,0.85274 -0.25421,1.29625 0.028,0.76578 0.3885,1.47621 0.55784,2.22356 0.0847,0.37367 0.12111,0.76472 0.0426,1.13975 -0.0784,0.37502 -0.28156,0.73383 -0.60049,0.94616 -0.20074,0.13364 -0.43876,0.20467 -0.67862,0.22955 -0.23987,0.0249 -0.48242,0.005 -0.72082,-0.031 -0.47681,-0.0726 -0.94832,-0.21221 -1.43043,-0.19853 -0.44574,0.0127 -0.88456,0.15936 -1.25792,0.40317 -0.37336,0.24382 -0.68162,0.58281 -0.90415,0.96924 -0.44506,0.77285 -0.53807,1.71526 -0.38178,2.5933 0.15629,0.87804 0.54638,1.69941 1.01519,2.4581 0.46881,0.75868 1.01809,1.46392 1.52866,2.19515 0.47371,0.67845 0.92616,1.41151 1.02251,2.23334 0.0482,0.41092 0.002,0.83759 -0.16907,1.21425 -0.17117,0.37666 -0.47287,0.6996 -0.85344,0.86191 -0.43837,0.18696 -0.93705,0.15178 -1.4089,0.0849 -0.47186,-0.0669 -0.95073,-0.16219 -1.42099,-0.0849 -0.40815,0.0671 -0.79079,0.26496 -1.0961,0.54401 -0.3053,0.27905 -0.53439,0.63709 -0.68014,1.02418 -0.29149,0.77419 -0.24773,1.64196 -0.0367,2.44182 0.42211,1.59973 1.47615,2.98911 1.81291,4.60895 0.24517,1.17927 0.0903,2.41764 -0.29501,3.55883 -0.3853,1.14119 -0.99327,2.19485 -1.66223,3.19648 -1.33794,2.00326 -2.96033,3.88134 -3.70251,6.17313 -0.89336,2.75863 -0.39808,5.74674 0,8.61896 0.19857,1.43271 0.36841,2.9108 0,4.3095 -0.4415,1.67621 -1.60453,3.05467 -2.75505,4.35117 -1.15051,1.2965 -2.35293,2.62458 -2.90471,4.26779 -0.46031,1.37079 -0.42891,2.85592 -0.29415,4.29564 0.13476,1.43972 0.36804,2.8792 0.29415,4.32333 -0.0921,1.79932 -0.6716,3.57135 -1.66053,5.07735 -0.98894,1.50599 -2.3847,2.74204 -3.99923,3.54161 -1.85474,1.49675 -3.17858,3.63842 -3.6882,5.96664 -0.50962,2.32822 -0.20153,4.8271 0.85832,6.96182 0.7741,1.55917 1.94444,2.95801 2.30835,4.6603 0.18196,0.85115 0.14122,1.77271 -0.25502,2.54767 -0.19812,0.38747 -0.4834,0.73259 -0.83835,0.98438 -0.35496,0.25179 -0.78019,0.408 -1.21498,0.42662 -0.48259,0.0207 -0.95473,-0.12433 -1.43159,-0.20128 -0.23843,-0.0385 -0.48135,-0.06 -0.72158,-0.0351 -0.24023,0.0249 -0.47869,0.0981 -0.6767,0.2364 -0.31214,0.21797 -0.50016,0.58376 -0.56228,0.95937 -0.0621,0.37561 -0.009,0.76178 0.0844,1.13079 0.0936,0.36902 0.22753,0.72657 0.33128,1.09287 0.10375,0.3663 0.17759,0.74699 0.14665,1.12644 -0.0355,0.43549 -0.2086,0.85139 -0.44412,1.21942 -0.23552,0.36803 -0.53248,0.69247 -0.83695,1.00585 -0.30447,0.31339 -0.61872,0.6185 -0.89564,0.95647 -0.27693,0.33798 -0.51752,0.7124 -0.65318,1.12775 -0.24655,0.75485 -0.12755,1.58518 0.12517,2.33799 0.25272,0.75281 0.63316,1.45598 0.92385,2.19496 0.2907,0.73897 0.49259,1.54126 0.36374,2.32484 -0.0644,0.39179 -0.2132,0.77278 -0.45431,1.08824 -0.24111,0.31546 -0.57702,0.56268 -0.95845,0.67294 -0.45679,0.13204 -0.94442,0.0648 -1.41512,-0.003 -0.47069,-0.0674 -0.95892,-0.13279 -1.41475,0.003 -0.38025,0.11289 -0.7136,0.3633 -0.95093,0.68112 -0.23733,0.31783 -0.38121,0.70035 -0.44064,1.09253 -0.11885,0.78436 0.0929,1.58291 0.38887,2.31895 0.29598,0.73603 0.67788,1.43793 0.92439,2.19197 0.24652,0.75405 0.34996,1.58903 0.0783,2.33439 -0.20768,0.56982 -0.62167,1.04722 -1.1032,1.41593 -0.48154,0.36871 -1.03094,0.63769 -1.58335,0.88804 -0.5524,0.25034 -1.11386,0.48557 -1.63486,0.79603 -0.521,0.31047 -1.00515,0.70272 -1.33835,1.20947 -0.33352,0.50723 -0.50265,1.11276 -0.53282,1.71907 -0.0302,0.60631 0.0743,1.21414 0.25462,1.79381 0.36058,1.15934 1.01468,2.20072 1.5559,3.28754 0.54121,1.08681 0.9807,2.28099 0.85928,3.48903 -0.0607,0.60402 -0.26677,1.19971 -0.63526,1.68214 -0.36849,0.48243 -0.9051,0.84477 -1.50172,0.95687 -0.46611,0.0876 -0.94551,0.0236 -1.41669,-0.0305 -0.47118,-0.0541 -0.95636,-0.0969 -1.41319,0.0305 -0.31734,0.0885 -0.61042,0.25823 -0.85236,0.48185 -0.24194,0.22362 -0.43307,0.50036 -0.56618,0.80172 -0.26624,0.60273 -0.29625,1.29322 -0.16162,1.93822 0.26927,1.29002 1.14238,2.35563 1.95657,3.39184 0.4071,0.5181 0.80777,1.04494 1.12625,1.62177 0.31849,0.57682 0.55396,1.20871 0.60785,1.86541 0.0539,0.6567 -0.084,1.34056 -0.45703,1.88371 -0.18651,0.27158 -0.4299,0.50524 -0.71428,0.67158 -0.28438,0.16634 -0.60984,0.26435 -0.9392,0.27234 -0.48971,0.0119 -0.96051,-0.17051 -1.44148,-0.26334 -0.24049,-0.0464 -0.48797,-0.0705 -0.73049,-0.0363 -0.24252,0.0342 -0.48095,0.13026 -0.6579,0.2996 -0.13844,0.13249 -0.23489,0.30574 -0.28799,0.48986 -0.0531,0.18412 -0.064,0.37889 -0.0457,0.56964 0.0365,0.3815 0.18615,0.74175 0.33405,1.09531 0.1479,0.35356 0.2975,0.71384 0.33388,1.09536 0.0182,0.19075 0.007,0.38552 -0.046,0.56962 -0.0532,0.18409 -0.14972,0.3573 -0.28824,0.4897 -0.17704,0.16922 -0.41551,0.26507 -0.65803,0.29917 -0.24252,0.0341 -0.48996,0.01 -0.73042,-0.0366 -0.48091,-0.0929 -0.95179,-0.27518 -1.44144,-0.2626 -0.33076,0.009 -0.65744,0.10806 -0.94222,0.27652 -0.28477,0.16847 -0.52776,0.40478 -0.71298,0.67895 -0.37044,0.54835 -0.5022,1.23684 -0.44098,1.89575 0.0612,0.65891 0.30502,1.29077 0.63108,1.86661 0.32606,0.57584 0.73368,1.10086 1.14648,1.61807 0.4128,0.51721 0.83341,1.0304 1.18927,1.58832 0.35586,0.55792 0.6474,1.16544 0.77741,1.81429 0.13,0.64886 0.0903,1.34313 -0.18947,1.94283 -0.13989,0.29984 -0.33862,0.57328 -0.58779,0.79098 -0.24917,0.2177 -0.54909,0.3788 -0.8708,0.45612 -0.46153,0.11092 -0.94473,0.0482 -1.41565,-0.0113 -0.47092,-0.0595 -0.95649,-0.11434 -1.41422,0.0113 -0.38559,0.10587 -0.73184,0.33836 -0.99394,0.64034 -0.2621,0.30198 -0.4417,0.67131 -0.54073,1.05871 -0.19804,0.7748 -0.076,1.59982 0.16678,2.36178 0.24283,0.76195 0.60258,1.48073 0.89433,2.22532 0.29176,0.7446 0.51788,1.53433 0.47356,2.33282 -0.0488,0.87837 -0.42484,1.71385 -0.93486,2.43065 -0.51002,0.7168 -1.15138,1.32855 -1.79489,1.92839 -0.64352,0.59984 -1.29683,1.19629 -1.83738,1.89035 -0.54055,0.69407 -0.96813,1.4987 -1.09263,2.36957 -0.10222,0.71503 0.003,1.44103 0.0804,2.15912 0.0779,0.71808 0.12708,1.45852 -0.0804,2.15037 -0.24895,0.82998 -0.84025,1.50634 -1.4153,2.15454 -0.57506,0.64819 -1.16617,1.3248 -1.41458,2.15494 -0.20707,0.69197 -0.15723,1.43238 -0.0791,2.15044 0.0781,0.71805 0.18262,1.44421 0.0791,2.15905 -0.12614,0.87116 -0.55714,1.6749 -1.10078,2.36721 -0.54364,0.69231 -1.19979,1.28639 -1.84515,1.88502 -0.64535,0.59862 -1.28771,1.21049 -1.79598,1.92916 -0.50828,0.71868 -0.87951,1.55816 -0.91785,2.43757 -0.0353,0.80871 0.21027,1.60416 0.52069,2.35175 0.31042,0.74759 0.68879,1.46835 0.9416,2.23734 0.25281,0.76899 0.37512,1.60796 0.15814,2.38782 -0.1085,0.38992 -0.30238,0.75885 -0.58071,1.05269 -0.27833,0.29385 -0.64284,0.51001 -1.03972,0.58937 -0.46758,0.0935 -0.94911,-0.003 -1.42056,-0.0741 -0.23573,-0.0357 -0.47335,-0.0653 -0.71174,-0.0617 -0.23839,0.004 -0.47864,0.0414 -0.69757,0.13577 -0.38025,0.16395 -0.67643,0.49512 -0.83665,0.87695 -0.16023,0.38184 -0.19108,0.81041 -0.13015,1.21999 0.12186,0.81916 0.58832,1.53967 1.03759,2.23539 0.44928,0.69572 0.90425,1.4271 0.99798,2.24995 0.0469,0.41143 -0.002,0.83923 -0.18208,1.21233 -0.17963,0.3731 -0.49611,0.68682 -0.88669,0.82435 -0.22513,0.0793 -0.46769,0.0993 -0.7061,0.0881 -0.23841,-0.0112 -0.47422,-0.0528 -0.70934,-0.0938 -0.23513,-0.041 -0.47117,-0.0817 -0.70966,-0.0909 -0.2385,-0.009 -0.48098,0.0138 -0.70478,0.0967 -0.39569,0.14666 -0.70936,0.47785 -0.87666,0.86526 -0.16729,0.38742 -0.19589,0.82603 -0.12639,1.24226 0.13899,0.83246 0.64345,1.55047 1.12431,2.24408 0.48085,0.6936 0.96566,1.43171 1.05529,2.27092 0.0448,0.4196 -0.0164,0.85667 -0.21731,1.22777 -0.2009,0.3711 -0.54903,0.66966 -0.95924,0.76868 -0.23499,0.0567 -0.48152,0.0481 -0.72057,0.0122 -0.23905,-0.0359 -0.47314,-0.0986 -0.70942,-0.14972 -0.23627,-0.0511 -0.47723,-0.0908 -0.71872,-0.0798 -0.24149,0.011 -0.48532,0.0757 -0.68117,0.21739 -0.15424,0.1116 -0.27389,0.26785 -0.3525,0.44124 -0.0786,0.1734 -0.11711,0.36354 -0.12435,0.55379 -0.0145,0.38049 0.0935,0.75478 0.22182,1.11327 0.12831,0.3585 0.27867,0.71149 0.35461,1.08461 0.0759,0.37312 0.0718,0.77653 -0.0996,1.11656 -0.12479,0.24762 -0.33426,0.44943 -0.5808,0.57635 -0.24654,0.12692 -0.52861,0.18012 -0.80547,0.16461 -0.55371,-0.031 -1.06811,-0.33284 -1.44361,-0.74096 -0.50369,-0.54743 -0.77963,-1.27767 -0.86991,-2.01607 -0.0903,-0.7384 -0.005,-1.48823 0.14081,-2.2176 0.29261,-1.45874 0.83377,-2.90118 0.7291,-4.38529 -0.10762,-1.52591 -0.88446,-2.91035 -1.59043,-4.2674 -0.35298,-0.67853 -0.69371,-1.36704 -0.93269,-2.0936 -0.23897,-0.72656 -0.37439,-1.49611 -0.30675,-2.25797 0.0722,-0.8136 0.37173,-1.58895 0.70462,-2.33483 0.33289,-0.74588 0.70384,-1.47938 0.9332,-2.26332 0.22936,-0.78393 0.30996,-1.63648 0.0555,-2.41261 -0.12725,-0.38807 -0.33829,-0.75117 -0.62911,-1.03789 -0.29082,-0.28673 -0.66282,-0.49475 -1.06417,-0.57031 -0.46812,-0.0881 -0.94859,0.003 -1.42009,0.0713 -0.47149,0.0678 -0.96883,0.10887 -1.4098,-0.0713 -0.35474,-0.14492 -0.6449,-0.42663 -0.83455,-0.75961 -0.18964,-0.33298 -0.28338,-0.71503 -0.30704,-1.0975 -0.0473,-0.76493 0.16953,-1.51957 0.39632,-2.25164 0.2268,-0.73207 0.4621,-1.46426 0.59325,-2.21935 0.13116,-0.75509 0.15202,-1.52447 0.15202,-2.29087 l 0,-21.5474 c 0,-0.72024 0.0288,-1.44009 0.0756,-2.15881 0.0468,-0.71872 0.0959,-1.45116 -0.0756,-2.15068 -0.20609,-0.84061 -0.72519,-1.56772 -1.27484,-2.23628 -0.54965,-0.66856 -1.14652,-1.31017 -1.55503,-2.0732 -0.5144,-0.96082 -0.70351,-2.0674 -0.72393,-3.15707 -0.0204,-1.08967 0.1171,-2.17559 0.26021,-3.25602 0.28622,-2.16084 0.46372,-4.33565 0.46372,-6.51537 0,-10.05545 0,-20.11091 0,-30.16636 0,-22.98391 0,-45.96781 0,-68.95172 0,-5.74599 0,-11.49197 0,-17.23796 0,-2.87299 0,-5.74597 0,-8.61896 0,-0.72024 0.0288,-1.44008 0.0756,-2.1588 0.0467,-0.71872 0.0959,-1.45115 -0.0756,-2.15067 -0.20609,-0.84061 -0.72519,-1.56772 -1.27485,-2.23629 -0.54965,-0.66857 -1.14652,-1.31018 -1.55503,-2.07321 -0.5144,-0.96082 -0.70351,-2.0674 -0.72393,-3.15706 -0.0204,-1.08967 0.1171,-2.17559 0.26021,-3.25601 0.28622,-2.16084 0.46372,-4.33565 0.46372,-6.51536 0,-8.61897 0,-17.23793 0,-25.8569 0,-1.4365 0,-2.87299 0,-4.30949 0,-0.75111 0.1194,-1.49564 0.30766,-2.22278 0.0941,-0.36357 0.18433,-0.73466 0.16715,-1.10983 -0.009,-0.18758 -0.0454,-0.37523 -0.12266,-0.54637 -0.0773,-0.17113 -0.19652,-0.32542 -0.35215,-0.43049 -0.20125,-0.13586 -0.45231,-0.18266 -0.69497,-0.17384 -0.24266,0.009 -0.48015,0.0695 -0.71445,0.13327 -0.2343,0.0637 -0.46925,0.13117 -0.711,0.15398 -0.24174,0.0228 -0.49389,-0.002 -0.70946,-0.11341 -0.17147,-0.0889 -0.31336,-0.23047 -0.41305,-0.3959 -0.0997,-0.16542 -0.1581,-0.35404 -0.18146,-0.54577 -0.0467,-0.38344 0.0445,-0.77089 0.17099,-1.13587 0.12653,-0.36497 0.28903,-0.71773 0.39294,-1.08978 0.1039,-0.37204 0.1467,-0.77376 0.0306,-1.14218 -0.11449,-0.36324 -0.37933,-0.66939 -0.70286,-0.87035 -0.32352,-0.20096 -0.70267,-0.30196 -1.08262,-0.3283 -0.75989,-0.0527 -1.50904,0.17501 -2.23249,0.41339 -0.72345,0.23839 -1.44683,0.48635 -2.19586,0.62475 -0.74904,0.1384 -1.5141,0.16051 -2.27581,0.16051 -16.03597,0 -32.07195,0 -48.10792,0 -108.47868,0 -216.95735,0 -325.43603,0 -1.30792,0 -2.62362,0.0449 -3.90191,0.32165 -1.2783,0.27678 -2.4969,0.77056 -3.71725,1.24108 -1.22035,0.47052 -2.50394,0.91784 -3.80593,0.79347 -0.651,-0.0622 -1.2974,-0.27861 -1.80907,-0.68587 -0.51167,-0.40726 -0.87692,-1.01749 -0.91522,-1.67033 -0.0226,-0.38551 0.066,-0.7693 0.18386,-1.13706 0.11783,-0.36775 0.2654,-0.72606 0.36643,-1.09878 0.10104,-0.37272 0.1546,-0.76656 0.0799,-1.14544 -0.0374,-0.18943 -0.10698,-0.37338 -0.21274,-0.53493 -0.10575,-0.16154 -0.24824,-0.30023 -0.41744,-0.39326 -0.20916,-0.11499 -0.45165,-0.15744 -0.69029,-0.16203 -0.23864,-0.005 -0.47642,0.0262 -0.71295,0.0582 -0.47304,0.0641 -0.94928,0.10381 -1.42665,0.10381 l -2.82988,0 c -3.42022,0 -6.81678,0.48436 -10.14952,1.25295 -1.66637,0.38429 -3.35962,0.75289 -5.06847,0.68727 -0.85442,-0.0328 -1.70945,-0.17912 -2.50523,-0.49194 -0.79578,-0.31281 -1.53184,-0.79704 -2.08592,-1.44828 -0.56068,-0.659 -0.9176,-1.46194 -1.30775,-2.23422 -0.39015,-0.77229 -0.83807,-1.54545 -1.52213,-2.07527 -0.7613,-0.58965 -1.74862,-0.82195 -2.71122,-0.84763 -0.9626,-0.0257 -1.91958,0.13534 -2.86782,0.30302 -1.89646,0.33536 -3.81459,0.54461 -5.740476,0.54461 l -25.468906,0 c -2.459472,0 -4.898691,0.37924 -7.284095,0.97828 -1.192702,0.29952 -2.408509,0.58663 -3.637074,0.533 -0.614283,-0.0268 -1.228874,-0.143 -1.792686,-0.38832 -0.563811,-0.24531 -1.075998,-0.62417 -1.435537,-1.12296 -0.430522,-0.59727 -0.624974,-1.3408 -0.655757,-2.07641 -0.03078,-0.73562 0.09304,-1.46901 0.250312,-2.18827 0.157274,-0.71927 0.348653,-1.43218 0.456289,-2.16053 0.107637,-0.72835 0.129512,-1.47993 -0.05084,-2.19376 -0.212078,-0.83938 -0.692425,-1.58599 -1.224012,-2.26933 -0.531587,-0.68334 -1.12268,-1.32176 -1.605868,-2.04014 -1.222806,-1.818 -1.6904,-4.05548 -1.741572,-6.24586 -0.05117,-2.19038 0.279656,-4.37019 0.624071,-6.53392 0.688829,-4.32748 1.117501,-8.69515 1.117501,-13.07711 l 0,-47.40432 c 0,-1.98078 -0.06615,-3.97278 -0.475291,-5.91085 -0.409143,-1.93806 -1.13962,-3.78997 -1.836864,-5.64398 -0.697244,-1.854 -1.360746,-3.7983 -1.182278,-5.77103 0.08923,-0.98636 0.405086,-1.96687 1.005662,-2.75439 0.600575,-0.78751 1.503522,-1.36639 2.488771,-1.46716 0.471084,-0.0482 0.945535,0.0109 1.417251,0.0524 0.471716,0.0415 0.953824,0.0648 1.412629,-0.0524 0.580554,-0.14832 1.093188,-0.52071 1.451434,-1.00102 0.358246,-0.48032 0.566742,-1.06346 0.641124,-1.65803 0.148764,-1.18913 -0.224153,-2.38317 -0.710646,-3.47838 -0.486493,-1.09521 -1.09267,-2.14217 -1.454556,-3.28462 -0.180943,-0.57123 -0.29941,-1.16579 -0.302995,-1.76498 -0.0036,-0.59919 0.110577,-1.20403 0.375639,-1.74142 0.3875,-0.78561 1.065807,-1.37952 1.662133,-2.02119 0.298163,-0.32083 0.580571,-0.66025 0.795689,-1.04177 0.215117,-0.38153 0.361437,-0.80866 0.372056,-1.24652 0.0094,-0.38686 -0.08651,-0.76877 -0.207602,-1.13631 -0.121093,-0.36754 -0.268166,-0.72694 -0.366624,-1.10118 -0.09846,-0.37423 -0.147172,-0.7697 -0.06753,-1.14839 0.03982,-0.18934 0.111889,-0.37276 0.219677,-0.53344 0.107788,-0.16068 0.251864,-0.29818 0.422084,-0.39017 0.211322,-0.1142 0.456192,-0.15532 0.696379,-0.15236 0.240187,0.003 0.477731,0.048 0.712782,0.0975 0.235052,0.0495 0.469939,0.10368 0.70917,0.1253 0.23923,0.0216 0.485081,0.01 0.711548,-0.0705 0.385157,-0.13618 0.685234,-0.46507 0.836989,-0.84436 0.151756,-0.37929 0.165392,-0.80389 0.09376,-1.20609 -0.143272,-0.80438 -0.605425,-1.50953 -0.930745,-2.25902 -0.740433,-1.70585 -0.76258,-3.6705 -0.284045,-5.46749 0.478535,-1.79698 1.431711,-3.43934 2.570981,-4.9091 2.278539,-2.93954 5.302044,-5.24144 7.540266,-8.21179 1.119111,-1.48517 2.039531,-3.14901 2.468858,-4.95838 0.429327,-1.80937 0.339681,-3.77628 -0.469936,-5.4504 -0.404808,-0.83706 -0.985547,-1.59214 -1.710202,-2.17473 -0.724655,-0.58259 -1.594018,-0.98975 -2.510997,-1.14365 -0.916979,-0.15391 -1.879853,-0.0506 -2.731769,0.32191 -0.851915,0.37253 -1.587431,1.01684 -2.043278,1.82724 0,0 0,0 0,0"
       style="fill:url(#radialGradient3971);fill-opacity:1;stroke:#000000;stroke-width:1.72854018000000000px;stroke-linecap:butt;stroke-linejoin:miter;stroke-opacity:1;filter:url(#filter3955)" />
  </g>
</svg>
