<?xml version="1.0" encoding="UTF-8" standalone="no"?>
<!-- Created with Inkscape (http://www.inkscape.org/) -->

<svg
   xmlns:dc="http://purl.org/dc/elements/1.1/"
   xmlns:cc="http://creativecommons.org/ns#"
   xmlns:rdf="http://www.w3.org/1999/02/22-rdf-syntax-ns#"
   xmlns:svg="http://www.w3.org/2000/svg"
   xmlns="http://www.w3.org/2000/svg"
   xmlns:sodipodi="http://sodipodi.sourceforge.net/DTD/sodipodi-0.dtd"
   xmlns:inkscape="http://www.inkscape.org/namespaces/inkscape"
   version="1.1"
   width="210mm"
   height="297mm"
   id="svg2"
   inkscape:version="0.48.2 r9819"
   sodipodi:docname="rubber.svg">
  <sodipodi:namedview
     pagecolor="#ffffff"
     bordercolor="#666666"
     borderopacity="1"
     objecttolerance="10"
     gridtolerance="10"
     guidetolerance="10"
     inkscape:pageopacity="0"
     inkscape:pageshadow="2"
     inkscape:window-width="1280"
     inkscape:window-height="972"
     id="namedview12"
     showgrid="false"
     inkscape:zoom="1.7940591"
     inkscape:cx="136.17455"
     inkscape:cy="895.58524"
     inkscape:window-x="-8"
     inkscape:window-y="-8"
     inkscape:window-maximized="1"
     inkscape:current-layer="svg2" />
  <defs
     id="defs4">
    <linearGradient
       id="linearGradient5249">
      <stop
         id="stop5251"
         style="stop-color:#5a1e05;stop-opacity:1"
         offset="0" />
    </linearGradient>
    <filter
       color-interpolation-filters="sRGB"
       id="filter3795">
      <feGaussianBlur
         id="feGaussianBlur3797"
         stdDeviation="1.7759923" />
    </filter>
  </defs>
  <metadata
     id="metadata7">
    <rdf:RDF>
      <cc:Work
         rdf:about="">
        <dc:format>image/svg+xml</dc:format>
        <dc:type
           rdf:resource="http://purl.org/dc/dcmitype/StillImage" />
        <dc:title />
      </cc:Work>
    </rdf:RDF>
  </metadata>
  <g
     id="layer1"
     transform="translate(4.2623875,-802.36218)">
    <path
       d="m 27.692018,803.36045 199.931812,-0.50101 c 0,0 21.15148,0.50101 21.65508,21.54374 0.50361,21.04271 0,207.42102 0,207.42102 0,0 0,19.5397 -22.15868,19.5397 -22.15869,0 -199.428212,0.501 -199.428212,0.501 0,0 -27.19475633,-2.004 -27.19475633,-22.5457 0,-20.5417 0,-211.93027 0,-211.93027 0,0 1.00721403,-13.52745 27.19475633,-14.02848 z"
       id="path2995"
       style="fill:#ffd5d5;stroke:#000000;stroke-width:0.99452335px;stroke-linecap:butt;stroke-linejoin:miter;stroke-opacity:0"
       inkscape:connector-curvature="0" />
    <path
       d="m 120.91526,916.24414 c 6.73611,1.24087 1.6507,9.69234 -2.0624,11.19586 -10.06226,4.07443 -19.166101,-6.13775 -20.329312,-15.32066 -2.080712,-16.42608 13.205152,-29.04856 28.578922,-29.46277 22.56161,-0.60786 39.11974,20.33079 38.59622,41.83718 -0.69777,28.66462 -27.47217,49.26507 -55.09544,47.72967 -34.761063,-1.93214 -59.447495,-34.61983 -56.863128,-68.35369 3.130015,-40.85622 41.770802,-69.65116 81.611948,-65.99658 46.95141,4.30679 79.86813,48.92379 75.13004,94.8702 -5.47031,53.04696 -56.07814,90.09395 -108.12846,84.26345 C 43.210755,1010.3819 2.0276255,953.77341 8.9566969,895.62013 16.730068,830.38093 79.346147,785.05753 143.60168,793.08972 c 71.33582,8.91726 120.80257,77.546 111.66386,147.90324"
       transform="translate(-7.6966064,24.251987)"
       id="path3765"
       style="fill:none;stroke:#5a1e05;stroke-width:1px;stroke-linecap:butt;stroke-linejoin:miter;stroke-opacity:0.19607843;filter:url(#filter3795)"
       inkscape:connector-curvature="0" />
  </g>
</svg>
